<svg width="430" height="323" viewBox="0 0 430 323" fill="none" xmlns="http://www.w3.org/2000/svg">
<rect width="202" height="69" transform="translate(0.336914)" fill="#451841"/>
<path d="M29.7889 55.52C27.0156 55.52 24.9009 54.74 23.4449 53.18C21.9889 51.5853 21.2609 49.3147 21.2609 46.368V18.6H26.9809V46.784C26.9809 48.032 27.2236 48.9333 27.7089 49.488C28.2289 50.0427 28.9569 50.32 29.8929 50.32C30.8289 50.32 31.5396 50.0427 32.0249 49.488C32.5449 48.9333 32.8049 48.032 32.8049 46.784V18.6H38.3169V46.368C38.3169 49.3147 37.5889 51.5853 36.1329 53.18C34.6769 54.74 32.5622 55.52 29.7889 55.52ZM47.904 36.384L41.612 18.6H47.644L51.492 30.352H51.596L55.548 18.6H60.956L54.664 36.384L61.268 55H55.236L51.076 42.312H50.972L46.708 55H41.3L47.904 36.384ZM73.3531 18.6H82.0891C84.9318 18.6 87.0638 19.3627 88.4851 20.888C89.9065 22.4133 90.6171 24.6493 90.6171 27.596V46.004C90.6171 48.9507 89.9065 51.1867 88.4851 52.712C87.0638 54.2373 84.9318 55 82.0891 55H73.3531V18.6ZM81.9851 49.8C82.9211 49.8 83.6318 49.5227 84.1171 48.968C84.6371 48.4133 84.8971 47.512 84.8971 46.264V27.336C84.8971 26.088 84.6371 25.1867 84.1171 24.632C83.6318 24.0773 82.9211 23.8 81.9851 23.8H79.0731V49.8H81.9851ZM94.9981 18.6H110.598V23.8H100.718V33.42H108.57V38.62H100.718V49.8H110.598V55H94.9981V18.6ZM121.946 55.52C119.173 55.52 117.076 54.74 115.654 53.18C114.233 51.5853 113.522 49.3147 113.522 46.368V44.288H118.93V46.784C118.93 49.1413 119.918 50.32 121.894 50.32C122.865 50.32 123.593 50.0427 124.078 49.488C124.598 48.8987 124.858 47.9627 124.858 46.68C124.858 45.1547 124.512 43.82 123.818 42.676C123.125 41.4973 121.842 40.0933 119.97 38.464C117.613 36.384 115.966 34.512 115.03 32.848C114.094 31.1493 113.626 29.2427 113.626 27.128C113.626 24.2507 114.354 22.032 115.81 20.472C117.266 18.8773 119.381 18.08 122.154 18.08C124.893 18.08 126.956 18.8773 128.342 20.472C129.764 22.032 130.474 24.2853 130.474 27.232V28.74H125.066V26.868C125.066 25.62 124.824 24.7187 124.338 24.164C123.853 23.5747 123.142 23.28 122.206 23.28C120.3 23.28 119.346 24.4413 119.346 26.764C119.346 28.0813 119.693 29.312 120.386 30.456C121.114 31.6 122.414 32.9867 124.286 34.616C126.678 36.696 128.325 38.5853 129.226 40.284C130.128 41.9827 130.578 43.976 130.578 46.264C130.578 49.2453 129.833 51.5333 128.342 53.128C126.886 54.7227 124.754 55.52 121.946 55.52ZM134.378 18.6H140.098V55H134.378V18.6ZM153.014 55.52C150.241 55.52 148.126 54.74 146.67 53.18C145.214 51.5853 144.486 49.3147 144.486 46.368V27.232C144.486 24.2853 145.214 22.032 146.67 20.472C148.126 18.8773 150.241 18.08 153.014 18.08C155.787 18.08 157.902 18.8773 159.358 20.472C160.814 22.032 161.542 24.2853 161.542 27.232V30.352H156.134V26.868C156.134 24.476 155.146 23.28 153.17 23.28C151.194 23.28 150.206 24.476 150.206 26.868V46.784C150.206 49.1413 151.194 50.32 153.17 50.32C155.146 50.32 156.134 49.1413 156.134 46.784V39.66H153.274V34.46H161.542V46.368C161.542 49.3147 160.814 51.5853 159.358 53.18C157.902 54.74 155.787 55.52 153.014 55.52ZM165.734 18.6H172.91L178.474 40.388H178.578V18.6H183.674V55H177.798L170.934 28.428H170.83V55H165.734V18.6Z" fill="#F1F1F1"/>
<rect width="193" height="67" transform="translate(224.337 2)" fill="#942F88"/>
<path d="M252.789 55.52C250.016 55.52 247.901 54.74 246.445 53.18C244.989 51.5853 244.261 49.3147 244.261 46.368V18.6H249.981V46.784C249.981 48.032 250.224 48.9333 250.709 49.488C251.229 50.0427 251.957 50.32 252.893 50.32C253.829 50.32 254.54 50.0427 255.025 49.488C255.545 48.9333 255.805 48.032 255.805 46.784V18.6H261.317V46.368C261.317 49.3147 260.589 51.5853 259.133 53.18C257.677 54.74 255.562 55.52 252.789 55.52ZM265.911 18.6H271.631V55H265.911V18.6ZM285.283 18.6H294.019C296.861 18.6 298.993 19.3627 300.415 20.888C301.836 22.4133 302.547 24.6493 302.547 27.596V46.004C302.547 48.9507 301.836 51.1867 300.415 52.712C298.993 54.2373 296.861 55 294.019 55H285.283V18.6ZM293.915 49.8C294.851 49.8 295.561 49.5227 296.047 48.968C296.567 48.4133 296.827 47.512 296.827 46.264V27.336C296.827 26.088 296.567 25.1867 296.047 24.632C295.561 24.0773 294.851 23.8 293.915 23.8H291.003V49.8H293.915ZM306.928 18.6H322.528V23.8H312.648V33.42H320.5V38.62H312.648V49.8H322.528V55H306.928V18.6ZM333.876 55.52C331.103 55.52 329.005 54.74 327.584 53.18C326.163 51.5853 325.452 49.3147 325.452 46.368V44.288H330.86V46.784C330.86 49.1413 331.848 50.32 333.824 50.32C334.795 50.32 335.523 50.0427 336.008 49.488C336.528 48.8987 336.788 47.9627 336.788 46.68C336.788 45.1547 336.441 43.82 335.748 42.676C335.055 41.4973 333.772 40.0933 331.9 38.464C329.543 36.384 327.896 34.512 326.96 32.848C326.024 31.1493 325.556 29.2427 325.556 27.128C325.556 24.2507 326.284 22.032 327.74 20.472C329.196 18.8773 331.311 18.08 334.084 18.08C336.823 18.08 338.885 18.8773 340.272 20.472C341.693 22.032 342.404 24.2853 342.404 27.232V28.74H336.996V26.868C336.996 25.62 336.753 24.7187 336.268 24.164C335.783 23.5747 335.072 23.28 334.136 23.28C332.229 23.28 331.276 24.4413 331.276 26.764C331.276 28.0813 331.623 29.312 332.316 30.456C333.044 31.6 334.344 32.9867 336.216 34.616C338.608 36.696 340.255 38.5853 341.156 40.284C342.057 41.9827 342.508 43.976 342.508 46.264C342.508 49.2453 341.763 51.5333 340.272 53.128C338.816 54.7227 336.684 55.52 333.876 55.52ZM346.308 18.6H352.028V55H346.308V18.6ZM364.944 55.52C362.17 55.52 360.056 54.74 358.6 53.18C357.144 51.5853 356.416 49.3147 356.416 46.368V27.232C356.416 24.2853 357.144 22.032 358.6 20.472C360.056 18.8773 362.17 18.08 364.944 18.08C367.717 18.08 369.832 18.8773 371.288 20.472C372.744 22.032 373.472 24.2853 373.472 27.232V30.352H368.064V26.868C368.064 24.476 367.076 23.28 365.1 23.28C363.124 23.28 362.136 24.476 362.136 26.868V46.784C362.136 49.1413 363.124 50.32 365.1 50.32C367.076 50.32 368.064 49.1413 368.064 46.784V39.66H365.204V34.46H373.472V46.368C373.472 49.3147 372.744 51.5853 371.288 53.18C369.832 54.74 367.717 55.52 364.944 55.52ZM377.664 18.6H384.84L390.404 40.388H390.508V18.6H395.604V55H389.728L382.864 28.428H382.76V55H377.664V18.6Z" fill="black"/>
<rect width="329" height="62" transform="translate(0.336914 100)" fill="#F1F1F1"/>
<path d="M7.46891 112.6H15.8929C18.7356 112.6 20.8676 113.363 22.2889 114.888C23.7102 116.413 24.4209 118.649 24.4209 121.596V125.184C24.4209 128.131 23.7102 130.367 22.2889 131.892C20.8676 133.417 18.7356 134.18 15.8929 134.18H13.1889V149H7.46891V112.6ZM15.8929 128.98C16.8289 128.98 17.5222 128.72 17.9729 128.2C18.4582 127.68 18.7009 126.796 18.7009 125.548V121.232C18.7009 119.984 18.4582 119.1 17.9729 118.58C17.5222 118.06 16.8289 117.8 15.8929 117.8H13.1889V128.98H15.8929ZM28.0475 112.6H36.5235C39.4702 112.6 41.6195 113.293 42.9715 114.68C44.3235 116.032 44.9995 118.129 44.9995 120.972V123.208C44.9995 126.987 43.7515 129.379 41.2555 130.384V130.488C42.6422 130.904 43.6128 131.753 44.1675 133.036C44.7568 134.319 45.0515 136.035 45.0515 138.184V144.58C45.0515 145.62 45.0862 146.469 45.1555 147.128C45.2248 147.752 45.3982 148.376 45.6755 149H39.8515C39.6435 148.411 39.5048 147.856 39.4355 147.336C39.3662 146.816 39.3315 145.88 39.3315 144.528V137.872C39.3315 136.208 39.0542 135.047 38.4995 134.388C37.9795 133.729 37.0608 133.4 35.7435 133.4H33.7675V149H28.0475V112.6ZM35.8475 128.2C36.9915 128.2 37.8408 127.905 38.3955 127.316C38.9848 126.727 39.2795 125.739 39.2795 124.352V121.544C39.2795 120.227 39.0368 119.273 38.5515 118.684C38.1008 118.095 37.3728 117.8 36.3675 117.8H33.7675V128.2H35.8475ZM57.8082 149.52C55.0002 149.52 52.8508 148.723 51.3602 147.128C49.8695 145.533 49.1242 143.28 49.1242 140.368V121.232C49.1242 118.32 49.8695 116.067 51.3602 114.472C52.8508 112.877 55.0002 112.08 57.8082 112.08C60.6162 112.08 62.7655 112.877 64.2562 114.472C65.7468 116.067 66.4922 118.32 66.4922 121.232V140.368C66.4922 143.28 65.7468 145.533 64.2562 147.128C62.7655 148.723 60.6162 149.52 57.8082 149.52ZM57.8082 144.32C59.7842 144.32 60.7722 143.124 60.7722 140.732V120.868C60.7722 118.476 59.7842 117.28 57.8082 117.28C55.8322 117.28 54.8442 118.476 54.8442 120.868V140.732C54.8442 143.124 55.8322 144.32 57.8082 144.32ZM70.8805 112.6H79.6165C82.4591 112.6 84.5911 113.363 86.0125 114.888C87.4338 116.413 88.1445 118.649 88.1445 121.596V140.004C88.1445 142.951 87.4338 145.187 86.0125 146.712C84.5911 148.237 82.4591 149 79.6165 149H70.8805V112.6ZM79.5125 143.8C80.4485 143.8 81.1591 143.523 81.6445 142.968C82.1645 142.413 82.4245 141.512 82.4245 140.264V121.336C82.4245 120.088 82.1645 119.187 81.6445 118.632C81.1591 118.077 80.4485 117.8 79.5125 117.8H76.6005V143.8H79.5125ZM100.845 149.52C98.0721 149.52 95.9575 148.74 94.5015 147.18C93.0455 145.585 92.3175 143.315 92.3175 140.368V112.6H98.0375V140.784C98.0375 142.032 98.2801 142.933 98.7655 143.488C99.2855 144.043 100.013 144.32 100.949 144.32C101.885 144.32 102.596 144.043 103.081 143.488C103.601 142.933 103.861 142.032 103.861 140.784V112.6H109.373V140.368C109.373 143.315 108.645 145.585 107.189 147.18C105.733 148.74 103.619 149.52 100.845 149.52ZM122.027 149.52C119.289 149.52 117.191 148.74 115.735 147.18C114.314 145.62 113.603 143.419 113.603 140.576V121.024C113.603 118.181 114.314 115.98 115.735 114.42C117.191 112.86 119.289 112.08 122.027 112.08C124.766 112.08 126.846 112.86 128.267 114.42C129.723 115.98 130.451 118.181 130.451 121.024V124.872H125.043V120.66C125.043 118.407 124.09 117.28 122.183 117.28C120.277 117.28 119.323 118.407 119.323 120.66V140.992C119.323 143.211 120.277 144.32 122.183 144.32C124.09 144.32 125.043 143.211 125.043 140.992V135.428H130.451V140.576C130.451 143.419 129.723 145.62 128.267 147.18C126.846 148.74 124.766 149.52 122.027 149.52ZM138.866 117.8H132.886V112.6H150.566V117.8H144.586V149H138.866V117.8ZM162.703 112.6H171.439C174.282 112.6 176.414 113.363 177.835 114.888C179.256 116.413 179.967 118.649 179.967 121.596V140.004C179.967 142.951 179.256 145.187 177.835 146.712C176.414 148.237 174.282 149 171.439 149H162.703V112.6ZM171.335 143.8C172.271 143.8 172.982 143.523 173.467 142.968C173.987 142.413 174.247 141.512 174.247 140.264V121.336C174.247 120.088 173.987 119.187 173.467 118.632C172.982 118.077 172.271 117.8 171.335 117.8H168.423V143.8H171.335ZM184.348 112.6H199.948V117.8H190.068V127.42H197.92V132.62H190.068V143.8H199.948V149H184.348V112.6ZM211.296 149.52C208.523 149.52 206.426 148.74 205.004 147.18C203.583 145.585 202.872 143.315 202.872 140.368V138.288H208.28V140.784C208.28 143.141 209.268 144.32 211.244 144.32C212.215 144.32 212.943 144.043 213.428 143.488C213.948 142.899 214.208 141.963 214.208 140.68C214.208 139.155 213.862 137.82 213.168 136.676C212.475 135.497 211.192 134.093 209.32 132.464C206.963 130.384 205.316 128.512 204.38 126.848C203.444 125.149 202.976 123.243 202.976 121.128C202.976 118.251 203.704 116.032 205.16 114.472C206.616 112.877 208.731 112.08 211.504 112.08C214.243 112.08 216.306 112.877 217.692 114.472C219.114 116.032 219.824 118.285 219.824 121.232V122.74H214.416V120.868C214.416 119.62 214.174 118.719 213.688 118.164C213.203 117.575 212.492 117.28 211.556 117.28C209.65 117.28 208.696 118.441 208.696 120.764C208.696 122.081 209.043 123.312 209.736 124.456C210.464 125.6 211.764 126.987 213.636 128.616C216.028 130.696 217.675 132.585 218.576 134.284C219.478 135.983 219.928 137.976 219.928 140.264C219.928 143.245 219.183 145.533 217.692 147.128C216.236 148.723 214.104 149.52 211.296 149.52ZM223.728 112.6H229.448V149H223.728V112.6ZM242.364 149.52C239.591 149.52 237.476 148.74 236.02 147.18C234.564 145.585 233.836 143.315 233.836 140.368V121.232C233.836 118.285 234.564 116.032 236.02 114.472C237.476 112.877 239.591 112.08 242.364 112.08C245.137 112.08 247.252 112.877 248.708 114.472C250.164 116.032 250.892 118.285 250.892 121.232V124.352H245.484V120.868C245.484 118.476 244.496 117.28 242.52 117.28C240.544 117.28 239.556 118.476 239.556 120.868V140.784C239.556 143.141 240.544 144.32 242.52 144.32C244.496 144.32 245.484 143.141 245.484 140.784V133.66H242.624V128.46H250.892V140.368C250.892 143.315 250.164 145.585 248.708 147.18C247.252 148.74 245.137 149.52 242.364 149.52ZM255.084 112.6H262.26L267.824 134.388H267.928V112.6H273.024V149H267.148L260.284 122.428H260.18V149H255.084V112.6ZM277.796 112.6H293.396V117.8H283.516V127.42H291.368V132.62H283.516V143.8H293.396V149H277.796V112.6ZM297.206 112.6H305.682C308.629 112.6 310.778 113.293 312.13 114.68C313.482 116.032 314.158 118.129 314.158 120.972V123.208C314.158 126.987 312.91 129.379 310.414 130.384V130.488C311.801 130.904 312.772 131.753 313.326 133.036C313.916 134.319 314.21 136.035 314.21 138.184V144.58C314.21 145.62 314.245 146.469 314.314 147.128C314.384 147.752 314.557 148.376 314.834 149H309.01C308.802 148.411 308.664 147.856 308.594 147.336C308.525 146.816 308.49 145.88 308.49 144.528V137.872C308.49 136.208 308.213 135.047 307.658 134.388C307.138 133.729 306.22 133.4 304.902 133.4H302.926V149H297.206V112.6ZM305.006 128.2C306.15 128.2 307 127.905 307.554 127.316C308.144 126.727 308.438 125.739 308.438 124.352V121.544C308.438 120.227 308.196 119.273 307.71 118.684C307.26 118.095 306.532 117.8 305.526 117.8H302.926V128.2H305.006Z" fill="black"/>
<rect width="252" height="61" transform="translate(0 179)" fill="#7D3E90"/>
<rect width="114" height="57" transform="translate(0.336914 266)" fill="#AB2F5E"/>
<path d="M10.4689 274.6H16.1889V311H10.4689V274.6ZM29.0528 311.52C26.3142 311.52 24.2168 310.74 22.7608 309.18C21.3395 307.62 20.6288 305.419 20.6288 302.576V283.024C20.6288 280.181 21.3395 277.98 22.7608 276.42C24.2168 274.86 26.3142 274.08 29.0528 274.08C31.7915 274.08 33.8715 274.86 35.2928 276.42C36.7488 277.98 37.4768 280.181 37.4768 283.024V286.872H32.0688V282.66C32.0688 280.407 31.1155 279.28 29.2088 279.28C27.3022 279.28 26.3488 280.407 26.3488 282.66V302.992C26.3488 305.211 27.3022 306.32 29.2088 306.32C31.1155 306.32 32.0688 305.211 32.0688 302.992V297.428H37.4768V302.576C37.4768 305.419 36.7488 307.62 35.2928 309.18C33.8715 310.74 31.7915 311.52 29.0528 311.52ZM49.7886 311.52C46.9806 311.52 44.8313 310.723 43.3406 309.128C41.85 307.533 41.1046 305.28 41.1046 302.368V283.232C41.1046 280.32 41.85 278.067 43.3406 276.472C44.8313 274.877 46.9806 274.08 49.7886 274.08C52.5966 274.08 54.746 274.877 56.2366 276.472C57.7273 278.067 58.4726 280.32 58.4726 283.232V302.368C58.4726 305.28 57.7273 307.533 56.2366 309.128C54.746 310.723 52.5966 311.52 49.7886 311.52ZM49.7886 306.32C51.7646 306.32 52.7526 305.124 52.7526 302.732V282.868C52.7526 280.476 51.7646 279.28 49.7886 279.28C47.8126 279.28 46.8246 280.476 46.8246 282.868V302.732C46.8246 305.124 47.8126 306.32 49.7886 306.32ZM62.8609 274.6H70.0369L75.6009 296.388H75.7049V274.6H80.8009V311H74.9249L68.0609 284.428H67.9569V311H62.8609V274.6ZM93.0084 311.52C90.235 311.52 88.1377 310.74 86.7164 309.18C85.295 307.585 84.5844 305.315 84.5844 302.368V300.288H89.9924V302.784C89.9924 305.141 90.9804 306.32 92.9564 306.32C93.927 306.32 94.655 306.043 95.1404 305.488C95.6604 304.899 95.9204 303.963 95.9204 302.68C95.9204 301.155 95.5737 299.82 94.8804 298.676C94.187 297.497 92.9044 296.093 91.0324 294.464C88.675 292.384 87.0284 290.512 86.0924 288.848C85.1564 287.149 84.6884 285.243 84.6884 283.128C84.6884 280.251 85.4164 278.032 86.8724 276.472C88.3284 274.877 90.443 274.08 93.2164 274.08C95.955 274.08 98.0177 274.877 99.4044 276.472C100.826 278.032 101.536 280.285 101.536 283.232V284.74H96.1284V282.868C96.1284 281.62 95.8857 280.719 95.4004 280.164C94.915 279.575 94.2044 279.28 93.2684 279.28C91.3617 279.28 90.4084 280.441 90.4084 282.764C90.4084 284.081 90.755 285.312 91.4484 286.456C92.1764 287.6 93.4764 288.987 95.3484 290.616C97.7404 292.696 99.387 294.585 100.288 296.284C101.19 297.983 101.64 299.976 101.64 302.264C101.64 305.245 100.895 307.533 99.4044 309.128C97.9484 310.723 95.8164 311.52 93.0084 311.52Z" fill="black"/>
<rect width="114" height="58" transform="translate(131.337 265)" fill="#60378D"/>
<path d="M150.581 311.52C147.808 311.52 145.693 310.74 144.237 309.18C142.781 307.585 142.053 305.315 142.053 302.368V283.232C142.053 280.285 142.781 278.032 144.237 276.472C145.693 274.877 147.808 274.08 150.581 274.08C153.354 274.08 155.469 274.877 156.925 276.472C158.381 278.032 159.109 280.285 159.109 283.232V286.352H153.701V282.868C153.701 280.476 152.713 279.28 150.737 279.28C148.761 279.28 147.773 280.476 147.773 282.868V302.784C147.773 305.141 148.761 306.32 150.737 306.32C152.713 306.32 153.701 305.141 153.701 302.784V295.66H150.841V290.46H159.109V302.368C159.109 305.315 158.381 307.585 156.925 309.18C155.469 310.74 153.354 311.52 150.581 311.52ZM163.301 274.6H171.777C174.724 274.6 176.873 275.293 178.225 276.68C179.577 278.032 180.253 280.129 180.253 282.972V285.208C180.253 288.987 179.005 291.379 176.509 292.384V292.488C177.896 292.904 178.867 293.753 179.421 295.036C180.011 296.319 180.305 298.035 180.305 300.184V306.58C180.305 307.62 180.34 308.469 180.409 309.128C180.479 309.752 180.652 310.376 180.929 311H175.105C174.897 310.411 174.759 309.856 174.689 309.336C174.62 308.816 174.585 307.88 174.585 306.528V299.872C174.585 298.208 174.308 297.047 173.753 296.388C173.233 295.729 172.315 295.4 170.997 295.4H169.021V311H163.301V274.6ZM171.101 290.2C172.245 290.2 173.095 289.905 173.649 289.316C174.239 288.727 174.533 287.739 174.533 286.352V283.544C174.533 282.227 174.291 281.273 173.805 280.684C173.355 280.095 172.627 279.8 171.621 279.8H169.021V290.2H171.101ZM184.794 274.6H190.514V311H184.794V274.6ZM195.318 274.6H204.054C206.897 274.6 209.029 275.363 210.45 276.888C211.871 278.413 212.582 280.649 212.582 283.596V302.004C212.582 304.951 211.871 307.187 210.45 308.712C209.029 310.237 206.897 311 204.054 311H195.318V274.6ZM203.95 305.8C204.886 305.8 205.597 305.523 206.082 304.968C206.602 304.413 206.862 303.512 206.862 302.264V283.336C206.862 282.088 206.602 281.187 206.082 280.632C205.597 280.077 204.886 279.8 203.95 279.8H201.038V305.8H203.95ZM224.399 311.52C221.626 311.52 219.528 310.74 218.107 309.18C216.686 307.585 215.975 305.315 215.975 302.368V300.288H221.383V302.784C221.383 305.141 222.371 306.32 224.347 306.32C225.318 306.32 226.046 306.043 226.531 305.488C227.051 304.899 227.311 303.963 227.311 302.68C227.311 301.155 226.964 299.82 226.271 298.676C225.578 297.497 224.295 296.093 222.423 294.464C220.066 292.384 218.419 290.512 217.483 288.848C216.547 287.149 216.079 285.243 216.079 283.128C216.079 280.251 216.807 278.032 218.263 276.472C219.719 274.877 221.834 274.08 224.607 274.08C227.346 274.08 229.408 274.877 230.795 276.472C232.216 278.032 232.927 280.285 232.927 283.232V284.74H227.519V282.868C227.519 281.62 227.276 280.719 226.791 280.164C226.306 279.575 225.595 279.28 224.659 279.28C222.752 279.28 221.799 280.441 221.799 282.764C221.799 284.081 222.146 285.312 222.839 286.456C223.567 287.6 224.867 288.987 226.739 290.616C229.131 292.696 230.778 294.585 231.679 296.284C232.58 297.983 233.031 299.976 233.031 302.264C233.031 305.245 232.286 307.533 230.795 309.128C229.339 310.723 227.207 311.52 224.399 311.52Z" fill="#F1F1F1"/>
<path d="M27.452 230.52C24.6787 230.52 22.564 229.74 21.108 228.18C19.652 226.585 18.924 224.315 18.924 221.368V193.6H24.644V221.784C24.644 223.032 24.8867 223.933 25.372 224.488C25.892 225.043 26.62 225.32 27.556 225.32C28.492 225.32 29.2027 225.043 29.688 224.488C30.208 223.933 30.468 223.032 30.468 221.784V193.6H35.98V221.368C35.98 224.315 35.252 226.585 33.796 228.18C32.34 229.74 30.2253 230.52 27.452 230.52ZM45.5671 211.384L39.2751 193.6H45.3071L49.1551 205.352H49.2591L53.2111 193.6H58.6191L52.3271 211.384L58.9311 230H52.8991L48.7391 217.312H48.6351L44.3711 230H38.9631L45.5671 211.384ZM71.0162 193.6H79.4922C82.4389 193.6 84.5882 194.293 85.9402 195.68C87.2922 197.032 87.9682 199.129 87.9682 201.972V204.208C87.9682 207.987 86.7202 210.379 84.2242 211.384V211.488C85.6109 211.904 86.5816 212.753 87.1362 214.036C87.7256 215.319 88.0202 217.035 88.0202 219.184V225.58C88.0202 226.62 88.0549 227.469 88.1242 228.128C88.1936 228.752 88.3669 229.376 88.6442 230H82.8202C82.6122 229.411 82.4736 228.856 82.4042 228.336C82.3349 227.816 82.3002 226.88 82.3002 225.528V218.872C82.3002 217.208 82.0229 216.047 81.4682 215.388C80.9482 214.729 80.0296 214.4 78.7122 214.4H76.7362V230H71.0162V193.6ZM78.8162 209.2C79.9602 209.2 80.8096 208.905 81.3642 208.316C81.9536 207.727 82.2482 206.739 82.2482 205.352V202.544C82.2482 201.227 82.0056 200.273 81.5202 199.684C81.0696 199.095 80.3416 198.8 79.3362 198.8H76.7362V209.2H78.8162ZM92.5089 193.6H108.109V198.8H98.2289V208.42H106.081V213.62H98.2289V224.8H108.109V230H92.5089V193.6ZM119.457 230.52C116.684 230.52 114.586 229.74 113.165 228.18C111.744 226.585 111.033 224.315 111.033 221.368V219.288H116.441V221.784C116.441 224.141 117.429 225.32 119.405 225.32C120.376 225.32 121.104 225.043 121.589 224.488C122.109 223.899 122.369 222.963 122.369 221.68C122.369 220.155 122.022 218.82 121.329 217.676C120.636 216.497 119.353 215.093 117.481 213.464C115.124 211.384 113.477 209.512 112.541 207.848C111.605 206.149 111.137 204.243 111.137 202.128C111.137 199.251 111.865 197.032 113.321 195.472C114.777 193.877 116.892 193.08 119.665 193.08C122.404 193.08 124.466 193.877 125.853 195.472C127.274 197.032 127.985 199.285 127.985 202.232V203.74H122.577V201.868C122.577 200.62 122.334 199.719 121.849 199.164C121.364 198.575 120.653 198.28 119.717 198.28C117.81 198.28 116.857 199.441 116.857 201.764C116.857 203.081 117.204 204.312 117.897 205.456C118.625 206.6 119.925 207.987 121.797 209.616C124.189 211.696 125.836 213.585 126.737 215.284C127.638 216.983 128.089 218.976 128.089 221.264C128.089 224.245 127.344 226.533 125.853 228.128C124.397 229.723 122.265 230.52 119.457 230.52ZM131.889 193.6H147.489V198.8H137.609V208.42H145.461V213.62H137.609V224.8H147.489V230H131.889V193.6ZM155.719 193.6H163.467L169.395 230H163.675L162.635 222.772V222.876H156.135L155.095 230H149.791L155.719 193.6ZM161.959 217.936L159.411 199.944H159.307L156.811 217.936H161.959ZM172.69 193.6H181.166C184.113 193.6 186.262 194.293 187.614 195.68C188.966 197.032 189.642 199.129 189.642 201.972V204.208C189.642 207.987 188.394 210.379 185.898 211.384V211.488C187.285 211.904 188.256 212.753 188.81 214.036C189.4 215.319 189.694 217.035 189.694 219.184V225.58C189.694 226.62 189.729 227.469 189.798 228.128C189.868 228.752 190.041 229.376 190.318 230H184.494C184.286 229.411 184.148 228.856 184.078 228.336C184.009 227.816 183.974 226.88 183.974 225.528V218.872C183.974 217.208 183.697 216.047 183.142 215.388C182.622 214.729 181.704 214.4 180.386 214.4H178.41V230H172.69V193.6ZM180.49 209.2C181.634 209.2 182.484 208.905 183.038 208.316C183.628 207.727 183.922 206.739 183.922 205.352V202.544C183.922 201.227 183.68 200.273 183.194 199.684C182.744 199.095 182.016 198.8 181.01 198.8H178.41V209.2H180.49ZM202.243 230.52C199.504 230.52 197.407 229.74 195.951 228.18C194.53 226.62 193.819 224.419 193.819 221.576V202.024C193.819 199.181 194.53 196.98 195.951 195.42C197.407 193.86 199.504 193.08 202.243 193.08C204.982 193.08 207.062 193.86 208.483 195.42C209.939 196.98 210.667 199.181 210.667 202.024V205.872H205.259V201.66C205.259 199.407 204.306 198.28 202.399 198.28C200.492 198.28 199.539 199.407 199.539 201.66V221.992C199.539 224.211 200.492 225.32 202.399 225.32C204.306 225.32 205.259 224.211 205.259 221.992V216.428H210.667V221.576C210.667 224.419 209.939 226.62 208.483 228.18C207.062 229.74 204.982 230.52 202.243 230.52ZM214.609 193.6H220.329V208.42H226.465V193.6H232.185V230H226.465V213.62H220.329V230H214.609V193.6Z" fill="#010101"/>
<rect width="163" height="55" transform="translate(267 266)" fill="#3B728D"/>
<path d="M282.132 277.6H290.296L293.936 303.652H294.04L297.68 277.6H305.844V314H300.436V286.44H300.332L296.172 314H291.388L287.228 286.44H287.124V314H282.132V277.6ZM318.9 314.52C316.092 314.52 313.943 313.723 312.452 312.128C310.962 310.533 310.216 308.28 310.216 305.368V286.232C310.216 283.32 310.962 281.067 312.452 279.472C313.943 277.877 316.092 277.08 318.9 277.08C321.708 277.08 323.858 277.877 325.348 279.472C326.839 281.067 327.584 283.32 327.584 286.232V305.368C327.584 308.28 326.839 310.533 325.348 312.128C323.858 313.723 321.708 314.52 318.9 314.52ZM318.9 309.32C320.876 309.32 321.864 308.124 321.864 305.732V285.868C321.864 283.476 320.876 282.28 318.9 282.28C316.924 282.28 315.936 283.476 315.936 285.868V305.732C315.936 308.124 316.924 309.32 318.9 309.32ZM331.973 277.6H340.605C343.551 277.6 345.701 278.293 347.053 279.68C348.405 281.032 349.081 283.129 349.081 285.972V287.428C349.081 289.3 348.769 290.825 348.145 292.004C347.555 293.183 346.637 294.032 345.389 294.552V294.656C348.231 295.627 349.653 298.157 349.653 302.248V305.368C349.653 308.176 348.907 310.325 347.417 311.816C345.961 313.272 343.811 314 340.969 314H331.973V277.6ZM339.929 292.42C341.073 292.42 341.922 292.125 342.477 291.536C343.066 290.947 343.361 289.959 343.361 288.572V286.544C343.361 285.227 343.118 284.273 342.633 283.684C342.182 283.095 341.454 282.8 340.449 282.8H337.693V292.42H339.929ZM340.969 308.8C341.974 308.8 342.719 308.54 343.205 308.02C343.69 307.465 343.933 306.529 343.933 305.212V302.04C343.933 300.376 343.638 299.232 343.049 298.608C342.494 297.949 341.558 297.62 340.241 297.62H337.693V308.8H340.969ZM353.516 277.6H359.236V314H353.516V277.6ZM364.04 277.6H369.76V308.8H379.172V314H364.04V277.6ZM382.435 277.6H398.035V282.8H388.155V292.42H396.007V297.62H388.155V308.8H398.035V314H382.435V277.6Z" fill="#010101"/>
</svg>
