<svg width="236" height="168" viewBox="0 0 236 168" fill="none" xmlns="http://www.w3.org/2000/svg">
<rect width="157.663" height="35" transform="translate(0.336914 45)" fill="#3B728D"/>
<path d="M16.82 56H20.06C21.1533 56 21.9733 56.2933 22.52 56.88C23.0667 57.4667 23.34 58.3267 23.34 59.46V60.84C23.34 61.9733 23.0667 62.8333 22.52 63.42C21.9733 64.0067 21.1533 64.3 20.06 64.3H19.02V70H16.82V56ZM20.06 62.3C20.42 62.3 20.6867 62.2 20.86 62C21.0467 61.8 21.14 61.46 21.14 60.98V59.32C21.14 58.84 21.0467 58.5 20.86 58.3C20.6867 58.1 20.42 58 20.06 58H19.02V62.3H20.06ZM24.7348 56H27.9948C29.1282 56 29.9548 56.2667 30.4748 56.8C30.9948 57.32 31.2548 58.1267 31.2548 59.22V60.08C31.2548 61.5333 30.7748 62.4533 29.8148 62.84V62.88C30.3482 63.04 30.7215 63.3667 30.9348 63.86C31.1615 64.3533 31.2748 65.0133 31.2748 65.84V68.3C31.2748 68.7 31.2882 69.0267 31.3148 69.28C31.3415 69.52 31.4082 69.76 31.5148 70H29.2748C29.1948 69.7733 29.1415 69.56 29.1148 69.36C29.0882 69.16 29.0748 68.8 29.0748 68.28V65.72C29.0748 65.08 28.9682 64.6333 28.7548 64.38C28.5548 64.1267 28.2015 64 27.6948 64H26.9348V70H24.7348V56ZM27.7348 62C28.1748 62 28.5015 61.8867 28.7148 61.66C28.9415 61.4333 29.0548 61.0533 29.0548 60.52V59.44C29.0548 58.9333 28.9615 58.5667 28.7748 58.34C28.6015 58.1133 28.3215 58 27.9348 58H26.9348V62H27.7348ZM36.1812 70.2C35.1012 70.2 34.2746 69.8933 33.7012 69.28C33.1279 68.6667 32.8412 67.8 32.8412 66.68V59.32C32.8412 58.2 33.1279 57.3333 33.7012 56.72C34.2746 56.1067 35.1012 55.8 36.1812 55.8C37.2612 55.8 38.0879 56.1067 38.6612 56.72C39.2346 57.3333 39.5212 58.2 39.5212 59.32V66.68C39.5212 67.8 39.2346 68.6667 38.6612 69.28C38.0879 69.8933 37.2612 70.2 36.1812 70.2ZM36.1812 68.2C36.9412 68.2 37.3212 67.74 37.3212 66.82V59.18C37.3212 58.26 36.9412 57.8 36.1812 57.8C35.4212 57.8 35.0412 58.26 35.0412 59.18V66.82C35.0412 67.74 35.4212 68.2 36.1812 68.2ZM41.2091 56H44.5691C45.6624 56 46.4824 56.2933 47.0291 56.88C47.5757 57.4667 47.8491 58.3267 47.8491 59.46V66.54C47.8491 67.6733 47.5757 68.5333 47.0291 69.12C46.4824 69.7067 45.6624 70 44.5691 70H41.2091V56ZM44.5291 68C44.8891 68 45.1624 67.8933 45.3491 67.68C45.5491 67.4667 45.6491 67.12 45.6491 66.64V59.36C45.6491 58.88 45.5491 58.5333 45.3491 58.32C45.1624 58.1067 44.8891 58 44.5291 58H43.4091V68H44.5291ZM52.7341 70.2C51.6674 70.2 50.8541 69.9 50.2941 69.3C49.7341 68.6867 49.4541 67.8133 49.4541 66.68V56H51.6541V66.84C51.6541 67.32 51.7474 67.6667 51.9341 67.88C52.1341 68.0933 52.4141 68.2 52.7741 68.2C53.1341 68.2 53.4074 68.0933 53.5941 67.88C53.7941 67.6667 53.8941 67.32 53.8941 66.84V56H56.0141V66.68C56.0141 67.8133 55.7341 68.6867 55.1741 69.3C54.6141 69.9 53.8007 70.2 52.7341 70.2ZM60.8809 70.2C59.8276 70.2 59.0209 69.9 58.4609 69.3C57.9143 68.7 57.6409 67.8533 57.6409 66.76V59.24C57.6409 58.1467 57.9143 57.3 58.4609 56.7C59.0209 56.1 59.8276 55.8 60.8809 55.8C61.9343 55.8 62.7343 56.1 63.2809 56.7C63.8409 57.3 64.1209 58.1467 64.1209 59.24V60.72H62.0409V59.1C62.0409 58.2333 61.6743 57.8 60.9409 57.8C60.2076 57.8 59.8409 58.2333 59.8409 59.1V66.92C59.8409 67.7733 60.2076 68.2 60.9409 68.2C61.6743 68.2 62.0409 67.7733 62.0409 66.92V64.78H64.1209V66.76C64.1209 67.8533 63.8409 68.7 63.2809 69.3C62.7343 69.9 61.9343 70.2 60.8809 70.2ZM67.3572 58H65.0572V56H71.8572V58H69.5572V70H67.3572V58ZM76.5255 56H79.8855C80.9788 56 81.7988 56.2933 82.3455 56.88C82.8921 57.4667 83.1655 58.3267 83.1655 59.46V66.54C83.1655 67.6733 82.8921 68.5333 82.3455 69.12C81.7988 69.7067 80.9788 70 79.8855 70H76.5255V56ZM79.8455 68C80.2055 68 80.4788 67.8933 80.6655 67.68C80.8655 67.4667 80.9655 67.12 80.9655 66.64V59.36C80.9655 58.88 80.8655 58.5333 80.6655 58.32C80.4788 58.1067 80.2055 58 79.8455 58H78.7255V68H79.8455ZM84.8505 56H90.8505V58H87.0505V61.7H90.0705V63.7H87.0505V68H90.8505V70H84.8505V56ZM95.2152 70.2C94.1485 70.2 93.3418 69.9 92.7952 69.3C92.2485 68.6867 91.9752 67.8133 91.9752 66.68V65.88H94.0552V66.84C94.0552 67.7467 94.4352 68.2 95.1952 68.2C95.5685 68.2 95.8485 68.0933 96.0352 67.88C96.2352 67.6533 96.3352 67.2933 96.3352 66.8C96.3352 66.2133 96.2018 65.7 95.9352 65.26C95.6685 64.8067 95.1752 64.2667 94.4552 63.64C93.5485 62.84 92.9152 62.12 92.5552 61.48C92.1952 60.8267 92.0152 60.0933 92.0152 59.28C92.0152 58.1733 92.2952 57.32 92.8552 56.72C93.4152 56.1067 94.2285 55.8 95.2952 55.8C96.3485 55.8 97.1418 56.1067 97.6752 56.72C98.2218 57.32 98.4952 58.1867 98.4952 59.32V59.9H96.4152V59.18C96.4152 58.7 96.3218 58.3533 96.1352 58.14C95.9485 57.9133 95.6752 57.8 95.3152 57.8C94.5818 57.8 94.2152 58.2467 94.2152 59.14C94.2152 59.6467 94.3485 60.12 94.6152 60.56C94.8952 61 95.3952 61.5333 96.1152 62.16C97.0352 62.96 97.6685 63.6867 98.0152 64.34C98.3618 64.9933 98.5352 65.76 98.5352 66.64C98.5352 67.7867 98.2485 68.6667 97.6752 69.28C97.1152 69.8933 96.2952 70.2 95.2152 70.2ZM99.9966 56H102.197V70H99.9966V56ZM107.164 70.2C106.098 70.2 105.284 69.9 104.724 69.3C104.164 68.6867 103.884 67.8133 103.884 66.68V59.32C103.884 58.1867 104.164 57.32 104.724 56.72C105.284 56.1067 106.098 55.8 107.164 55.8C108.231 55.8 109.044 56.1067 109.604 56.72C110.164 57.32 110.444 58.1867 110.444 59.32V60.52H108.364V59.18C108.364 58.26 107.984 57.8 107.224 57.8C106.464 57.8 106.084 58.26 106.084 59.18V66.84C106.084 67.7467 106.464 68.2 107.224 68.2C107.984 68.2 108.364 67.7467 108.364 66.84V64.1H107.264V62.1H110.444V66.68C110.444 67.8133 110.164 68.6867 109.604 69.3C109.044 69.9 108.231 70.2 107.164 70.2ZM112.057 56H114.817L116.957 64.38H116.997V56H118.957V70H116.697L114.057 59.78H114.017V70H112.057V56ZM120.792 56H126.792V58H122.992V61.7H126.012V63.7H122.992V68H126.792V70H120.792V56ZM128.258 56H131.518C132.651 56 133.478 56.2667 133.998 56.8C134.518 57.32 134.778 58.1267 134.778 59.22V60.08C134.778 61.5333 134.298 62.4533 133.338 62.84V62.88C133.871 63.04 134.244 63.3667 134.458 63.86C134.684 64.3533 134.798 65.0133 134.798 65.84V68.3C134.798 68.7 134.811 69.0267 134.838 69.28C134.864 69.52 134.931 69.76 135.038 70H132.798C132.718 69.7733 132.664 69.56 132.638 69.36C132.611 69.16 132.598 68.8 132.598 68.28V65.72C132.598 65.08 132.491 64.6333 132.278 64.38C132.078 64.1267 131.724 64 131.218 64H130.458V70H128.258V56ZM131.258 62C131.698 62 132.024 61.8867 132.238 61.66C132.464 61.4333 132.577 61.0533 132.577 60.52V59.44C132.577 58.9333 132.484 58.5667 132.298 58.34C132.124 58.1133 131.844 58 131.458 58H130.458V62H131.258Z" fill="black"/>
<rect width="102.663" height="34" transform="translate(0.336914)" fill="#451841"/>
<path d="M23.02 24.2C21.9533 24.2 21.14 23.9 20.58 23.3C20.02 22.6867 19.74 21.8133 19.74 20.68V10H21.94V20.84C21.94 21.32 22.0333 21.6667 22.22 21.88C22.42 22.0933 22.7 22.2 23.06 22.2C23.42 22.2 23.6933 22.0933 23.88 21.88C24.08 21.6667 24.18 21.32 24.18 20.84V10H26.3V20.68C26.3 21.8133 26.02 22.6867 25.46 23.3C24.9 23.9 24.0867 24.2 23.02 24.2ZM29.9873 16.84L27.5673 10H29.8873L31.3673 14.52H31.4073L32.9273 10H35.0073L32.5873 16.84L35.1273 24H32.8073L31.2073 19.12H31.1673L29.5273 24H27.4473L29.9873 16.84ZM39.7755 10H43.1355C44.2288 10 45.0488 10.2933 45.5955 10.88C46.1421 11.4667 46.4155 12.3267 46.4155 13.46V20.54C46.4155 21.6733 46.1421 22.5333 45.5955 23.12C45.0488 23.7067 44.2288 24 43.1355 24H39.7755V10ZM43.0955 22C43.4555 22 43.7288 21.8933 43.9155 21.68C44.1155 21.4667 44.2155 21.12 44.2155 20.64V13.36C44.2155 12.88 44.1155 12.5333 43.9155 12.32C43.7288 12.1067 43.4555 12 43.0955 12H41.9755V22H43.0955ZM48.1005 10H54.1005V12H50.3005V15.7H53.3205V17.7H50.3005V22H54.1005V24H48.1005V10ZM58.4652 24.2C57.3985 24.2 56.5918 23.9 56.0452 23.3C55.4985 22.6867 55.2252 21.8133 55.2252 20.68V19.88H57.3052V20.84C57.3052 21.7467 57.6852 22.2 58.4452 22.2C58.8185 22.2 59.0985 22.0933 59.2852 21.88C59.4852 21.6533 59.5852 21.2933 59.5852 20.8C59.5852 20.2133 59.4518 19.7 59.1852 19.26C58.9185 18.8067 58.4252 18.2667 57.7052 17.64C56.7985 16.84 56.1652 16.12 55.8052 15.48C55.4452 14.8267 55.2652 14.0933 55.2652 13.28C55.2652 12.1733 55.5452 11.32 56.1052 10.72C56.6652 10.1067 57.4785 9.8 58.5452 9.8C59.5985 9.8 60.3918 10.1067 60.9252 10.72C61.4718 11.32 61.7452 12.1867 61.7452 13.32V13.9H59.6652V13.18C59.6652 12.7 59.5718 12.3533 59.3852 12.14C59.1985 11.9133 58.9252 11.8 58.5652 11.8C57.8318 11.8 57.4652 12.2467 57.4652 13.14C57.4652 13.6467 57.5985 14.12 57.8652 14.56C58.1452 15 58.6452 15.5333 59.3652 16.16C60.2852 16.96 60.9185 17.6867 61.2652 18.34C61.6118 18.9933 61.7852 19.76 61.7852 20.64C61.7852 21.7867 61.4985 22.6667 60.9252 23.28C60.3652 23.8933 59.5452 24.2 58.4652 24.2ZM63.2466 10H65.4466V24H63.2466V10ZM70.4142 24.2C69.3476 24.2 68.5342 23.9 67.9742 23.3C67.4142 22.6867 67.1342 21.8133 67.1342 20.68V13.32C67.1342 12.1867 67.4142 11.32 67.9742 10.72C68.5342 10.1067 69.3476 9.8 70.4142 9.8C71.4809 9.8 72.2942 10.1067 72.8542 10.72C73.4142 11.32 73.6942 12.1867 73.6942 13.32V14.52H71.6142V13.18C71.6142 12.26 71.2342 11.8 70.4742 11.8C69.7142 11.8 69.3342 12.26 69.3342 13.18V20.84C69.3342 21.7467 69.7142 22.2 70.4742 22.2C71.2342 22.2 71.6142 21.7467 71.6142 20.84V18.1H70.5142V16.1H73.6942V20.68C73.6942 21.8133 73.4142 22.6867 72.8542 23.3C72.2942 23.9 71.4809 24.2 70.4142 24.2ZM75.3067 10H78.0667L80.2067 18.38H80.2467V10H82.2067V24H79.9467L77.3067 13.78H77.2667V24H75.3067V10Z" fill="#F1F1F1"/>
<rect width="111" height="35" transform="translate(0 133)" fill="#942F88"/>
<path d="M27.02 157.2C25.9533 157.2 25.14 156.9 24.58 156.3C24.02 155.687 23.74 154.813 23.74 153.68V143H25.94V153.84C25.94 154.32 26.0333 154.667 26.22 154.88C26.42 155.093 26.7 155.2 27.06 155.2C27.42 155.2 27.6933 155.093 27.88 154.88C28.08 154.667 28.18 154.32 28.18 153.84V143H30.3V153.68C30.3 154.813 30.02 155.687 29.46 156.3C28.9 156.9 28.0867 157.2 27.02 157.2ZM32.0669 143H34.2669V157H32.0669V143ZM39.5177 143H42.8777C43.971 143 44.791 143.293 45.3377 143.88C45.8843 144.467 46.1577 145.327 46.1577 146.46V153.54C46.1577 154.673 45.8843 155.533 45.3377 156.12C44.791 156.707 43.971 157 42.8777 157H39.5177V143ZM42.8377 155C43.1977 155 43.471 154.893 43.6577 154.68C43.8577 154.467 43.9577 154.12 43.9577 153.64V146.36C43.9577 145.88 43.8577 145.533 43.6577 145.32C43.471 145.107 43.1977 145 42.8377 145H41.7177V155H42.8377ZM47.8427 143H53.8427V145H50.0427V148.7H53.0627V150.7H50.0427V155H53.8427V157H47.8427V143ZM58.2073 157.2C57.1407 157.2 56.334 156.9 55.7873 156.3C55.2407 155.687 54.9673 154.813 54.9673 153.68V152.88H57.0473V153.84C57.0473 154.747 57.4273 155.2 58.1873 155.2C58.5607 155.2 58.8407 155.093 59.0273 154.88C59.2273 154.653 59.3273 154.293 59.3273 153.8C59.3273 153.213 59.194 152.7 58.9273 152.26C58.6607 151.807 58.1673 151.267 57.4473 150.64C56.5407 149.84 55.9073 149.12 55.5473 148.48C55.1873 147.827 55.0073 147.093 55.0073 146.28C55.0073 145.173 55.2873 144.32 55.8473 143.72C56.4073 143.107 57.2207 142.8 58.2873 142.8C59.3407 142.8 60.134 143.107 60.6673 143.72C61.214 144.32 61.4873 145.187 61.4873 146.32V146.9H59.4073V146.18C59.4073 145.7 59.314 145.353 59.1273 145.14C58.9407 144.913 58.6673 144.8 58.3073 144.8C57.574 144.8 57.2073 145.247 57.2073 146.14C57.2073 146.647 57.3407 147.12 57.6073 147.56C57.8873 148 58.3873 148.533 59.1073 149.16C60.0273 149.96 60.6607 150.687 61.0073 151.34C61.354 151.993 61.5273 152.76 61.5273 153.64C61.5273 154.787 61.2407 155.667 60.6673 156.28C60.1073 156.893 59.2873 157.2 58.2073 157.2ZM62.9888 143H65.1888V157H62.9888V143ZM70.1564 157.2C69.0897 157.2 68.2764 156.9 67.7164 156.3C67.1564 155.687 66.8764 154.813 66.8764 153.68V146.32C66.8764 145.187 67.1564 144.32 67.7164 143.72C68.2764 143.107 69.0897 142.8 70.1564 142.8C71.2231 142.8 72.0364 143.107 72.5964 143.72C73.1564 144.32 73.4364 145.187 73.4364 146.32V147.52H71.3564V146.18C71.3564 145.26 70.9764 144.8 70.2164 144.8C69.4564 144.8 69.0764 145.26 69.0764 146.18V153.84C69.0764 154.747 69.4564 155.2 70.2164 155.2C70.9764 155.2 71.3564 154.747 71.3564 153.84V151.1H70.2564V149.1H73.4364V153.68C73.4364 154.813 73.1564 155.687 72.5964 156.3C72.0364 156.9 71.2231 157.2 70.1564 157.2ZM75.0489 143H77.8089L79.9489 151.38H79.9889V143H81.9489V157H79.6889L77.0489 146.78H77.0089V157H75.0489V143Z" fill="black"/>
<rect width="128" height="35" transform="translate(0 87)" fill="#AB2D5F"/>
<path d="M26.02 112.2C24.9533 112.2 24.14 111.9 23.58 111.3C23.02 110.687 22.74 109.813 22.74 108.68V98H24.94V108.84C24.94 109.32 25.0333 109.667 25.22 109.88C25.42 110.093 25.7 110.2 26.06 110.2C26.42 110.2 26.6933 110.093 26.88 109.88C27.08 109.667 27.18 109.32 27.18 108.84V98H29.3V108.68C29.3 109.813 29.02 110.687 28.46 111.3C27.9 111.9 27.0867 112.2 26.02 112.2ZM32.9873 104.84L30.5673 98H32.8873L34.3673 102.52H34.4073L35.9273 98H38.0073L35.5873 104.84L38.1273 112H35.8073L34.2073 107.12H34.1673L32.5273 112H30.4473L32.9873 104.84ZM42.7755 98H46.0355C47.1688 98 47.9955 98.2667 48.5155 98.8C49.0355 99.32 49.2955 100.127 49.2955 101.22V102.08C49.2955 103.533 48.8155 104.453 47.8555 104.84V104.88C48.3888 105.04 48.7621 105.367 48.9755 105.86C49.2021 106.353 49.3155 107.013 49.3155 107.84V110.3C49.3155 110.7 49.3288 111.027 49.3555 111.28C49.3821 111.52 49.4488 111.76 49.5555 112H47.3155C47.2355 111.773 47.1821 111.56 47.1555 111.36C47.1288 111.16 47.1155 110.8 47.1155 110.28V107.72C47.1155 107.08 47.0088 106.633 46.7955 106.38C46.5955 106.127 46.2421 106 45.7355 106H44.9755V112H42.7755V98ZM45.7755 104C46.2155 104 46.5421 103.887 46.7555 103.66C46.9821 103.433 47.0955 103.053 47.0955 102.52V101.44C47.0955 100.933 47.0021 100.567 46.8155 100.34C46.6421 100.113 46.3621 100 45.9755 100H44.9755V104H45.7755ZM51.0419 98H57.0419V100H53.2419V103.7H56.2619V105.7H53.2419V110H57.0419V112H51.0419V98ZM61.4066 112.2C60.3399 112.2 59.5332 111.9 58.9866 111.3C58.4399 110.687 58.1666 109.813 58.1666 108.68V107.88H60.2466V108.84C60.2466 109.747 60.6266 110.2 61.3866 110.2C61.7599 110.2 62.0399 110.093 62.2266 109.88C62.4266 109.653 62.5266 109.293 62.5266 108.8C62.5266 108.213 62.3932 107.7 62.1266 107.26C61.8599 106.807 61.3666 106.267 60.6466 105.64C59.7399 104.84 59.1066 104.12 58.7466 103.48C58.3866 102.827 58.2066 102.093 58.2066 101.28C58.2066 100.173 58.4866 99.32 59.0466 98.72C59.6066 98.1067 60.4199 97.8 61.4866 97.8C62.5399 97.8 63.3332 98.1067 63.8666 98.72C64.4132 99.32 64.6866 100.187 64.6866 101.32V101.9H62.6066V101.18C62.6066 100.7 62.5132 100.353 62.3266 100.14C62.1399 99.9133 61.8666 99.8 61.5066 99.8C60.7732 99.8 60.4066 100.247 60.4066 101.14C60.4066 101.647 60.5399 102.12 60.8066 102.56C61.0866 103 61.5866 103.533 62.3066 104.16C63.2266 104.96 63.8599 105.687 64.2066 106.34C64.5532 106.993 64.7266 107.76 64.7266 108.64C64.7266 109.787 64.4399 110.667 63.8666 111.28C63.3066 111.893 62.4866 112.2 61.4066 112.2ZM66.188 98H72.188V100H68.388V103.7H71.408V105.7H68.388V110H72.188V112H66.188V98ZM75.3536 98H78.3336L80.6136 112H78.4136L78.0136 109.22V109.26H75.5136L75.1136 112H73.0736L75.3536 98ZM77.7536 107.36L76.7736 100.44H76.7336L75.7736 107.36H77.7536ZM81.8809 98H85.1409C86.2743 98 87.1009 98.2667 87.6209 98.8C88.1409 99.32 88.4009 100.127 88.4009 101.22V102.08C88.4009 103.533 87.9209 104.453 86.9609 104.84V104.88C87.4943 105.04 87.8676 105.367 88.0809 105.86C88.3076 106.353 88.4209 107.013 88.4209 107.84V110.3C88.4209 110.7 88.4343 111.027 88.4609 111.28C88.4876 111.52 88.5543 111.76 88.6609 112H86.4209C86.3409 111.773 86.2876 111.56 86.2609 111.36C86.2343 111.16 86.2209 110.8 86.2209 110.28V107.72C86.2209 107.08 86.1143 106.633 85.9009 106.38C85.7009 106.127 85.3476 106 84.8409 106H84.0809V112H81.8809V98ZM84.8809 104C85.3209 104 85.6476 103.887 85.8609 103.66C86.0876 103.433 86.2009 103.053 86.2009 102.52V101.44C86.2009 100.933 86.1076 100.567 85.9209 100.34C85.7476 100.113 85.4676 100 85.0809 100H84.0809V104H84.8809ZM93.2473 112.2C92.194 112.2 91.3873 111.9 90.8273 111.3C90.2807 110.7 90.0073 109.853 90.0073 108.76V101.24C90.0073 100.147 90.2807 99.3 90.8273 98.7C91.3873 98.1 92.194 97.8 93.2473 97.8C94.3007 97.8 95.1007 98.1 95.6473 98.7C96.2073 99.3 96.4873 100.147 96.4873 101.24V102.72H94.4073V101.1C94.4073 100.233 94.0407 99.8 93.3073 99.8C92.574 99.8 92.2073 100.233 92.2073 101.1V108.92C92.2073 109.773 92.574 110.2 93.3073 110.2C94.0407 110.2 94.4073 109.773 94.4073 108.92V106.78H96.4873V108.76C96.4873 109.853 96.2073 110.7 95.6473 111.3C95.1007 111.9 94.3007 112.2 93.2473 112.2ZM98.0036 98H100.204V103.7H102.564V98H104.764V112H102.564V105.7H100.204V112H98.0036V98Z" fill="#010101"/>
</svg>
