<svg width="166" height="200" viewBox="0 0 166 200" fill="none" xmlns="http://www.w3.org/2000/svg">
<path d="M165.811 22.3203C165.572 24.8767 164.92 26.9119 163.845 28.4176C163.829 28.5748 163.742 28.732 163.567 28.8727L163.543 29.1126C162.269 31.0816 161.274 32.6287 160.542 33.7704C159.81 34.9121 159.062 35.9131 158.282 36.8066C157.502 37.7001 156.634 38.5771 155.703 39.4541C154.764 40.331 153.459 41.4065 151.787 42.6889C150.267 43.9878 148.779 45.328 147.338 46.7179C145.881 48.1078 144.329 49.3571 142.674 50.4822C141.003 51.7646 139.331 53.0138 137.668 54.2134C135.996 55.4213 134.261 56.5713 132.454 57.6799C132.112 57.9695 131.786 58.2177 131.452 58.4245C131.125 58.6396 130.719 58.8795 130.218 59.1525C128.73 60.1371 127.392 61.1712 126.206 62.2632C125.013 63.347 123.691 64.3067 122.211 65.1258C120.739 65.9448 119.266 66.7639 117.794 67.5829C116.313 68.4019 114.905 69.3865 113.551 70.5364C113.066 70.8095 112.461 71.3968 111.761 72.2904C111.084 72.8695 111.116 73.3576 111.856 73.7547C112.724 74.491 113.368 74.9626 113.822 75.1611C114.252 75.5334 114.769 75.7816 115.382 75.9223C115.987 76.0712 116.512 76.2449 116.966 76.4435C118.908 77.2874 120.802 78.0816 122.681 78.8427C124.551 79.5956 126.541 80.3236 128.65 81.0186C131.937 82.3175 134.938 83.8728 137.644 85.6764C140.342 87.4882 142.976 89.6475 145.531 92.1626C148.261 94.537 150.553 97.3498 152.424 100.601C155.154 104.589 156.897 109.123 157.669 114.202C158.274 117.652 158.035 121.019 156.953 124.296C156.571 125.065 156.26 125.917 156.013 126.86C155.767 127.803 155.456 128.664 155.074 129.433C153.896 132.056 152.496 134.579 150.872 136.995C148.938 139.378 147.012 141.686 145.101 143.911C143.183 146.137 141.122 148.263 138.917 150.307C138.4 150.902 137.795 151.448 137.134 151.936C136.466 152.441 135.861 153.062 135.328 153.814C134.818 154.253 134.309 154.724 133.799 155.237C133.29 155.75 132.773 156.222 132.271 156.652C130.767 157.794 129.215 159.002 127.623 160.292C126.023 161.583 124.4 162.791 122.744 163.916C120.882 165.504 119.043 166.977 117.213 168.317C115.374 169.666 113.321 170.94 111.028 172.164C109.874 172.859 108.8 173.554 107.805 174.257C106.81 174.961 105.807 175.664 104.804 176.375C101.836 178.328 98.8191 180.165 95.7946 181.877C92.7622 183.581 89.6342 185.161 86.3949 186.618C83.6171 188.107 80.7359 189.464 77.7433 190.705C74.7507 191.929 71.7341 193.12 68.6778 194.262C65.2952 195.528 61.833 196.554 58.2673 197.323C54.7016 198.092 51.112 198.696 47.4986 199.143C47.021 199.251 46.5116 199.284 45.9784 199.234C45.4371 199.176 44.8561 199.201 44.2274 199.3C42.9778 199.333 41.7441 199.325 40.5025 199.284C39.2609 199.242 38.0192 199.234 36.7776 199.267C28.516 199.557 20.5569 197.546 12.9002 193.22C11.571 192.434 10.202 191.333 8.78531 189.902C8.22817 189.199 7.66307 188.578 7.09797 188.032C6.52491 187.486 5.87226 186.94 5.15594 186.386C4.44758 185.674 3.84268 184.64 3.34921 183.3C3.1184 182.464 2.80799 181.67 2.41004 180.901C2.01208 180.14 1.69371 179.337 1.47086 178.502C0.88188 176.508 0.674945 174.547 0.858005 172.636C0.929638 171.833 1.04107 171.114 1.17637 170.485C1.31168 169.856 1.56637 169.153 1.95636 168.383C2.87167 166.861 3.75513 165.38 4.58288 163.932C5.41859 162.485 6.28613 161.004 7.20939 159.482C7.57552 158.869 8.27592 157.976 9.31857 156.784C11.7541 153.963 14.1577 151.184 16.5057 148.437C18.8536 145.69 21.2493 142.91 23.6848 140.089C24.0191 139.8 24.242 139.585 24.3375 139.427C24.425 139.278 24.632 139.138 24.9583 139.014C26.5024 137.392 27.7519 136.11 28.6911 135.158C29.6383 134.199 30.458 133.322 31.1505 132.503C31.8509 131.692 32.4797 130.815 33.0209 129.905C33.578 128.995 34.2227 127.845 34.9709 126.471C37.0243 122.806 38.8868 119.092 40.5582 115.294C42.2296 111.514 44.0204 107.7 45.9386 103.861C46.3126 103.091 46.6549 102.363 46.9573 101.66C47.2598 100.965 47.6657 100.245 48.2069 99.4926C50.0216 96.6135 51.5498 93.66 52.7596 90.632C53.9693 87.604 55.2667 84.5595 56.6357 81.4653C57.8454 78.5201 59.1269 75.6245 60.4799 72.7785C61.833 69.9325 63.186 67.0369 64.547 64.1165C64.9291 63.347 65.3111 62.5776 65.6932 61.8082C66.0752 61.0471 66.5368 60.286 67.078 59.5248C68.5823 56.7698 69.9274 53.9652 71.1292 51.1027C72.3311 48.2402 73.4533 45.328 74.5039 42.3662C75.2839 40.6702 75.9445 39.0404 76.4698 37.485C77.0031 35.9297 77.2021 34.2502 77.0668 32.4632C77.1543 31.5035 76.7962 31.1478 76.0002 31.3877C75.6739 31.5201 75.3953 31.5697 75.1645 31.5449C74.9337 31.5201 74.6631 31.578 74.3368 31.7021C71.376 33.5056 68.6938 35.5739 66.306 37.907C63.7591 40.24 61.2201 42.5234 58.6812 44.7572C56.1342 46.9992 53.6669 49.3736 51.2553 51.8721C50.3957 52.7491 49.4645 53.5847 48.4616 54.3706C47.4508 55.1566 46.5275 55.9094 45.6839 56.6292C44.3627 57.4565 43.0494 57.8123 41.7441 57.6799C40.4388 57.5475 39.3643 57.0346 38.5127 56.1411C38.0988 55.6199 37.8043 54.9829 37.6451 54.2383C37.478 53.4937 37.5735 52.8235 37.9476 52.2113C38.8549 50.8545 39.7066 49.5308 40.5264 48.2402C41.3541 46.9578 42.2057 45.6259 43.1131 44.2691C43.4792 43.6651 43.8851 43.0529 44.3308 42.4572C44.7686 41.8616 45.2461 41.3403 45.7555 40.9101C48.5173 37.9566 51.3428 35.1437 54.232 32.4467C57.1212 29.7579 60.2252 27.2842 63.5442 25.0339C64.0456 24.6037 64.5868 24.2148 65.1678 23.8674C65.7329 23.5282 66.2901 23.0566 66.8074 22.4609C73.3737 16.9924 80.3778 12.6241 87.8275 9.33965C95.2693 6.06347 103.101 3.62287 111.331 2.03442C113.384 1.59594 115.366 1.23192 117.252 0.942353C119.306 0.503874 121.741 0.263956 124.535 0.22259C125.307 0.305322 126 0.371507 126.612 0.42942C127.225 0.495605 127.926 0.404594 128.73 0.164671C130.926 -0.100071 133.012 -0.0421518 135.001 0.313595C136.983 0.677616 139.053 0.884441 141.225 0.942353L142.149 1.03336C147.266 2.67972 151.891 4.68184 156.021 7.03142C156.61 7.41199 157.152 7.79255 157.661 8.16485C158.17 8.54541 158.72 8.91772 159.301 9.29828C161.871 11.6561 163.734 14.1877 164.88 16.8765C165.151 17.224 165.31 17.6128 165.357 18.0182C165.397 18.4236 165.477 18.8786 165.58 19.375C165.732 21.0048 165.795 21.9728 165.771 22.2955L165.811 22.3203ZM31.2699 193.608C31.8827 193.675 32.5672 193.741 33.3393 193.815C34.1113 193.89 34.9709 193.898 35.9021 193.832C36.6821 193.749 37.5019 193.708 38.3535 193.716C39.2051 193.716 40.009 193.766 40.789 193.848C42.4763 194.014 44.0363 193.972 45.461 193.716C46.8857 193.451 48.3104 193.071 49.759 192.574C51.5259 191.946 53.2451 191.358 54.9244 190.796C56.6118 190.241 58.323 189.728 60.082 189.265C61.9842 188.81 63.775 188.305 65.4544 187.751C67.1338 187.188 68.8609 186.601 70.6199 185.972C72.3868 185.344 74.0423 184.624 75.5943 183.813C77.1464 183.002 78.7382 182.109 80.3857 181.157C80.5529 181.008 80.7916 180.95 81.1021 180.984C83.2351 179.751 84.9463 178.791 86.2596 178.113C87.5649 177.434 88.7826 176.756 89.9447 176.069C91.0987 175.374 92.3324 174.572 93.6616 173.662C94.9828 172.743 96.8054 171.527 99.1295 169.98C105.115 165.744 110.495 161.285 115.287 156.611C116.982 155.014 118.598 153.525 120.126 152.143C121.654 150.762 123.198 149.264 124.742 147.651C126.262 146.352 127.727 144.73 129.159 142.77C130.576 140.817 132.048 138.865 133.545 136.921C135.041 134.976 136.593 133.032 138.161 131.096C139.57 129.301 140.756 127.406 141.727 125.404C142.69 123.41 143.51 121.235 144.202 118.877C144.266 118.24 144.345 117.677 144.473 117.214C144.6 116.75 144.68 116.188 144.743 115.551C144.958 114.93 145.054 114.335 145.03 113.764C145.006 113.201 145.014 112.672 145.062 112.192C145.213 108.982 144.282 105.656 142.276 102.231C141.727 101.371 141.257 100.643 140.851 100.03C140.437 99.4264 139.96 98.6901 139.427 97.8297C138.901 96.8038 137.986 95.8276 136.681 94.8844C134.508 93.2132 132.279 91.6993 130.003 90.3342C127.719 88.9774 125.307 87.844 122.752 86.9422C119.6 85.817 116.441 84.7663 113.265 83.8066C110.097 82.8387 106.842 81.9452 103.507 81.1261C102.894 81.06 102.249 80.9607 101.557 80.8118C100.873 80.6628 100.14 80.6297 99.3523 80.7042C97.1954 80.4891 95.3091 80.7787 93.6854 81.5812C92.8895 81.8293 92.1573 82.152 91.4967 82.5739C90.8361 82.9876 90.0959 83.4012 89.284 83.7984C85.392 85.6681 81.1976 87.2566 76.7325 88.5803C75.4511 88.936 74.289 88.9029 73.2543 88.4727C72.8007 88.2659 72.6096 87.844 72.6654 87.1987C72.4505 86.2059 72.6733 85.4282 73.3498 84.8491C73.9149 83.7818 74.6233 82.8883 75.459 82.1603C79.2953 79.3226 82.7655 76.2863 85.8616 73.0515C86.5461 72.3152 87.6922 71.703 89.292 71.2231C90.7167 70.8839 92.1016 70.5778 93.4467 70.3131C94.7918 70.0483 96.105 69.6512 97.4024 69.1383C100.713 68.5095 103.34 66.9955 105.274 64.6128C106.977 63.0078 108.569 61.7172 110.065 60.741C114.005 58.3997 117.841 55.562 121.574 52.2279C123.27 50.6311 124.997 49.1916 126.756 47.9093C128.499 46.6352 130.226 45.1957 131.937 43.5907C133.449 42.2918 134.969 40.9929 136.49 39.694C138.01 38.3951 139.315 36.9142 140.398 35.2513C140.939 34.4984 141.496 33.8697 142.093 33.365C142.682 32.8603 143.319 32.3226 143.995 31.7434C145.38 30.2708 146.868 28.4093 148.484 26.1508C150.084 23.8922 151.19 22.0638 151.787 20.6739C152.153 20.07 152.4 19.5239 152.519 19.0524C152.639 18.5808 152.822 17.952 153.045 17.1661C153.299 16.0657 153.116 14.7503 152.48 13.2363C151.922 12.5414 151.437 11.9209 151.023 11.3997C150.609 10.8702 150.1 10.4234 149.519 10.0346C148.93 9.65403 148.412 9.43893 147.951 9.38929C146.287 8.90117 144.664 8.45441 143.064 8.04902C141.472 7.64364 139.825 7.43681 138.121 7.42853C134.404 7.37889 130.664 7.47817 126.915 7.75119C123.158 8.01593 119.441 8.77707 115.756 10.0098C115.43 10.1339 115.04 10.2166 114.57 10.2497C114.101 10.2828 113.695 10.4482 113.368 10.7378C111.14 11.3169 109.023 11.954 107.017 12.6324C105.011 13.3191 102.958 14.1133 100.857 15.0316C100.363 15.3046 99.8299 15.619 99.2568 15.9582C98.6838 16.3057 98.2301 16.6201 97.8958 16.9096C97.5536 17.1992 97.1715 17.5632 96.7418 18.0017C96.312 18.4401 96.1448 18.9945 96.2403 19.6398C96.495 21.9314 96.1289 24.1487 95.1499 26.308C93.6695 30.519 91.8708 34.7714 89.7696 39.0735C86.8804 45.0716 84.0628 51.0779 81.3329 57.0925C78.5949 63.1071 75.8649 69.0473 73.1429 74.9047C72.156 77.064 71.4078 79.3226 70.8745 81.6887C70.6835 83.7653 69.8239 85.453 68.3037 86.7519C66.9029 88.39 65.7409 90.0777 64.8017 91.8399C63.8626 93.6021 62.9234 95.3229 61.9922 97.0024C60.4242 100.394 58.8324 103.786 57.2008 107.17C55.5612 110.554 53.8898 113.938 52.1785 117.305C51.0245 119.613 50.1171 121.938 49.4247 124.296C49.2416 124.602 49.3212 125.049 49.6475 125.644C49.9739 126.248 50.3081 126.48 50.6265 126.347C52.8073 126.248 55.0279 126.223 57.2644 126.289C59.5169 126.364 61.7295 126.256 63.9342 126C65.3429 125.826 66.7517 125.727 68.1525 125.702C69.5533 125.686 70.9382 125.826 72.3072 126.116C72.7609 126.165 73.1827 126.289 73.5488 126.488C73.9149 126.687 74.3288 126.811 74.7904 126.86C75.0849 127.051 75.2362 127.431 75.268 128.002C75.2839 128.565 75.1327 128.995 74.7984 129.284C74.289 129.715 73.8752 129.996 73.5568 130.128C72.2992 130.327 71.0497 130.36 69.816 130.236C68.5823 130.112 67.3566 130.07 66.107 130.103C64.3958 130.095 62.7005 130.037 61.0052 129.954C59.302 129.863 57.5908 129.888 55.8716 130.037C52.4492 130.178 49.3769 131.394 46.6867 133.702C46.3445 133.992 46.05 134.281 45.7873 134.579C45.5247 134.877 45.2222 135.167 44.8959 135.456C42.7629 136.689 41.2029 138.393 40.2239 140.552C39.8419 141.322 39.3882 142.009 38.8709 142.596C38.3456 143.192 37.8998 143.87 37.5178 144.639C35.7986 146.402 34.0794 147.353 32.3603 147.502C29.0413 148.139 26.4148 149.645 24.4807 152.027C23.7962 152.772 23.1038 153.467 22.4193 154.112C21.7428 154.774 20.9787 155.461 20.135 156.181C18.2169 158.406 16.4659 160.574 14.8741 162.667C13.8075 164.172 12.9241 165.695 12.2396 167.242C11.5471 168.781 10.8945 170.419 10.2657 172.123L10.1065 173.802C9.68469 178.278 10.6477 182.084 13.0037 185.228C14.2612 186.642 15.5745 187.908 16.9514 189.017C18.3204 190.117 19.9918 190.936 21.9656 191.457C23.4699 191.929 24.9901 192.285 26.5262 192.525C28.0464 192.756 29.6542 193.12 31.3176 193.617L31.2699 193.608Z" fill="#AB2F5E"/>
</svg>
