<svg width="584" height="806" viewBox="0 0 584 806" fill="none" xmlns="http://www.w3.org/2000/svg">
<path d="M906 372C906 132.309 703.185 -62 453 -62C202.815 -61.9999 -3.31888e-05 132.309 -2.13806e-05 372C-9.57244e-06 611.692 202.815 806 453 806C703.185 806 906 611.692 906 372Z" fill="url(#paint0_linear_4_500)"/>
<path d="M210.389 778.781L198.484 778.781M204.437 773.5L204.437 784.062L204.437 773.5Z" stroke="#8BD2BD" stroke-miterlimit="10"/>
<path d="M181.085 778.781L169.181 778.781M175.133 773.5L175.133 784.062L175.133 773.5Z" stroke="#8BD2BD" stroke-miterlimit="10"/>
<path d="M152.698 778.781L140.794 778.781M146.746 773.5L146.746 784.062L146.746 773.5Z" stroke="#8BD2BD" stroke-miterlimit="10"/>
<path d="M210.389 778.781L198.484 778.781M204.437 773.5L204.437 784.062L204.437 773.5Z" stroke="white" stroke-width="2" stroke-miterlimit="10"/>
<path d="M181.085 778.781L169.181 778.781M175.133 773.5L175.133 784.062L175.133 773.5Z" stroke="white" stroke-width="2" stroke-miterlimit="10"/>
<path d="M152.698 778.781L140.794 778.781M146.746 773.5L146.746 784.062L146.746 773.5Z" stroke="white" stroke-width="2" stroke-miterlimit="10"/>
<path d="M210.389 754.406L198.484 754.406M204.437 749.125L204.437 759.687L204.437 749.125Z" stroke="#8BD2BD" stroke-miterlimit="10"/>
<path d="M181.085 754.406L169.181 754.406M175.133 749.125L175.133 759.687L175.133 749.125Z" stroke="#8BD2BD" stroke-miterlimit="10"/>
<path d="M152.698 754.406L140.794 754.406M146.746 749.125L146.746 759.687L146.746 749.125Z" stroke="#8BD2BD" stroke-miterlimit="10"/>
<path d="M210.389 754.406L198.484 754.406M204.437 749.125L204.437 759.687L204.437 749.125Z" stroke="white" stroke-width="2" stroke-miterlimit="10"/>
<path d="M181.085 754.406L169.181 754.406M175.133 749.125L175.133 759.687L175.133 749.125Z" stroke="white" stroke-width="2" stroke-miterlimit="10"/>
<path d="M152.698 754.406L140.794 754.406M146.746 749.125L146.746 759.687L146.746 749.125Z" stroke="white" stroke-width="2" stroke-miterlimit="10"/>
<path d="M181.085 730.031L169.181 730.031M175.133 724.75L175.133 735.312L175.133 724.75Z" stroke="#8BD2BD" stroke-miterlimit="10"/>
<path d="M152.698 730.031L140.794 730.031M146.746 724.75L146.746 735.312L146.746 724.75Z" stroke="#8BD2BD" stroke-miterlimit="10"/>
<path d="M181.085 730.031L169.181 730.031M175.133 724.75L175.133 735.312L175.133 724.75Z" stroke="white" stroke-width="2" stroke-miterlimit="10"/>
<path d="M152.698 730.031L140.794 730.031M146.746 724.75L146.746 735.312L146.746 724.75Z" stroke="white" stroke-width="2" stroke-miterlimit="10"/>
<path d="M181.085 705.656L169.181 705.656M175.133 700.375L175.133 710.937L175.133 700.375Z" stroke="#8BD2BD" stroke-miterlimit="10"/>
<path d="M152.698 705.656L140.794 705.656M146.746 700.375L146.746 710.937L146.746 700.375Z" stroke="#8BD2BD" stroke-miterlimit="10"/>
<path d="M181.085 705.656L169.181 705.656M175.133 700.375L175.133 710.937L175.133 700.375Z" stroke="white" stroke-width="2" stroke-miterlimit="10"/>
<path d="M152.698 705.656L140.794 705.656M146.746 700.375L146.746 710.937L146.746 700.375Z" stroke="white" stroke-width="2" stroke-miterlimit="10"/>
<path d="M181.085 681.281L169.181 681.281M175.133 676L175.133 686.562L175.133 676Z" stroke="#8BD2BD" stroke-miterlimit="10"/>
<path d="M152.698 681.281L140.794 681.281M146.746 676L146.746 686.562L146.746 676Z" stroke="#8BD2BD" stroke-miterlimit="10"/>
<path d="M181.085 681.281L169.181 681.281M175.133 676L175.133 686.562L175.133 676Z" stroke="white" stroke-width="2" stroke-miterlimit="10"/>
<path d="M152.698 681.281L140.794 681.281M146.746 676L146.746 686.562L146.746 676Z" stroke="white" stroke-width="2" stroke-miterlimit="10"/>
<g filter="url(#filter0_d_4_500)">
<path d="M372.376 153.055L373.624 154.162L404.52 126.749L403.271 125.641L372.376 153.055Z" fill="white"/>
</g>
<g filter="url(#filter1_d_4_500)">
<path d="M342.366 161.392L343.614 162.5L405.405 107.674L404.157 106.566L342.366 161.392Z" fill="white"/>
</g>
<g filter="url(#filter2_d_4_500)">
<path d="M350.218 133.395L351.467 134.502L417.627 75.7991L416.379 74.6915L350.218 133.395Z" fill="white"/>
</g>
<g filter="url(#filter3_d_4_500)">
<path d="M339.296 123.703L340.544 124.811L406.704 66.1076L405.456 65L339.296 123.703Z" fill="white"/>
</g>
<g filter="url(#filter4_d_4_500)">
<path d="M309.286 132.041L310.534 133.149L372.325 78.3221L371.077 77.2145L309.286 132.041Z" fill="white"/>
</g>
<g filter="url(#filter5_d_4_500)">
<path d="M317.138 104.043L318.387 105.151L349.282 77.7374L348.034 76.6298L317.138 104.043Z" fill="white"/>
</g>
<defs>
<filter id="filter0_d_4_500" x="356.953" y="117.93" width="62.9894" height="59.3667" filterUnits="userSpaceOnUse" color-interpolation-filters="sRGB">
<feFlood flood-opacity="0" result="BackgroundImageFix"/>
<feColorMatrix in="SourceAlpha" type="matrix" values="0 0 0 0 0 0 0 0 0 0 0 0 0 0 0 0 0 0 127 0" result="hardAlpha"/>
<feOffset dy="7.71146"/>
<feGaussianBlur stdDeviation="7.71146"/>
<feComposite in2="hardAlpha" operator="out"/>
<feColorMatrix type="matrix" values="0 0 0 0 0.470588 0 0 0 0 0.313726 0 0 0 0 0.803922 0 0 0 0.1 0"/>
<feBlend mode="normal" in2="BackgroundImageFix" result="effect1_dropShadow_4_500"/>
<feBlend mode="normal" in="SourceGraphic" in2="effect1_dropShadow_4_500" result="shape"/>
</filter>
<filter id="filter1_d_4_500" x="326.943" y="98.8545" width="93.8849" height="86.7799" filterUnits="userSpaceOnUse" color-interpolation-filters="sRGB">
<feFlood flood-opacity="0" result="BackgroundImageFix"/>
<feColorMatrix in="SourceAlpha" type="matrix" values="0 0 0 0 0 0 0 0 0 0 0 0 0 0 0 0 0 0 127 0" result="hardAlpha"/>
<feOffset dy="7.71146"/>
<feGaussianBlur stdDeviation="7.71146"/>
<feComposite in2="hardAlpha" operator="out"/>
<feColorMatrix type="matrix" values="0 0 0 0 0.470588 0 0 0 0 0.313726 0 0 0 0 0.803922 0 0 0 0.1 0"/>
<feBlend mode="normal" in2="BackgroundImageFix" result="effect1_dropShadow_4_500"/>
<feBlend mode="normal" in="SourceGraphic" in2="effect1_dropShadow_4_500" result="shape"/>
</filter>
<filter id="filter2_d_4_500" x="334.796" y="66.9801" width="98.254" height="90.6564" filterUnits="userSpaceOnUse" color-interpolation-filters="sRGB">
<feFlood flood-opacity="0" result="BackgroundImageFix"/>
<feColorMatrix in="SourceAlpha" type="matrix" values="0 0 0 0 0 0 0 0 0 0 0 0 0 0 0 0 0 0 127 0" result="hardAlpha"/>
<feOffset dy="7.71146"/>
<feGaussianBlur stdDeviation="7.71146"/>
<feComposite in2="hardAlpha" operator="out"/>
<feColorMatrix type="matrix" values="0 0 0 0 0.470588 0 0 0 0 0.313726 0 0 0 0 0.803922 0 0 0 0.1 0"/>
<feBlend mode="normal" in2="BackgroundImageFix" result="effect1_dropShadow_4_500"/>
<feBlend mode="normal" in="SourceGraphic" in2="effect1_dropShadow_4_500" result="shape"/>
</filter>
<filter id="filter3_d_4_500" x="323.873" y="57.2885" width="98.254" height="90.6565" filterUnits="userSpaceOnUse" color-interpolation-filters="sRGB">
<feFlood flood-opacity="0" result="BackgroundImageFix"/>
<feColorMatrix in="SourceAlpha" type="matrix" values="0 0 0 0 0 0 0 0 0 0 0 0 0 0 0 0 0 0 127 0" result="hardAlpha"/>
<feOffset dy="7.71146"/>
<feGaussianBlur stdDeviation="7.71146"/>
<feComposite in2="hardAlpha" operator="out"/>
<feColorMatrix type="matrix" values="0 0 0 0 0.470588 0 0 0 0 0.313726 0 0 0 0 0.803922 0 0 0 0.1 0"/>
<feBlend mode="normal" in2="BackgroundImageFix" result="effect1_dropShadow_4_500"/>
<feBlend mode="normal" in="SourceGraphic" in2="effect1_dropShadow_4_500" result="shape"/>
</filter>
<filter id="filter4_d_4_500" x="293.863" y="69.503" width="93.8849" height="86.7799" filterUnits="userSpaceOnUse" color-interpolation-filters="sRGB">
<feFlood flood-opacity="0" result="BackgroundImageFix"/>
<feColorMatrix in="SourceAlpha" type="matrix" values="0 0 0 0 0 0 0 0 0 0 0 0 0 0 0 0 0 0 127 0" result="hardAlpha"/>
<feOffset dy="7.71146"/>
<feGaussianBlur stdDeviation="7.71146"/>
<feComposite in2="hardAlpha" operator="out"/>
<feColorMatrix type="matrix" values="0 0 0 0 0.470588 0 0 0 0 0.313726 0 0 0 0 0.803922 0 0 0 0.1 0"/>
<feBlend mode="normal" in2="BackgroundImageFix" result="effect1_dropShadow_4_500"/>
<feBlend mode="normal" in="SourceGraphic" in2="effect1_dropShadow_4_500" result="shape"/>
</filter>
<filter id="filter5_d_4_500" x="301.716" y="68.9183" width="62.9894" height="59.3667" filterUnits="userSpaceOnUse" color-interpolation-filters="sRGB">
<feFlood flood-opacity="0" result="BackgroundImageFix"/>
<feColorMatrix in="SourceAlpha" type="matrix" values="0 0 0 0 0 0 0 0 0 0 0 0 0 0 0 0 0 0 127 0" result="hardAlpha"/>
<feOffset dy="7.71146"/>
<feGaussianBlur stdDeviation="7.71146"/>
<feComposite in2="hardAlpha" operator="out"/>
<feColorMatrix type="matrix" values="0 0 0 0 0.470588 0 0 0 0 0.313726 0 0 0 0 0.803922 0 0 0 0.1 0"/>
<feBlend mode="normal" in2="BackgroundImageFix" result="effect1_dropShadow_4_500"/>
<feBlend mode="normal" in="SourceGraphic" in2="effect1_dropShadow_4_500" result="shape"/>
</filter>
<linearGradient id="paint0_linear_4_500" x1="906" y1="372.001" x2="0.0228748" y2="372.001" gradientUnits="userSpaceOnUse">
<stop stop-color="#942F88" stop-opacity="0.5"/>
<stop offset="1" stop-color="#942F88"/>
</linearGradient>
</defs>
</svg>
