<svg width="185" height="175" viewBox="0 0 185 175" fill="none" xmlns="http://www.w3.org/2000/svg">
<g clip-path="url(#clip0_4_500)">
<path d="M107.361 31.185C105.971 25.465 104.485 24.006 103.374 23.3978C103.09 23.2441 102.774 23.1092 102.446 23.0249C101.434 22.7656 98.7282 22.0718 89.9718 28.2628C86.5188 30.6926 83.2034 33.4272 81.2231 35.2643C78.32 33.6575 73.7901 31.984 68.6564 30.6677C63.5227 29.3515 58.7528 28.6136 55.4283 28.6506C54.5762 26.0873 52.9856 22.0948 51.1278 18.3033C46.4305 8.66281 43.7246 7.96902 42.713 7.70966C42.3842 7.62536 42.0425 7.59165 41.7196 7.58971C40.4279 7.58196 38.4489 8.15264 34.4779 12.498C31.9665 15.2501 29.1199 18.9944 26.2888 23.3086C19.6748 33.3372 14.6851 43.863 12.5518 52.1834C10.9697 58.3542 10.8393 64.2233 12.1427 69.6516C13.391 74.7691 15.9018 79.4827 19.6439 83.7034C26.4052 91.2857 37.1725 97.119 50.7527 100.601C64.3329 104.083 76.6104 104.131 86.1541 100.756C91.4589 98.8823 95.9532 95.9648 99.4911 92.0474C103.246 87.916 105.955 82.7081 107.537 76.5374C109.677 68.1917 110.343 56.5571 109.389 44.6151C108.983 39.4709 108.289 34.8189 107.411 31.198L107.361 31.185Z" fill="#AB2D5F"/>
<path d="M107.361 31.185C105.971 25.465 104.485 24.006 103.374 23.3978C103.09 23.2441 102.774 23.1092 102.446 23.0249C101.434 22.7656 98.7282 22.0718 89.9718 28.2628C86.5188 30.6926 83.2034 33.4272 81.2231 35.2643C78.32 33.6575 73.79 31.984 68.6564 30.6677C63.5227 29.3515 58.7528 28.6136 55.4283 28.6506C54.5762 26.0873 52.9856 22.0948 51.1278 18.3033C46.4305 8.66281 43.7246 7.96902 42.713 7.70966C42.3842 7.62536 42.0425 7.59165 41.7196 7.58971C40.4279 7.58196 38.4489 8.15264 34.4779 12.498C31.9665 15.2501 29.1199 18.9944 26.2888 23.3086C19.6748 33.3372 14.6851 43.863 12.5518 52.1834C10.9697 58.3542 10.8393 64.2233 12.1427 69.6515C13.391 74.7691 15.9018 79.4827 19.6439 83.7034C26.4052 91.2857 37.1725 97.119 50.7527 100.601C64.3329 104.083 76.6104 104.131 86.1541 100.756C91.4589 98.8823 95.9532 95.9648 99.4911 92.0474C103.246 87.916 105.955 82.7082 107.537 76.5374C109.677 68.1917 110.343 56.5571 109.389 44.6151C108.983 39.4709 108.289 34.8189 107.411 31.198L107.361 31.185Z" stroke="white" stroke-width="4.98139" stroke-miterlimit="10"/>
</g>
<g clip-path="url(#clip1_4_500)">
<path d="M174.622 119.63C173.759 115.932 172.81 114.982 172.097 114.582C171.915 114.482 171.712 114.393 171.5 114.336C170.849 114.163 169.108 113.699 163.421 117.639C161.179 119.186 159.023 120.93 157.734 122.103C155.871 121.049 152.959 119.942 149.655 119.061C146.351 118.181 143.278 117.676 141.133 117.679C140.599 116.021 139.593 113.452 138.422 110.978C135.45 104.73 133.708 104.266 133.057 104.093C132.846 104.036 132.625 104.012 132.417 104.009C131.584 103.996 130.304 104.353 127.715 107.132C126.079 108.892 124.219 111.29 122.367 114.056C118.039 120.485 114.756 127.245 113.329 132.6C112.271 136.571 112.151 140.357 112.959 143.867C113.733 147.176 115.324 150.232 117.713 152.977C122.029 157.91 128.94 161.739 137.68 164.068C146.42 166.396 154.34 166.502 160.518 164.383C163.951 163.206 166.869 161.352 169.175 158.846C171.622 156.204 173.402 152.86 174.46 148.889C175.891 143.518 176.391 136.017 175.848 128.307C175.618 124.986 175.198 121.98 174.654 119.639L174.622 119.63ZM117.707 140.112C116.842 140.613 115.835 140.728 114.923 140.485C114.874 140.472 114.826 140.459 114.777 140.446C114.632 138.177 114.881 135.803 115.533 133.292C115.962 133.249 116.387 133.293 116.794 133.401C117.705 133.644 118.509 134.224 119.022 135.111C119.524 135.976 119.639 136.983 119.396 137.895C119.153 138.806 118.573 139.61 117.687 140.124L117.707 140.112ZM122.521 122.046C121.738 122.499 120.849 122.629 120.018 122.477C121.066 120.507 122.245 118.503 123.513 116.558C123.629 116.711 123.745 116.864 123.853 117.049C124.867 118.801 124.269 121.047 122.517 122.062L122.521 122.046ZM124.333 151.552C122.581 152.566 120.335 151.968 119.32 150.216C118.306 148.464 118.904 146.218 120.656 145.203C122.408 144.188 124.654 144.787 125.669 146.539C126.684 148.291 126.085 150.537 124.333 151.552ZM129.147 133.486C127.395 134.5 125.149 133.902 124.134 132.15C123.119 130.398 123.718 128.152 125.47 127.137C127.222 126.122 129.468 126.721 130.483 128.473C131.498 130.225 130.899 132.471 129.147 133.486ZM133.961 115.42C132.209 116.435 129.963 115.836 128.948 114.084C127.933 112.332 128.532 110.086 130.284 109.071C132.036 108.056 134.282 108.655 135.297 110.407C136.312 112.159 135.713 114.405 133.961 115.42ZM126.625 157.147C126.811 156.971 127.03 156.802 127.278 156.659C129.03 155.644 131.276 156.243 132.291 157.995C132.661 158.634 132.821 159.339 132.778 160.025C130.548 159.169 128.488 158.202 126.629 157.131L126.625 157.147ZM135.769 144.942C134.017 145.957 131.771 145.358 130.756 143.606C130.254 142.74 130.139 141.733 130.382 140.822C130.625 139.911 131.205 139.107 132.092 138.593C133.844 137.578 136.09 138.177 137.105 139.929C137.606 140.795 137.721 141.801 137.478 142.713C137.235 143.624 136.655 144.428 135.769 144.942ZM140.583 126.876C138.831 127.891 136.585 127.292 135.57 125.54C134.555 123.788 135.154 121.542 136.906 120.527C138.658 119.512 140.904 120.111 141.918 121.863C142.933 123.615 142.335 125.861 140.583 126.876ZM142.395 156.382C140.643 157.396 138.397 156.798 137.382 155.046C136.367 153.294 136.966 151.048 138.718 150.033C140.47 149.018 142.716 149.617 143.731 151.369C144.745 153.121 144.147 155.367 142.395 156.382ZM147.209 138.316C145.457 139.331 143.211 138.732 142.196 136.98C141.181 135.228 141.78 132.982 143.532 131.967C145.284 130.952 147.53 131.551 148.544 133.303C149.559 135.055 148.961 137.301 147.209 138.316ZM143.906 163.007C144.21 162.391 144.7 161.859 145.339 161.489C146.205 160.988 147.212 160.873 148.123 161.115C149.035 161.358 149.839 161.939 150.352 162.825C150.484 163.052 150.59 163.307 150.68 163.557C148.535 163.561 146.283 163.379 143.923 163.012L143.906 163.007ZM153.835 149.756C152.969 150.257 151.962 150.372 151.051 150.129C150.139 149.887 149.335 149.306 148.822 148.42C148.32 147.554 148.205 146.547 148.448 145.636C148.691 144.725 149.271 143.92 150.158 143.407C151.023 142.906 152.03 142.79 152.942 143.033C153.853 143.276 154.657 143.856 155.17 144.743C155.672 145.609 155.787 146.615 155.544 147.527C155.301 148.438 154.721 149.242 153.835 149.756ZM158.649 131.69C157.783 132.191 156.776 132.306 155.865 132.064C154.953 131.821 154.149 131.24 153.636 130.354C152.621 128.602 153.219 126.356 154.971 125.341C155.837 124.84 156.844 124.725 157.755 124.967C158.667 125.21 159.471 125.791 159.984 126.677C160.999 128.429 160.401 130.675 158.649 131.69ZM160.461 161.196C158.709 162.21 156.463 161.612 155.448 159.86C154.433 158.108 155.031 155.862 156.784 154.847C158.536 153.832 160.782 154.431 161.796 156.183C162.811 157.935 162.213 160.181 160.461 161.196ZM165.275 143.13C163.523 144.144 161.277 143.546 160.262 141.794C159.247 140.042 159.845 137.796 161.597 136.781C163.35 135.766 165.596 136.365 166.61 138.117C167.625 139.869 167.027 142.115 165.275 143.13ZM170.088 125.064C168.336 126.079 166.09 125.48 165.076 123.728C164.061 121.976 164.659 119.73 166.411 118.715C168.163 117.7 170.409 118.299 171.424 120.051C172.439 121.803 171.841 124.049 170.088 125.064ZM172.107 148.367C171.439 150.873 170.469 153.073 169.198 154.965C168.266 154.734 167.413 154.141 166.888 153.234C166.386 152.368 166.271 151.361 166.514 150.45C166.757 149.538 167.337 148.734 168.223 148.221C169.481 147.493 170.971 147.593 172.111 148.35L172.107 148.367ZM171.702 135.168C170.687 133.416 171.285 131.17 173.037 130.155C173.202 130.06 173.358 129.997 173.519 129.917C173.635 132.232 173.664 134.54 173.597 136.754C172.822 136.46 172.143 135.931 171.706 135.152L171.702 135.168Z" fill="#B967A6"/>
<path d="M174.622 119.63C173.759 115.932 172.81 114.982 172.097 114.582C171.915 114.482 171.712 114.393 171.5 114.336C170.849 114.163 169.108 113.699 163.421 117.639C161.179 119.186 159.023 120.93 157.734 122.103C155.871 121.049 152.959 119.942 149.655 119.061C146.351 118.181 143.278 117.676 141.133 117.679C140.599 116.021 139.593 113.452 138.422 110.978C135.45 104.73 133.708 104.266 133.057 104.093C132.846 104.036 132.625 104.012 132.417 104.009C131.584 103.996 130.304 104.353 127.715 107.132C126.079 108.892 124.219 111.29 122.367 114.056C118.039 120.485 114.756 127.245 113.329 132.6C112.271 136.571 112.151 140.357 112.959 143.867C113.733 147.176 115.324 150.232 117.713 152.977C122.029 157.91 128.94 161.739 137.68 164.068C146.42 166.396 154.34 166.502 160.518 164.383C163.951 163.206 166.869 161.352 169.175 158.846C171.622 156.204 173.402 152.86 174.46 148.889C175.891 143.518 176.391 136.017 175.848 128.307C175.618 124.986 175.198 121.98 174.654 119.639L174.622 119.63Z" stroke="#010101" stroke-width="4.98139" stroke-miterlimit="10"/>
</g>
<g clip-path="url(#clip2_4_500)">
<path d="M58.0523 125.483C56.2588 124.085 55.4578 123.999 54.9746 124.082C54.8515 124.103 54.7233 124.138 54.6032 124.192C54.2338 124.356 53.2456 124.795 52.0701 128.77C51.6039 130.334 51.2524 131.957 51.0913 132.989C49.8244 133.198 48.0473 133.778 46.1724 134.611C44.2976 135.444 42.672 136.365 41.6711 137.174C40.7977 136.602 39.3616 135.784 37.8843 135.073C34.1464 133.281 33.1582 133.72 32.7888 133.884C32.6687 133.937 32.5569 134.009 32.4583 134.086C32.0641 134.393 31.5998 135.041 31.4354 137.309C31.3324 138.745 31.3654 140.561 31.5398 142.547C31.935 147.17 32.9428 151.554 34.2895 154.585C35.2883 156.833 36.6557 158.641 38.3529 159.972C39.9589 161.222 41.8515 162.047 43.9999 162.427C47.8712 163.101 52.5401 162.284 57.4996 160.081C62.4591 157.877 66.1998 154.947 68.2895 151.635C69.4514 149.795 70.1171 147.834 70.2526 145.799C70.4025 143.647 69.9771 141.421 68.9783 139.173C67.6275 136.132 65.0404 132.45 61.8878 129.063C60.5313 127.603 59.2054 126.361 58.0708 125.475L58.0523 125.483ZM32.9287 142.437C32.7726 140.642 32.7343 138.938 32.8188 137.61L33.7701 135.147C34.2481 135.177 35.052 135.393 36.2402 135.902L33.0932 144.052C33.0322 143.516 32.9712 142.981 32.9287 142.437ZM35.121 152.947C34.6699 151.757 34.2641 150.371 33.9221 148.879L38.5275 136.993C39.3968 137.456 40.2025 137.926 40.7909 138.304L35.1251 152.956L35.121 152.947ZM38.5218 158.286C37.824 157.637 37.1899 156.882 36.6379 156.013L43.832 137.383C44.5812 136.929 45.5408 136.425 46.7322 135.896C46.9076 135.818 47.0831 135.74 47.2586 135.662L38.5259 158.296L38.5218 158.286ZM43.0282 160.763C42.171 160.526 41.3764 160.206 40.6352 159.807L50.384 134.582C51.0478 134.409 51.5536 134.328 51.8838 134.324C52.1598 134.323 52.3826 134.103 52.4085 133.837C52.4791 133.001 52.8946 130.974 53.4257 129.183C54.1647 126.714 54.8243 125.66 55.1752 125.504C55.1937 125.496 55.1937 125.496 55.2029 125.492C55.2029 125.492 55.5076 125.456 56.4465 126.075L43.0323 160.772L43.0282 160.763ZM45.5633 161.192L58.4952 127.724C59.1377 128.299 59.8119 128.971 60.4974 129.692L48.341 161.171C47.3829 161.255 46.4505 161.272 45.5674 161.201L45.5633 161.192ZM67.0676 150.877C66.482 151.799 65.7528 152.696 64.8945 153.552L68.7563 143.551C69.0798 146.121 68.5183 148.566 67.0676 150.877ZM67.5932 139.59L61.0265 156.594C59.9549 157.269 58.7901 157.908 57.5238 158.493L65.9674 136.627C66.6156 137.663 67.1705 138.663 67.5891 139.58L67.5932 139.59ZM54.3243 159.804C53.2623 160.176 52.2219 160.473 51.2165 160.699L62.3804 131.79C63.0361 132.568 63.6599 133.35 64.2386 134.13L54.3191 159.817L54.3243 159.804Z" fill="#B967A6"/>
<path d="M58.0523 125.483C56.2588 124.085 55.4578 123.999 54.9746 124.082C54.8515 124.103 54.7233 124.138 54.6032 124.192C54.2338 124.356 53.2456 124.795 52.0701 128.77C51.6039 130.334 51.2524 131.957 51.0913 132.989C49.8244 133.198 48.0473 133.778 46.1724 134.611C44.2976 135.444 42.672 136.365 41.6711 137.174C40.7977 136.602 39.3616 135.784 37.8843 135.073C34.1464 133.281 33.1582 133.72 32.7888 133.884C32.6687 133.937 32.5569 134.009 32.4583 134.086C32.0641 134.393 31.5998 135.041 31.4354 137.309C31.3324 138.745 31.3654 140.561 31.5398 142.547C31.935 147.17 32.9428 151.554 34.2895 154.585C35.2883 156.833 36.6557 158.641 38.3529 159.972C39.9589 161.222 41.8515 162.047 43.9999 162.427C47.8712 163.101 52.5401 162.284 57.4996 160.081C62.4591 157.877 66.1998 154.947 68.2895 151.635C69.4514 149.795 70.1171 147.834 70.2526 145.799C70.4025 143.647 69.9771 141.421 68.9783 139.173C67.6275 136.132 65.0404 132.45 61.8878 129.063C60.5313 127.603 59.2054 126.361 58.0708 125.475L58.0523 125.483Z" stroke="#010101" stroke-width="4.98139" stroke-miterlimit="10"/>
</g>
<defs>
<clipPath id="clip0_4_500">
<rect width="103.332" height="93.2316" fill="white" transform="translate(23.1553) rotate(14.3807)"/>
</clipPath>
<clipPath id="clip1_4_500">
<rect width="66.6665" height="60.148" fill="white" transform="translate(120.487 99) rotate(14.9206)"/>
</clipPath>
<clipPath id="clip2_4_500">
<rect width="40" height="36" fill="white" transform="translate(25 136.241) rotate(-23.9557)"/>
</clipPath>
</defs>
</svg>
