<svg width="43" height="36" viewBox="0 0 43 36" fill="none" xmlns="http://www.w3.org/2000/svg">
<g clip-path="url(#clip0_614_39)">
<path d="M11.9917 7.1881C12.2224 7.13108 12.4936 7.16806 12.7456 7.2909C12.9976 7.41374 13.2097 7.61238 13.3354 7.84312L14.9151 10.7432C15.0408 10.9739 15.0697 11.2179 14.9954 11.4214C14.9212 11.6248 14.7499 11.7712 14.5192 11.8282C14.2885 11.8852 14.0173 11.8483 13.7653 11.7254C13.5133 11.6026 13.3011 11.4039 13.1754 11.1732L11.5957 8.27311C11.4701 8.04237 11.4412 7.79842 11.5154 7.59494C11.5897 7.39146 11.761 7.24512 11.9917 7.1881ZM7.69267 10.8436C7.76702 10.6403 7.93825 10.4942 8.16876 10.4372C8.39927 10.3802 8.67021 10.4171 8.92205 10.5397L12.0575 12.0681C12.1863 12.1267 12.3072 12.2058 12.4129 12.3007C12.5185 12.3957 12.6068 12.5046 12.6725 12.6209C12.7382 12.7372 12.78 12.8586 12.7952 12.9777C12.8105 13.0968 12.799 13.2114 12.7614 13.3144C12.7238 13.4174 12.6609 13.5069 12.5764 13.5774C12.4919 13.6479 12.3876 13.6981 12.2697 13.7249C12.1518 13.7517 12.0226 13.7546 11.89 13.7334C11.7574 13.7122 11.6241 13.6674 11.4979 13.6016L8.36246 12.0732C8.11071 11.9503 7.89876 11.7518 7.77317 11.5213C7.64759 11.2907 7.61863 11.047 7.69267 10.8436ZM18.7803 8.10312C19.032 8.22599 19.244 8.42451 19.3696 8.65506C19.4951 8.88562 19.5241 9.12936 19.4501 9.33275L18.5262 11.8645C18.4931 11.9696 18.4345 12.0619 18.3537 12.1358C18.2729 12.2098 18.1716 12.2638 18.0559 12.2947C17.9403 12.3257 17.8125 12.3328 17.6804 12.3159C17.5482 12.2989 17.4144 12.2581 17.2868 12.1959C17.1592 12.1337 17.0405 12.0513 16.9377 11.9538C16.8349 11.8563 16.7503 11.7456 16.6887 11.6282C16.6271 11.5109 16.5899 11.3894 16.5793 11.2709C16.5687 11.1525 16.585 11.0395 16.627 10.9387L17.5509 8.40698C17.6253 8.20374 17.7965 8.05759 18.027 8.00061C18.2575 7.94364 18.5284 7.98051 18.7803 8.10312ZM8.42824 16.9532C8.30255 16.7225 8.27366 16.4786 8.34791 16.2751C8.42216 16.0716 8.59348 15.9252 8.82418 15.8682L11.7237 15.1516C11.9544 15.0946 12.2255 15.1315 12.4775 15.2544C12.7295 15.3772 12.9417 15.5759 13.0674 15.8066C13.1931 16.0373 13.222 16.2813 13.1477 16.4848C13.0735 16.6883 12.9022 16.8346 12.6715 16.8916L9.77199 17.6083C9.54129 17.6653 9.27012 17.6283 9.01811 17.5055C8.76611 17.3826 8.55393 17.184 8.42824 16.9532ZM15.8527 16.0882C15.1406 14.7809 16.2896 13.6966 17.745 14.303L32.1404 20.2901C33.6887 20.934 34.03 22.8121 32.6727 23.2121L28.3158 24.4904C27.8469 24.6273 27.5132 24.952 27.3871 25.3872L26.2017 29.5262C25.8363 30.805 23.741 30.57 22.9758 29.1652L15.8533 16.0894L15.8527 16.0882Z" fill="#E3E14A"/>
</g>
<defs>
<clipPath id="clip0_614_39">
<rect width="28.6726" height="31.703" fill="white" transform="matrix(0.970787 -0.239944 0.478345 0.878172 0 7.51953)"/>
</clipPath>
</defs>
</svg>
