<svg width="12" height="13" viewBox="0 0 12 13" fill="none" xmlns="http://www.w3.org/2000/svg">
<path d="M11.5 7.5C11.5 10.2214 9.07941 12.5 6 12.5C2.92059 12.5 0.5 10.2214 0.5 7.5C0.5 4.77864 2.92059 2.5 6 2.5C9.07941 2.5 11.5 4.77864 11.5 7.5Z" stroke="black"/>
<path d="M5.96 11.1C5.43333 11.1 5.03 10.95 4.75 10.65C4.47667 10.35 4.34 9.92667 4.34 9.38V5.62C4.34 5.07333 4.47667 4.65 4.75 4.35C5.03 4.05 5.43333 3.9 5.96 3.9C6.48667 3.9 6.88667 4.05 7.16 4.35C7.44 4.65 7.58 5.07333 7.58 5.62V6.36H6.54V5.55C6.54 5.11667 6.35667 4.9 5.99 4.9C5.62333 4.9 5.44 5.11667 5.44 5.55V9.46C5.44 9.88667 5.62333 10.1 5.99 10.1C6.35667 10.1 6.54 9.88667 6.54 9.46V8.39H7.58V9.38C7.58 9.92667 7.44 10.35 7.16 10.65C6.88667 10.95 6.48667 11.1 5.96 11.1Z" fill="#010101"/>
</svg>
