<svg width="24" height="38" viewBox="0 0 24 38" fill="none" xmlns="http://www.w3.org/2000/svg">
<g clip-path="url(#clip0_708_778)">
<path d="M6 37.0286C9.312 37.0286 12 34.2638 12 30.8572V24.6857H6C2.688 24.6857 0 27.4505 0 30.8572C0 34.2638 2.688 37.0286 6 37.0286Z" fill="#0ACF83"/>
<path d="M0 18.5143C0 15.1076 2.688 12.3428 6 12.3428H12V24.6857H6C2.688 24.6857 0 21.9209 0 18.5143Z" fill="#A259FF"/>
<path d="M0 6.17143C0 2.7648 2.688 0 6 0H12V12.3429H6C2.688 12.3429 0 9.57806 0 6.17143Z" fill="#F24E1E"/>
<path d="M12 0H18C21.312 0 24 2.7648 24 6.17143C24 9.57806 21.312 12.3429 18 12.3429H12V0Z" fill="#FF7262"/>
<path d="M24 18.5143C24 21.9209 21.312 24.6857 18 24.6857C14.688 24.6857 12 21.9209 12 18.5143C12 15.1076 14.688 12.3428 18 12.3428C21.312 12.3428 24 15.1076 24 18.5143Z" fill="#1ABCFE"/>
</g>
<defs>
<clipPath id="clip0_708_778">
<rect width="24" height="37.0286" fill="white"/>
</clipPath>
</defs>
</svg>
