<svg width="190" height="198" viewBox="0 0 190 198" fill="none" xmlns="http://www.w3.org/2000/svg">
<path d="M0.458496 29.3871L12.5652 17.375L180.167 184.977L168.155 197.083L113.107 142.036C106.297 147.333 101.379 151.589 98.5414 160.196C92.8664 177.41 85.5835 187.058 72.7202 193.773C67.8964 195.948 62.5998 197.083 57.2085 197.083C47.1745 197.083 37.5514 193.097 30.4563 186.002C23.3612 178.907 19.3752 169.284 19.3752 159.25H38.2918C38.2918 164.267 40.2848 169.079 43.8324 172.626C47.38 176.174 52.1915 178.167 57.2085 178.167C59.9514 178.167 62.5052 177.599 64.3968 176.748C71.1123 173.438 75.8414 168.425 80.5706 154.237C84.7323 141.468 92.1097 134.564 99.771 128.605L38.6702 67.5988C38.2918 69.7742 38.2918 71.9496 38.2918 74.125H19.3752C19.3752 66.2746 20.6993 58.8971 23.0639 51.9925L0.458496 29.3871ZM125.119 101.933C130.132 93.0417 132.875 82.9213 132.875 74.125C132.875 47.6417 112.067 26.8333 85.5835 26.8333C74.3281 26.8333 64.2077 30.5221 56.1681 36.8592L42.6427 23.3338C54.0872 13.6863 69.0314 7.91668 85.5835 7.91668C122.755 7.91668 151.792 36.9538 151.792 74.125C151.792 86.0425 148.198 99.1896 141.671 111.013L137.321 118.106L123.701 104.392L125.119 101.933ZM145.739 13.97L159.169 0.539185C177.991 19.3613 189.625 45.3717 189.625 74.125C189.625 100.892 179.505 125.295 162.953 143.738L149.616 130.308C162.669 115.363 170.709 95.69 170.709 74.125C170.709 50.4792 161.25 29.2925 145.739 13.97ZM109.229 74.125C109.229 78.8542 107.905 82.9213 105.73 86.5154L73.1931 53.9788C76.7872 51.8033 80.8543 50.4792 85.5835 50.4792C91.8548 50.4792 97.8692 52.9704 102.304 57.4049C106.738 61.8393 109.229 67.8537 109.229 74.125Z" fill="#3B728D"/>
</svg>
