<svg width="112" height="112" viewBox="0 0 112 112" fill="none" xmlns="http://www.w3.org/2000/svg">
<g clip-path="url(#clip0_19_80)">
<path d="M30.8253 5.64618L31.1276 4.6592L31.91 4.27686L31.3943 5.37054L30.8164 5.65507L30.8253 5.64618ZM31.1543 9.90531L31.0031 5.89515L31.7589 5.5217L34.8529 8.0914L34.0527 8.48264L31.421 6.17079L31.7233 6.01963L31.9367 9.52297L31.1543 9.90531ZM31.5455 8.8383L31.4566 8.16253L33.1636 7.32671L33.6437 7.80687L31.5544 8.82941L31.5455 8.8383Z" fill="#F1F1F1"/>
<path d="M34.9416 8.07349L33.4746 4.47234L34.2303 4.16113L34.8527 5.68162L35.1194 6.47298L35.4484 7.24656L35.6707 7.78006L34.9505 8.07349H34.9416ZM36.4975 7.48663C36.2753 7.57555 36.0619 7.61112 35.8574 7.58444C35.6529 7.55777 35.4662 7.45996 35.2973 7.29991C35.1283 7.13096 34.9861 6.89978 34.8616 6.59746C34.7371 6.28625 34.6749 6.0195 34.6927 5.77942C34.7016 5.54824 34.7727 5.34373 34.8972 5.18368C35.0216 5.02363 35.1906 4.89025 35.4128 4.80134C35.6618 4.70353 35.9107 4.66796 36.1508 4.69464C36.3909 4.7302 36.6131 4.81912 36.8087 4.97028C37.0043 5.12144 37.1555 5.33484 37.2711 5.61048C37.3866 5.88613 37.4222 6.14398 37.3866 6.39295C37.3511 6.64192 37.2622 6.85532 37.111 7.05094C36.9599 7.23767 36.7643 7.38882 36.5153 7.48663H36.4975ZM36.1152 6.91756C36.2397 6.86421 36.3375 6.79308 36.4175 6.69527C36.4975 6.59746 36.542 6.48187 36.5509 6.34849C36.5598 6.21512 36.5509 6.07285 36.4798 5.92169C36.4175 5.77053 36.3375 5.65494 36.2308 5.56602C36.1241 5.486 36.0174 5.43265 35.893 5.41486C35.7685 5.39708 35.644 5.41486 35.5195 5.46821C35.3951 5.52157 35.2884 5.5927 35.2172 5.69051C35.1372 5.78832 35.0928 5.90391 35.075 6.03728C35.0572 6.17066 35.075 6.31293 35.1461 6.46409C35.2084 6.61525 35.2884 6.73084 35.3951 6.81976C35.5018 6.90867 35.6173 6.95313 35.7329 6.97091C35.8485 6.9887 35.9819 6.97091 36.1063 6.91756H36.1152Z" fill="#F1F1F1"/>
<path d="M37.431 3.65446C37.2888 3.70781 37.1554 3.70781 37.0398 3.65446C36.9242 3.60111 36.8442 3.52109 36.7998 3.3966C36.7553 3.27212 36.7642 3.15653 36.8264 3.04093C36.8887 2.92534 36.9865 2.84532 37.1287 2.79197C37.271 2.73862 37.3955 2.73862 37.5199 2.79197C37.6444 2.84532 37.7155 2.92534 37.76 3.04093C37.8044 3.16542 37.7956 3.2899 37.7422 3.40549C37.6889 3.52109 37.5822 3.60111 37.4399 3.65446H37.431ZM38.1156 6.81991L37.1732 4.16129L37.9467 3.88565L38.8891 6.54427L38.1156 6.81991Z" fill="#F1F1F1"/>
<path d="M41.0675 5.84178L40.9075 5.31717L40.8186 5.21936L40.5252 4.27684C40.4718 4.10789 40.3829 3.9923 40.2495 3.93006C40.1162 3.86782 39.9472 3.86782 39.7339 3.93006C39.5916 3.97452 39.4582 4.03676 39.3338 4.12568C39.2093 4.2146 39.1115 4.3124 39.0315 4.4191L38.5869 3.95674C38.7025 3.80558 38.8536 3.6722 39.0404 3.54772C39.2271 3.43212 39.4316 3.33432 39.6449 3.27207C40.0539 3.14759 40.4007 3.14759 40.6941 3.27207C40.9786 3.39656 41.1831 3.66331 41.3165 4.07233L41.7877 5.61059L41.0586 5.83289L41.0675 5.84178ZM40.2584 6.13521C40.0539 6.19745 39.8583 6.21523 39.6894 6.18856C39.5205 6.16188 39.3693 6.09964 39.2537 6.00183C39.1382 5.90402 39.0492 5.77954 39.0048 5.61949C38.9603 5.45944 38.9514 5.30828 38.9959 5.16601C39.0404 5.02374 39.1293 4.89037 39.2804 4.76588C39.4316 4.65029 39.6449 4.54359 39.9206 4.46356L40.6318 4.24127L40.7741 4.69475L40.1428 4.89037C39.9561 4.94372 39.8405 5.01485 39.7961 5.09487C39.7427 5.1749 39.7339 5.26382 39.7605 5.35273C39.7872 5.45054 39.8583 5.52168 39.9472 5.55724C40.045 5.59281 40.1606 5.58392 40.294 5.54835C40.4274 5.50389 40.534 5.44165 40.623 5.34384C40.7119 5.25493 40.7563 5.13933 40.7652 4.99707L40.9964 5.32606C40.9964 5.51278 40.9252 5.67284 40.8097 5.80621C40.6852 5.94848 40.5074 6.04629 40.2673 6.12631L40.2584 6.13521Z" fill="#F1F1F1"/>
<path d="M43.6014 5.13052L42.8457 1.53826L44.5972 1.16481C45.0507 1.067 45.4063 1.08479 45.673 1.20927C45.9398 1.33375 46.0998 1.53826 46.1532 1.81391C46.1887 2.00063 46.1798 2.17847 46.1176 2.32963C46.0554 2.48968 45.9487 2.62305 45.8064 2.72975C45.6553 2.83645 45.4863 2.91648 45.2818 2.96094L45.3352 2.72086C45.5575 2.6764 45.7708 2.66751 45.9576 2.71197C46.1443 2.74754 46.3043 2.82756 46.4377 2.95205C46.571 3.07653 46.6511 3.23658 46.6955 3.44998C46.7577 3.76119 46.6955 4.02794 46.4821 4.25024C46.2776 4.47253 45.9398 4.63258 45.4686 4.73928L43.6103 5.13052H43.6014ZM44.2949 4.33026L45.2729 4.12575C45.4863 4.08129 45.6375 4.01016 45.7353 3.91235C45.8331 3.81454 45.8686 3.69006 45.8331 3.5389C45.7975 3.38774 45.7175 3.28104 45.593 3.23658C45.4685 3.19212 45.2996 3.18323 45.0862 3.23658L44.046 3.45887L43.9215 2.85424L44.8106 2.66751C45.0151 2.62305 45.1574 2.56081 45.2552 2.463C45.353 2.36519 45.3796 2.2496 45.353 2.10733C45.3263 1.96507 45.2463 1.86726 45.1218 1.8228C44.9973 1.77834 44.8373 1.77834 44.6328 1.8228L43.8059 2.00063L44.2949 4.33915V4.33026Z" fill="#F1F1F1"/>
<path d="M48.6071 4.24153C48.3137 4.28599 48.0469 4.25931 47.798 4.1704C47.5491 4.08148 47.3446 3.93032 47.1845 3.7347C47.0245 3.53909 46.9267 3.29901 46.8822 3.02337C46.8467 2.73883 46.8733 2.48986 46.9711 2.24979C47.0689 2.0186 47.229 1.82299 47.4424 1.66293C47.6557 1.51178 47.9047 1.40508 48.1981 1.36951C48.4915 1.32505 48.7671 1.35172 49.0161 1.44064C49.265 1.52956 49.4695 1.67183 49.6295 1.87634C49.7896 2.07195 49.8963 2.31203 49.9318 2.59656C49.9674 2.8811 49.9318 3.13007 49.8429 3.37014C49.7451 3.60133 49.5851 3.79695 49.3717 3.957C49.1583 4.11705 48.9005 4.21486 48.6071 4.25931V4.24153ZM48.5093 3.57465C48.6515 3.55687 48.7671 3.50352 48.8649 3.43239C48.9627 3.36125 49.0339 3.25455 49.0783 3.13007C49.1228 3.00558 49.1405 2.86332 49.1139 2.70327C49.0872 2.54321 49.0427 2.40984 48.9627 2.30314C48.8827 2.19644 48.7849 2.1253 48.6693 2.08085C48.5537 2.03639 48.4293 2.0186 48.2959 2.04528C48.1625 2.07195 48.0469 2.11641 47.9491 2.18755C47.8513 2.25868 47.7802 2.36538 47.7269 2.48986C47.6824 2.61435 47.6646 2.75662 47.6913 2.91667C47.718 3.07672 47.7624 3.21009 47.8425 3.31679C47.9225 3.42349 48.0203 3.50352 48.1359 3.54798C48.2514 3.59244 48.3759 3.61022 48.5093 3.59244V3.57465Z" fill="#F1F1F1"/>
<path d="M51.621 3.7167C51.3632 3.73448 51.132 3.69892 50.9098 3.60111C50.6875 3.5033 50.5097 3.36103 50.3674 3.16541C50.2251 2.9698 50.1451 2.73861 50.1273 2.46297C50.1096 2.18733 50.154 1.94725 50.2607 1.73385C50.3674 1.52045 50.5274 1.3515 50.7319 1.21813C50.9364 1.09364 51.1676 1.01362 51.4165 0.995836C51.6566 0.978052 51.8789 1.00473 52.0656 1.09364C52.2523 1.17367 52.4034 1.31594 52.519 1.50266C52.6346 1.69828 52.7057 1.94725 52.7324 2.25846C52.7591 2.56967 52.7324 2.82753 52.6435 3.03204C52.5546 3.23655 52.4301 3.3966 52.2612 3.51219C52.0923 3.62778 51.8789 3.69002 51.6388 3.70781L51.621 3.7167ZM51.8433 4.8993C51.5766 4.91708 51.3187 4.8993 51.0698 4.86373C50.8208 4.81927 50.6075 4.73925 50.4296 4.62365L50.7053 4.01013C50.8386 4.09904 50.9898 4.17018 51.1765 4.21464C51.3632 4.25909 51.541 4.27688 51.7277 4.25909C52.0122 4.23242 52.2167 4.15239 52.3412 4.01902C52.4657 3.88564 52.519 3.68113 52.4924 3.43216L52.4568 3.01425V2.30292L52.3857 1.59158L52.3412 0.995836L53.1147 0.933594L53.2925 3.27211C53.3281 3.78783 53.2303 4.18796 52.9725 4.45471C52.7235 4.72146 52.3412 4.88151 51.8344 4.91708L51.8433 4.8993ZM51.7366 3.04093C51.8789 3.03204 52.0033 2.98758 52.11 2.92534C52.2167 2.8631 52.2968 2.76529 52.3501 2.65859C52.4034 2.55189 52.4301 2.4274 52.4123 2.29403C52.4034 2.15176 52.359 2.03617 52.2879 1.93836C52.2167 1.84055 52.1278 1.76941 52.0122 1.71606C51.8967 1.67161 51.7633 1.65382 51.621 1.66271C51.4788 1.67161 51.3543 1.70717 51.2476 1.77831C51.1409 1.84055 51.052 1.92947 50.9987 2.03617C50.9453 2.14287 50.9186 2.26735 50.9275 2.40962C50.9364 2.54299 50.9809 2.66748 51.052 2.76529C51.1231 2.8631 51.2209 2.94312 51.3365 2.98758C51.4521 3.04093 51.5855 3.05871 51.7188 3.04982L51.7366 3.04093Z" fill="#F1F1F1"/>
<path d="M55.5602 0.817974C55.7825 0.817974 55.987 0.853541 56.1648 0.942458C56.3426 1.03137 56.4849 1.16475 56.5916 1.34258C56.6983 1.52931 56.7516 1.7605 56.7516 2.04503L56.7783 3.65443H55.9603L55.9336 2.17841C55.9336 1.95611 55.8803 1.78717 55.7736 1.68047C55.6758 1.57377 55.5335 1.52042 55.3468 1.52042C55.2135 1.52042 55.0979 1.55599 55.0001 1.60934C54.8934 1.67158 54.8222 1.7516 54.76 1.8583C54.7067 1.965 54.68 2.11616 54.68 2.294L54.7067 3.69H53.8887L53.8442 0.880216H54.6266V1.6449L54.4844 1.41372C54.5822 1.22699 54.7244 1.07583 54.9112 0.969133C55.0979 0.862432 55.3113 0.809082 55.5513 0.809082L55.5602 0.817974Z" fill="#F1F1F1"/>
<path d="M58.6452 3.78798C58.3518 3.7702 58.085 3.69906 57.8627 3.5568C57.6405 3.41453 57.4627 3.2367 57.3382 3.0144C57.2137 2.79211 57.1604 2.53425 57.1781 2.25861C57.1959 1.97407 57.2671 1.7251 57.4182 1.52059C57.5605 1.30719 57.7561 1.14714 57.9872 1.03155C58.2184 0.915958 58.494 0.8715 58.7874 0.889283C59.0897 0.907067 59.3475 0.9782 59.5787 1.11158C59.8099 1.24495 59.9788 1.42279 60.1033 1.65397C60.2278 1.87626 60.2811 2.13412 60.2633 2.41866C60.2455 2.70319 60.1744 2.94327 60.0233 3.15667C59.881 3.37007 59.6854 3.53012 59.4453 3.64571C59.2053 3.76131 58.9386 3.80576 58.6363 3.79687L58.6452 3.78798ZM58.6807 3.1211C58.823 3.1211 58.9474 3.10332 59.0541 3.04997C59.1608 2.99662 59.2497 2.9077 59.3209 2.79211C59.392 2.67652 59.4276 2.54314 59.4365 2.38309C59.4365 2.22304 59.4187 2.08077 59.3653 1.95629C59.312 1.8318 59.2231 1.74289 59.1253 1.68065C59.0275 1.6184 58.903 1.57395 58.7696 1.57395C58.6363 1.57395 58.5118 1.59173 58.3962 1.64508C58.2806 1.69843 58.1917 1.78735 58.1206 1.89405C58.0495 2.00964 58.0139 2.14301 58.005 2.31196C58.005 2.47201 58.0228 2.61428 58.0761 2.73876C58.1384 2.86324 58.2184 2.95216 58.3251 3.02329C58.4318 3.08554 58.5474 3.12999 58.6807 3.12999V3.1211Z" fill="#F1F1F1"/>
<path d="M60.5303 3.86789L60.8948 0L61.7128 0.0711337L61.3482 3.93903L60.5303 3.859V3.86789Z" fill="#F1F1F1"/>
<path d="M62.7617 4.15246C62.5484 4.12579 62.3705 4.06355 62.2194 3.96574C62.0771 3.86793 61.9704 3.75234 61.8993 3.61007C61.8282 3.4678 61.8104 3.31664 61.8282 3.16548C61.846 3.00543 61.9082 2.86317 62.006 2.74757C62.1038 2.63198 62.2461 2.55196 62.4328 2.5075C62.6195 2.46304 62.8507 2.46304 63.1441 2.5075L63.882 2.60531L63.8198 3.07657L63.1618 2.98765C62.9751 2.96097 62.8329 2.97876 62.7529 3.02322C62.6728 3.07657 62.6284 3.1477 62.6106 3.24551C62.5928 3.35221 62.6284 3.44113 62.6995 3.51226C62.7706 3.58339 62.8773 3.62785 63.0196 3.64564C63.1618 3.66342 63.2863 3.64564 63.4019 3.60118C63.5175 3.55672 63.6064 3.4678 63.6686 3.34332L63.7398 3.74344C63.6597 3.91239 63.5353 4.02798 63.3663 4.09911C63.1974 4.17025 62.9929 4.19692 62.744 4.16136L62.7617 4.15246ZM63.6153 4.2236L63.6864 3.6812L63.6508 3.55672L63.7842 2.57863C63.8109 2.40969 63.7753 2.26742 63.6775 2.15183C63.5886 2.04513 63.4286 1.97399 63.2152 1.93843C63.064 1.92064 62.9218 1.92064 62.7706 1.94732C62.6195 1.97399 62.4861 2.01845 62.3705 2.08959L62.166 1.48495C62.335 1.39603 62.5306 1.33379 62.7529 1.30712C62.9751 1.28044 63.1974 1.28044 63.4197 1.30712C63.8464 1.36936 64.1576 1.51163 64.371 1.74281C64.5755 1.97399 64.6555 2.30299 64.5933 2.72979L64.371 4.32141L63.6153 4.21471V4.2236Z" fill="#F1F1F1"/>
<path d="M66.9046 4.0011C66.789 3.97442 66.6823 3.92996 66.6023 3.84994C66.5223 3.76991 66.4601 3.681 66.4156 3.5743C66.38 3.46759 66.3712 3.34311 66.3978 3.21863C66.4245 3.09414 66.4779 2.98744 66.5579 2.90742C66.6379 2.82739 66.7268 2.76515 66.8335 2.72958C66.9402 2.69402 67.0558 2.68512 67.1714 2.7118C67.2869 2.73847 67.3847 2.78293 67.4736 2.86296C67.5626 2.94298 67.6248 3.0319 67.6604 3.1386C67.6959 3.2453 67.7048 3.36089 67.6781 3.49427C67.6515 3.61875 67.5981 3.72545 67.5181 3.81437C67.4381 3.90329 67.3492 3.95664 67.2336 4.0011C67.1269 4.03666 67.0113 4.04556 66.8957 4.01888L66.9046 4.0011Z" fill="#F1F1F1"/>
<path d="M70.6923 5.83308C70.1944 5.69081 69.8388 5.43296 69.6432 5.06839C69.4387 4.70383 69.4209 4.26814 69.5721 3.75242L70.15 1.78735L70.9679 2.02743L70.3989 3.97471C70.3011 4.30371 70.3011 4.57046 70.3989 4.75718C70.4967 4.94391 70.6657 5.07729 70.9057 5.14842C71.1547 5.21955 71.368 5.20177 71.5459 5.09507C71.7237 4.98837 71.8659 4.76608 71.9637 4.43708L72.5328 2.4898L73.333 2.72098L72.755 4.68605C72.6039 5.20177 72.346 5.56633 71.9815 5.76195C71.617 5.95757 71.1902 5.98424 70.6923 5.84197V5.83308Z" fill="#F1F1F1"/>
<path d="M72.4438 6.27745L74.6755 4.78365L74.4621 5.36161L73.7864 2.86304L74.6844 3.20092L75.1556 4.93481L74.7733 4.80143L76.2581 3.77888L77.1205 4.09899L74.9956 5.52166L75.2089 4.95259L75.9291 7.56675L75.0133 7.22887L74.5421 5.39717L74.9067 5.53055L73.3685 6.62423L72.4616 6.28635L72.4438 6.27745Z" fill="#F1F1F1"/>
<path d="M75.4224 7.94937L78.9699 4.10815L79.6367 4.39269L76.0892 8.23391L75.4224 7.94937Z" fill="#F1F1F1"/>
<path d="M79.3254 9.22949C78.8631 8.9983 78.5608 8.68709 78.4274 8.29586C78.294 7.90462 78.3474 7.46893 78.5874 6.97989L79.5032 5.14819L80.2678 5.53054L79.361 7.34445C79.2098 7.65566 79.1565 7.91352 79.2187 8.10913C79.2809 8.31364 79.4232 8.47369 79.6455 8.58929C79.8766 8.70488 80.09 8.72266 80.2856 8.65153C80.4812 8.58039 80.659 8.38478 80.8102 8.07357L81.7171 6.25966L82.4639 6.63311L81.5481 8.4648C81.3081 8.94495 80.988 9.25616 80.5968 9.38065C80.2056 9.50513 79.7788 9.46067 79.3165 9.22949H79.3254Z" fill="#F1F1F1"/>
<path d="M81.3618 10.2253L83.1667 7.0332L83.9135 7.45111L82.1087 10.6432L81.3618 10.2253Z" fill="#F1F1F1"/>
<path d="M83.7979 11.6303L85.8517 8.58936L87.2298 9.52299C87.5587 9.74528 87.8077 10.0031 87.9766 10.3055C88.1456 10.6078 88.2256 10.9101 88.2078 11.2302C88.1989 11.5503 88.0833 11.8704 87.8788 12.1727C87.6743 12.475 87.4165 12.6973 87.1231 12.8307C86.8297 12.9641 86.5096 13.0085 86.1717 12.9641C85.8339 12.9196 85.5049 12.7862 85.176 12.564L83.7979 11.6303ZM84.8914 11.5325L85.5316 11.9682C85.7361 12.1016 85.9406 12.1816 86.1362 12.2083C86.3407 12.235 86.5274 12.2083 86.7052 12.1105C86.883 12.0127 87.0431 11.8882 87.1675 11.6926C87.3009 11.4969 87.372 11.3013 87.3809 11.1057C87.3898 10.9101 87.3543 10.7234 87.2565 10.5455C87.1587 10.3677 87.0075 10.2076 86.803 10.0743L86.1629 9.64747L84.8826 11.5414L84.8914 11.5325Z" fill="#F1F1F1"/>
<path d="M88.2164 14.8225C87.9585 14.6269 87.7807 14.4046 87.6651 14.1556C87.5495 13.9066 87.514 13.6577 87.5406 13.4087C87.5673 13.1508 87.674 12.9197 87.8429 12.6974C88.0119 12.4751 88.2163 12.3239 88.4564 12.2261C88.6876 12.1283 88.9365 12.1016 89.1944 12.1461C89.4522 12.1905 89.6923 12.2972 89.9145 12.4751C90.1368 12.644 90.288 12.8485 90.3946 13.0708C90.4924 13.302 90.528 13.5421 90.5013 13.7911C90.4747 14.04 90.3591 14.289 90.1724 14.5291C90.1546 14.5557 90.1279 14.5824 90.1012 14.6091C90.0746 14.6358 90.0479 14.6624 90.0212 14.6891L88.2164 13.2842L88.5098 12.9108L89.9768 14.0578L89.6389 13.9689C89.7278 13.8533 89.7901 13.7377 89.8078 13.6132C89.8256 13.4887 89.8078 13.3731 89.7723 13.2575C89.7367 13.142 89.6478 13.0441 89.5411 12.9641C89.4344 12.8841 89.3188 12.8307 89.1944 12.813C89.0699 12.7952 88.9543 12.813 88.8387 12.8574C88.7231 12.9108 88.6164 12.9908 88.5275 13.1153L88.4475 13.2131C88.3497 13.3376 88.2964 13.4621 88.2786 13.5954C88.2608 13.7288 88.2786 13.8622 88.3408 13.9778C88.4031 14.0934 88.5009 14.2179 88.6342 14.3246C88.7498 14.4135 88.8654 14.4757 88.981 14.5113C89.0966 14.5468 89.221 14.5557 89.3544 14.5468L89.4077 15.187C89.2121 15.2226 89.0165 15.2137 88.812 15.1515C88.6076 15.0892 88.4031 14.9825 88.2075 14.8314L88.2164 14.8225Z" fill="#F1F1F1"/>
<path d="M90.2524 16.503C90.0746 16.343 89.9145 16.174 89.7901 15.9873C89.6656 15.8006 89.5767 15.6316 89.5322 15.4716L90.119 15.2048C90.1724 15.3471 90.2435 15.4983 90.3413 15.6494C90.4391 15.8006 90.5547 15.934 90.6881 16.0496C90.8303 16.174 90.9459 16.2452 91.0348 16.263C91.1237 16.2807 91.1948 16.263 91.2482 16.2007C91.2926 16.1474 91.3015 16.094 91.2749 16.0318C91.2482 15.9695 91.2037 15.8984 91.1415 15.8184C91.0793 15.7383 91.0081 15.6583 90.9281 15.5605C90.8481 15.4627 90.7681 15.3649 90.7058 15.2671C90.6436 15.1693 90.5814 15.0537 90.5369 14.947C90.4925 14.8403 90.4836 14.7247 90.5102 14.6091C90.528 14.4935 90.5903 14.3779 90.697 14.2534C90.8125 14.1201 90.9548 14.0311 91.1237 13.9956C91.2926 13.96 91.4794 13.9778 91.675 14.0489C91.8706 14.1201 92.0751 14.2445 92.2796 14.4224C92.4307 14.5469 92.5641 14.698 92.6796 14.8581C92.8041 15.0181 92.8841 15.1782 92.9375 15.3204L92.3418 15.5783C92.2884 15.436 92.2262 15.3026 92.1462 15.1871C92.0662 15.0715 91.9773 14.9737 91.8795 14.8936C91.7372 14.7691 91.6216 14.698 91.5238 14.6802C91.426 14.6624 91.3549 14.6802 91.3015 14.7425C91.2571 14.7958 91.2482 14.8581 91.266 14.9292C91.2926 15.0003 91.3371 15.0715 91.3993 15.1515C91.4616 15.2315 91.5416 15.3204 91.6216 15.4093C91.7016 15.5072 91.7728 15.5961 91.8439 15.7028C91.915 15.8006 91.9684 15.9073 92.0039 16.0229C92.0395 16.1385 92.0573 16.2452 92.0306 16.3608C92.0128 16.4764 91.9506 16.5919 91.8439 16.7164C91.7283 16.8498 91.5949 16.9298 91.426 16.9565C91.2571 16.9921 91.0793 16.9743 90.8748 16.8943C90.6792 16.8231 90.4658 16.6898 90.2524 16.5119V16.503Z" fill="#F1F1F1"/>
<path d="M91.5063 17.57L93.4357 15.516L94.0314 16.0762L92.102 18.1302L91.5063 17.57ZM94.0047 15.5071C93.8891 15.4004 93.8358 15.2848 93.8269 15.1603C93.8269 15.0358 93.8625 14.9203 93.9425 14.8224C94.0314 14.7246 94.1381 14.6802 94.2715 14.6802C94.4048 14.6802 94.5204 14.7335 94.636 14.8402C94.7427 14.9469 94.8049 15.0536 94.8227 15.187C94.8405 15.3204 94.796 15.4182 94.7071 15.516C94.6182 15.6138 94.5026 15.6672 94.3693 15.6672C94.2359 15.6672 94.1203 15.6138 94.0047 15.5071Z" fill="#F1F1F1"/>
<path d="M92.6797 20.1931C92.493 20.0063 92.3419 19.7929 92.2174 19.5706C92.0929 19.3483 92.0218 19.1349 91.9951 18.9304L92.6442 18.7526C92.653 18.9127 92.7064 19.0727 92.7864 19.2416C92.8664 19.4106 92.9731 19.5617 93.1065 19.6951C93.3021 19.8996 93.4977 20.0063 93.6844 20.0152C93.8711 20.0152 94.0578 19.9352 94.2356 19.7574L94.5379 19.4639L95.0892 19.0016L95.596 18.4859L96.0316 18.0679L96.574 18.6281L94.8936 20.2642C94.5202 20.6288 94.1467 20.7977 93.7822 20.7799C93.4177 20.7621 93.0531 20.5665 92.6975 20.202L92.6797 20.1931ZM93.4443 19.2683C93.2665 19.0816 93.1421 18.8771 93.0798 18.6459C93.0087 18.4147 93.0087 18.1835 93.0709 17.9524C93.1332 17.7212 93.2576 17.5078 93.4532 17.321C93.6488 17.1254 93.8622 17.0098 94.1023 16.9565C94.3423 16.9031 94.5646 16.912 94.7958 16.992C95.027 17.0632 95.2314 17.1966 95.4093 17.3833C95.5782 17.5611 95.6938 17.7478 95.7471 17.9435C95.8005 18.1391 95.7916 18.3436 95.7205 18.557C95.6493 18.7704 95.4982 18.9838 95.2759 19.2061C95.0536 19.4195 94.8313 19.5617 94.618 19.6329C94.4046 19.704 94.2001 19.704 94.0045 19.6418C93.8089 19.5795 93.6222 19.4639 93.4532 19.2861L93.4443 19.2683ZM94.04 18.9215C94.1378 19.0282 94.2534 19.0994 94.369 19.1349C94.4846 19.1705 94.6091 19.1794 94.7247 19.1527C94.8402 19.1261 94.9558 19.0638 95.0536 18.966C95.1514 18.8682 95.2225 18.7615 95.2492 18.6459C95.2759 18.5303 95.2759 18.4147 95.2403 18.2902C95.2048 18.1746 95.1336 18.0591 95.0358 17.9612C94.938 17.8634 94.8313 17.7923 94.7069 17.7478C94.5913 17.7034 94.4668 17.6945 94.3512 17.7212C94.2357 17.7478 94.1201 17.8101 94.0223 17.9079C93.9245 18.0057 93.8622 18.1124 93.8267 18.228C93.8 18.3436 93.8 18.4681 93.8356 18.5926C93.8711 18.717 93.9422 18.8237 94.04 18.9304V18.9215Z" fill="#F1F1F1"/>
<path d="M98.201 20.442C98.3433 20.611 98.4411 20.7977 98.4855 20.9844C98.53 21.18 98.5211 21.3668 98.4411 21.5624C98.361 21.758 98.2188 21.9536 98.0054 22.1315L96.7784 23.1807L96.245 22.5583L97.3741 21.598C97.5431 21.4468 97.6409 21.3045 97.6587 21.1623C97.6764 21.0111 97.6231 20.8777 97.5075 20.7355C97.4275 20.6376 97.3297 20.5665 97.2141 20.5221C97.1074 20.4776 96.9918 20.4687 96.8674 20.4954C96.7518 20.5221 96.6184 20.5932 96.485 20.7088L95.427 21.6157L94.8936 20.9933L97.0363 19.1616L97.5431 19.7574L96.9474 20.2642L97.0274 19.9974C97.2408 19.953 97.4364 19.9708 97.6409 20.0508C97.8365 20.1308 98.0143 20.2553 98.1743 20.442H98.201Z" fill="#F1F1F1"/>
<path d="M97.9165 24.7545C97.7209 24.4967 97.6053 24.2388 97.5609 23.9632C97.5164 23.6964 97.5431 23.4386 97.6409 23.2074C97.7387 22.9673 97.8987 22.7628 98.121 22.6027C98.3433 22.4338 98.5833 22.336 98.8323 22.3093C99.0812 22.2826 99.3302 22.3093 99.5702 22.4249C99.8103 22.5405 100.015 22.7005 100.184 22.9317C100.353 23.154 100.45 23.3852 100.486 23.6342C100.522 23.8831 100.495 24.1232 100.397 24.3544C100.299 24.5856 100.13 24.799 99.8903 24.9768C99.8636 24.9946 99.837 25.0124 99.8014 25.0391C99.7658 25.0569 99.7392 25.0835 99.7036 25.1013L98.3344 23.2696L98.7167 22.9851L99.837 24.47L99.5347 24.3011C99.6503 24.2121 99.7392 24.1143 99.7925 24.0076C99.8459 23.892 99.8636 23.7764 99.8459 23.6609C99.8281 23.5453 99.7836 23.4208 99.6947 23.3141C99.6147 23.1985 99.508 23.1185 99.4013 23.074C99.2946 23.0295 99.1701 23.0118 99.0457 23.0295C98.9212 23.0473 98.7967 23.1007 98.6811 23.1896L98.5833 23.2607C98.4589 23.3585 98.37 23.4652 98.3166 23.5897C98.2633 23.7142 98.2544 23.8476 98.281 23.981C98.3077 24.1143 98.37 24.2477 98.4678 24.39C98.5567 24.5056 98.6545 24.5945 98.7612 24.6567C98.8679 24.719 98.9834 24.7634 99.1079 24.7812L98.9923 25.4125C98.7967 25.3947 98.61 25.3325 98.4322 25.2258C98.2544 25.1191 98.0854 24.959 97.9343 24.7545H97.9165Z" fill="#F1F1F1"/>
<path d="M98.9479 26.1062L101.286 24.5234L101.722 25.1725L101.055 25.626L101.188 25.4037C101.402 25.3593 101.597 25.3859 101.793 25.4837C101.989 25.5816 102.149 25.7416 102.3 25.955L101.669 26.3818C101.669 26.3818 101.642 26.3196 101.633 26.3018C101.615 26.2751 101.606 26.2484 101.588 26.2306C101.455 26.0439 101.304 25.9283 101.117 25.8839C100.931 25.8394 100.735 25.9017 100.504 26.0528L99.4013 26.7997L98.939 26.1239L98.9479 26.1062Z" fill="#F1F1F1"/>
<path d="M101.758 28.9959C101.696 28.8892 101.669 28.7825 101.669 28.6669C101.669 28.5513 101.696 28.4446 101.749 28.3468C101.802 28.249 101.891 28.1601 101.998 28.0978C102.105 28.0356 102.22 28 102.336 28C102.451 28 102.558 28.0267 102.656 28.08C102.754 28.1334 102.834 28.2134 102.896 28.3201C102.958 28.4268 102.985 28.5335 102.985 28.6491C102.985 28.7647 102.958 28.8714 102.905 28.9692C102.851 29.067 102.771 29.1559 102.656 29.2182C102.549 29.2804 102.434 29.316 102.318 29.316C102.202 29.316 102.096 29.2893 101.989 29.2271C101.891 29.1737 101.811 29.0937 101.749 28.987L101.758 28.9959Z" fill="#F1F1F1"/>
<path d="M102.078 31.1122L106.087 30.961L106.461 31.7168L103.891 34.8111L103.5 34.0109L105.812 31.3789L105.963 31.6812L102.46 31.9035L102.078 31.1211V31.1122ZM103.145 31.5034L103.82 31.4145L104.656 33.1217L104.176 33.6018L103.145 31.5123V31.5034ZM106.328 30.7743L107.314 31.0766L107.697 31.8591L106.603 31.3433L106.319 30.7654L106.328 30.7743Z" fill="#F1F1F1"/>
<path d="M103.909 34.8912L107.51 33.4241L107.821 34.1799L106.301 34.8023L105.51 35.069L104.736 35.398L104.203 35.6203L103.909 34.9001V34.8912ZM104.496 36.4473C104.407 36.225 104.372 36.0116 104.398 35.8071C104.425 35.6025 104.523 35.4158 104.683 35.2469C104.852 35.0779 105.083 34.9357 105.385 34.8112C105.687 34.6867 105.963 34.6245 106.194 34.6422C106.425 34.6511 106.63 34.7223 106.79 34.8467C106.95 34.9712 107.083 35.1402 107.172 35.3625C107.27 35.6114 107.306 35.8604 107.279 36.1005C107.243 36.3406 107.154 36.5628 107.003 36.7585C106.852 36.9541 106.639 37.1052 106.363 37.2208C106.096 37.3275 105.83 37.372 105.581 37.3364C105.332 37.3009 105.109 37.2119 104.923 37.0608C104.727 36.9096 104.585 36.714 104.478 36.465L104.496 36.4473ZM105.065 36.0649C105.118 36.1894 105.189 36.2872 105.287 36.3672C105.385 36.4384 105.501 36.4917 105.634 36.5006C105.767 36.5184 105.91 36.5006 106.061 36.4295C106.212 36.3672 106.328 36.2872 106.408 36.1805C106.488 36.0738 106.541 35.9671 106.559 35.8426C106.576 35.7181 106.559 35.5936 106.505 35.4692C106.452 35.3447 106.381 35.238 106.283 35.1668C106.185 35.0868 106.07 35.0424 105.936 35.0246C105.803 35.0068 105.661 35.0246 105.51 35.0957C105.358 35.158 105.243 35.238 105.154 35.3447C105.065 35.4514 105.021 35.567 105.003 35.6826C104.985 35.7982 105.003 35.9315 105.056 36.056L105.065 36.0649Z" fill="#F1F1F1"/>
<path d="M105.163 38.0743L107.821 37.1318L108.097 37.9054L105.438 38.8479L105.163 38.0743ZM108.328 37.3808C108.274 37.2385 108.274 37.1051 108.328 36.9895C108.381 36.8739 108.461 36.7939 108.586 36.7495C108.71 36.705 108.826 36.7139 108.941 36.7761C109.057 36.8384 109.137 36.9362 109.19 37.0785C109.244 37.2207 109.244 37.3541 109.19 37.4697C109.146 37.5853 109.057 37.6653 108.941 37.7098C108.817 37.7542 108.692 37.7453 108.577 37.692C108.461 37.6386 108.381 37.5319 108.328 37.3897V37.3808Z" fill="#F1F1F1"/>
<path d="M105.848 40.2085C105.785 40.004 105.768 39.8084 105.794 39.6394C105.821 39.4705 105.883 39.3193 105.981 39.2037C106.079 39.0793 106.203 38.9992 106.354 38.9548C106.514 38.9103 106.666 38.9014 106.808 38.9459C106.95 38.9903 107.083 39.0793 107.208 39.2304C107.323 39.3816 107.43 39.595 107.519 39.8706L107.741 40.582L107.288 40.7242L107.092 40.0929C107.039 39.9062 106.968 39.7906 106.888 39.7461C106.808 39.6928 106.719 39.6839 106.63 39.7106C106.532 39.7372 106.461 39.8084 106.425 39.8973C106.39 39.9951 106.399 40.1107 106.434 40.2441C106.479 40.3774 106.541 40.4842 106.639 40.5731C106.728 40.662 106.843 40.7064 106.986 40.7153L106.657 40.9465C106.47 40.9465 106.31 40.8754 106.177 40.7598C106.034 40.6353 105.936 40.4575 105.856 40.2174L105.848 40.2085ZM106.141 41.0177L106.666 40.8576L106.763 40.7687L107.706 40.4753C107.875 40.4219 107.99 40.333 108.053 40.1996C108.115 40.0662 108.115 39.8973 108.053 39.6839C108.008 39.5416 107.946 39.4083 107.857 39.2838C107.768 39.1593 107.67 39.0615 107.564 38.9815L108.026 38.5369C108.177 38.6525 108.31 38.8036 108.435 38.9903C108.559 39.1771 108.648 39.3816 108.71 39.595C108.835 40.004 108.835 40.3508 108.71 40.6442C108.586 40.9287 108.319 41.1332 107.91 41.2666L106.372 41.7379L106.15 41.0088L106.141 41.0177Z" fill="#F1F1F1"/>
<path d="M106.852 43.5603L110.444 42.7957L110.817 44.5473C110.915 45.0008 110.897 45.3565 110.773 45.6232C110.649 45.89 110.453 46.05 110.168 46.1034C109.982 46.1389 109.804 46.13 109.653 46.0678C109.493 46.0056 109.359 45.8989 109.253 45.7566C109.146 45.6143 109.066 45.4365 109.021 45.232L109.262 45.2853C109.306 45.5076 109.315 45.721 109.279 45.9078C109.244 46.0945 109.164 46.2545 109.039 46.3879C108.915 46.5213 108.755 46.6013 108.541 46.6458C108.23 46.708 107.963 46.6458 107.741 46.4324C107.519 46.2279 107.359 45.89 107.252 45.4187L106.861 43.5603H106.852ZM107.652 44.2539L107.857 45.2231C107.901 45.4365 107.972 45.5877 108.07 45.6855C108.168 45.7833 108.292 45.8188 108.444 45.7833C108.595 45.7477 108.701 45.6677 108.746 45.5432C108.79 45.4187 108.799 45.2498 108.746 45.0364L108.524 43.996L109.128 43.8716L109.315 44.7607C109.359 44.9652 109.422 45.1075 109.519 45.2053C109.608 45.2942 109.733 45.3298 109.875 45.2942C110.017 45.2675 110.115 45.1875 110.16 45.063C110.204 44.9386 110.204 44.7785 110.16 44.574L109.982 43.7471L107.643 44.245L107.652 44.2539Z" fill="#F1F1F1"/>
<path d="M107.75 48.5577C107.706 48.2642 107.732 47.9975 107.821 47.7485C107.91 47.4995 108.061 47.295 108.257 47.135C108.453 46.9749 108.693 46.8682 108.968 46.8327C109.253 46.7971 109.502 46.8238 109.742 46.9216C109.973 47.0194 110.168 47.1794 110.329 47.3928C110.489 47.6062 110.586 47.8552 110.622 48.1486C110.666 48.4421 110.64 48.7177 110.551 48.9667C110.462 49.2156 110.32 49.4202 110.124 49.5802C109.928 49.7403 109.688 49.847 109.404 49.8825C109.119 49.9181 108.87 49.8914 108.63 49.7936C108.399 49.6958 108.204 49.5358 108.044 49.3224C107.883 49.1089 107.786 48.8511 107.741 48.5577H107.75ZM108.417 48.4599C108.435 48.6021 108.488 48.7177 108.559 48.8155C108.63 48.9133 108.737 48.9845 108.861 49.0289C108.986 49.0734 109.128 49.0912 109.288 49.0645C109.448 49.0378 109.582 48.9934 109.688 48.9133C109.795 48.8333 109.866 48.7355 109.911 48.6199C109.955 48.5043 109.973 48.3798 109.946 48.2465C109.928 48.1131 109.875 47.9975 109.804 47.8997C109.733 47.8019 109.626 47.7307 109.502 47.6774C109.377 47.624 109.235 47.6151 109.075 47.6418C108.915 47.6685 108.781 47.7129 108.675 47.793C108.568 47.873 108.488 47.9708 108.444 48.0864C108.399 48.202 108.381 48.3265 108.408 48.4599H108.417Z" fill="#F1F1F1"/>
<path d="M107.083 51.7941C107.065 51.5274 107.083 51.2695 107.119 51.0206C107.163 50.7716 107.243 50.5582 107.359 50.3803L107.972 50.656C107.883 50.7894 107.812 50.9405 107.768 51.1273C107.723 51.314 107.705 51.4918 107.723 51.6785C107.75 51.9631 107.83 52.1676 107.963 52.2921C108.106 52.4166 108.301 52.461 108.55 52.4432L108.968 52.4077H109.679L110.391 52.3365L110.995 52.2921L111.057 53.0656L108.719 53.2524C108.203 53.2968 107.803 53.1901 107.537 52.9323C107.27 52.6833 107.11 52.301 107.074 51.7941H107.083ZM108.266 51.5718C108.248 51.314 108.283 51.0828 108.381 50.8605C108.479 50.6382 108.621 50.4604 108.817 50.3181C109.012 50.1758 109.244 50.0958 109.519 50.078C109.795 50.0602 110.035 50.1047 110.248 50.2114C110.462 50.3181 110.631 50.4782 110.764 50.6827C110.888 50.8872 110.968 51.1184 110.986 51.3673C111.004 51.6074 110.977 51.8297 110.888 52.0164C110.8 52.2031 110.666 52.3543 110.479 52.4699C110.284 52.5855 110.035 52.6566 109.724 52.6833C109.413 52.71 109.155 52.6833 108.95 52.5944C108.746 52.5055 108.586 52.381 108.47 52.212C108.355 52.0431 108.292 51.8297 108.275 51.5896L108.266 51.5718ZM108.941 51.6874C108.95 51.8297 108.995 51.9542 109.057 52.0609C109.119 52.1676 109.217 52.2476 109.324 52.301C109.43 52.3543 109.555 52.381 109.688 52.3632C109.83 52.3543 109.946 52.3098 110.044 52.2387C110.142 52.1676 110.213 52.0787 110.266 51.9631C110.311 51.8475 110.328 51.7141 110.319 51.5718C110.311 51.4296 110.275 51.3051 110.204 51.1984C110.142 51.0917 110.053 51.0028 109.946 50.9494C109.839 50.8961 109.715 50.8694 109.573 50.8783C109.439 50.8872 109.315 50.9316 109.217 51.0028C109.119 51.0739 109.039 51.1717 108.995 51.2873C108.941 51.4029 108.924 51.5363 108.932 51.6696L108.941 51.6874Z" fill="#F1F1F1"/>
<path d="M111.173 55.511C111.173 55.7333 111.138 55.9378 111.049 56.1157C110.96 56.2935 110.826 56.4358 110.648 56.5425C110.462 56.6492 110.231 56.7025 109.946 56.7025L108.337 56.7292V55.9112L109.813 55.8845C110.035 55.8845 110.204 55.8311 110.311 55.7244C110.417 55.6266 110.471 55.4843 110.471 55.2976C110.471 55.1642 110.435 55.0487 110.382 54.9508C110.32 54.8441 110.24 54.773 110.133 54.7108C110.026 54.6574 109.875 54.6307 109.697 54.6307L108.301 54.6574V53.8394L111.111 53.7949V54.5774H110.346L110.577 54.4351C110.764 54.5329 110.915 54.6752 111.022 54.8619C111.129 55.0487 111.182 55.2621 111.182 55.5021L111.173 55.511Z" fill="#F1F1F1"/>
<path d="M108.204 58.5964C108.222 58.303 108.293 58.0363 108.435 57.814C108.577 57.5917 108.755 57.4138 108.977 57.2894C109.2 57.1649 109.457 57.1115 109.733 57.1293C110.018 57.1471 110.266 57.2182 110.471 57.3694C110.675 57.5205 110.844 57.7073 110.96 57.9385C111.076 58.1785 111.12 58.4453 111.111 58.7387C111.093 59.041 111.022 59.2989 110.889 59.5301C110.755 59.7613 110.578 59.9302 110.346 60.0547C110.124 60.1792 109.866 60.2325 109.582 60.2147C109.297 60.197 109.057 60.1258 108.844 59.9835C108.631 59.8413 108.47 59.6457 108.355 59.4056C108.239 59.1655 108.195 58.8988 108.204 58.5964ZM108.871 58.632C108.871 58.7743 108.888 58.8988 108.942 59.0055C108.995 59.1122 109.084 59.2011 109.2 59.2722C109.315 59.3434 109.457 59.3789 109.617 59.3878C109.777 59.3878 109.92 59.37 110.044 59.3078C110.16 59.2455 110.258 59.1655 110.32 59.0677C110.382 58.9699 110.426 58.8454 110.426 58.712C110.426 58.5787 110.409 58.4542 110.355 58.3386C110.302 58.2319 110.213 58.1341 110.106 58.0629C110 57.9918 109.857 57.9562 109.689 57.9473C109.529 57.9473 109.386 57.9651 109.262 58.0274C109.137 58.0896 109.048 58.1696 108.977 58.2763C108.915 58.383 108.871 58.4986 108.871 58.632Z" fill="#F1F1F1"/>
<path d="M108.123 60.4814L111.991 60.8371L111.92 61.6552L108.052 61.2995L108.123 60.4814Z" fill="#F1F1F1"/>
<path d="M107.768 63.5759L108.31 63.647L108.435 63.6114L109.413 63.7448C109.581 63.7715 109.724 63.7359 109.839 63.6381C109.946 63.5492 110.017 63.3892 110.053 63.1758C110.07 63.0246 110.07 62.8823 110.044 62.7312C110.017 62.58 109.973 62.4466 109.902 62.331L110.506 62.1265C110.595 62.2955 110.657 62.4911 110.684 62.7134C110.711 62.9357 110.711 63.158 110.684 63.3803C110.622 63.8071 110.479 64.1183 110.248 64.3317C110.017 64.5362 109.688 64.6162 109.261 64.554L107.67 64.3406L107.777 63.5848L107.768 63.5759ZM107.839 62.7223C107.866 62.5089 107.928 62.331 108.026 62.1799C108.123 62.0287 108.239 61.9309 108.381 61.8598C108.523 61.7886 108.666 61.7709 108.826 61.7886C108.986 61.8064 109.128 61.8687 109.244 61.9665C109.359 62.0643 109.439 62.2066 109.484 62.3933C109.528 62.58 109.528 62.8201 109.493 63.1046L109.395 63.8426L108.924 63.7804L109.012 63.1224C109.039 62.9357 109.021 62.7934 108.977 62.7134C108.924 62.6334 108.852 62.5889 108.755 62.5711C108.648 62.5533 108.559 62.5889 108.488 62.66C108.417 62.7312 108.372 62.8379 108.355 62.9801C108.337 63.1224 108.355 63.2469 108.399 63.3625C108.443 63.4781 108.532 63.567 108.657 63.6292L108.257 63.7004C108.088 63.6203 107.972 63.4959 107.901 63.3269C107.83 63.158 107.803 62.9535 107.839 62.7045V62.7223Z" fill="#F1F1F1"/>
<path d="M107.999 66.8568C108.026 66.7412 108.07 66.6345 108.15 66.5545C108.23 66.4745 108.319 66.4122 108.426 66.3678C108.533 66.3322 108.657 66.3233 108.782 66.35C108.906 66.3767 109.013 66.43 109.093 66.51C109.173 66.5901 109.235 66.679 109.271 66.7857C109.306 66.8924 109.315 67.008 109.288 67.1236C109.262 67.2392 109.217 67.337 109.137 67.4259C109.057 67.5148 108.968 67.577 108.862 67.6126C108.755 67.6482 108.639 67.6571 108.506 67.6304C108.373 67.6037 108.275 67.5504 108.186 67.4703C108.097 67.3903 108.035 67.3014 107.999 67.1858C107.964 67.0791 107.955 66.9635 107.981 66.8479L107.999 66.8568Z" fill="#F1F1F1"/>
<path d="M106.167 70.6447C106.31 70.1467 106.568 69.7911 106.923 69.5954C107.279 69.3998 107.723 69.3731 108.248 69.5243L110.213 70.0934L109.973 70.9114L108.026 70.3423C107.697 70.2445 107.43 70.2445 107.243 70.3423C107.057 70.4402 106.923 70.6091 106.852 70.8492C106.781 71.0981 106.799 71.3115 106.905 71.4894C107.012 71.6672 107.234 71.8095 107.572 71.9073L109.519 72.4764L109.288 73.2766L107.323 72.7075C106.808 72.5564 106.443 72.2985 106.247 71.934C106.052 71.5694 106.025 71.1426 106.167 70.6447Z" fill="#F1F1F1"/>
<path d="M105.723 72.3962L107.216 74.6281L106.639 74.4147L109.137 73.7389L108.808 74.637L107.065 75.1082L107.199 74.717L108.221 76.2019L107.901 77.0644L106.479 74.9393L107.048 75.1527L104.434 75.8818L104.771 74.9659L106.603 74.4947L106.47 74.8592L105.376 73.321L105.714 72.414L105.723 72.3962Z" fill="#F1F1F1"/>
<path d="M104.052 75.375L107.901 78.9139L107.617 79.5808L103.767 76.0419L104.052 75.375Z" fill="#F1F1F1"/>
<path d="M102.798 79.2696C103.029 78.8072 103.34 78.5049 103.731 78.3715C104.122 78.2381 104.558 78.2915 105.047 78.5316L106.879 79.4474L106.496 80.2121L104.683 79.3051C104.371 79.154 104.113 79.1006 103.918 79.1629C103.722 79.2251 103.553 79.3674 103.447 79.5897C103.331 79.8209 103.313 80.0343 103.384 80.2299C103.456 80.4255 103.651 80.6033 103.962 80.7545L105.776 81.6614L105.403 82.4083L103.571 81.4925C103.091 81.2524 102.78 80.9323 102.655 80.5411C102.522 80.1498 102.575 79.723 102.806 79.2607L102.798 79.2696Z" fill="#F1F1F1"/>
<path d="M101.784 81.3235L104.976 83.1285L104.558 83.8754L101.366 82.0704L101.784 81.3235Z" fill="#F1F1F1"/>
<path d="M100.38 83.76L103.42 85.814L102.487 87.1922C102.264 87.5212 102.007 87.7702 101.713 87.9391C101.42 88.1081 101.109 88.1881 100.789 88.1703C100.468 88.1525 100.148 88.0547 99.8461 87.8413C99.5438 87.6368 99.3215 87.3878 99.1881 87.0855C99.0548 86.7921 99.0103 86.472 99.0548 86.1341C99.0992 85.7962 99.2326 85.4672 99.4548 85.1382L100.388 83.76H100.38ZM100.477 84.8537L100.051 85.4939C99.9172 85.6984 99.8372 85.9029 99.8105 86.0985C99.7838 86.2942 99.8105 86.4898 99.9083 86.6676C99.9972 86.8454 100.131 86.9966 100.326 87.13C100.522 87.2633 100.717 87.3345 100.913 87.3434C101.109 87.3523 101.295 87.3167 101.473 87.2189C101.651 87.1211 101.811 86.9699 101.944 86.7654L102.371 86.1252L100.477 84.8448V84.8537Z" fill="#F1F1F1"/>
<path d="M97.1962 88.179C97.3918 87.9212 97.614 87.7434 97.863 87.6278C98.1119 87.5122 98.3609 87.4766 98.6187 87.5033C98.8766 87.53 99.1077 87.6367 99.33 87.8056C99.5523 87.9745 99.7123 88.179 99.8012 88.4191C99.899 88.6592 99.9257 88.8993 99.8812 89.1571C99.8368 89.415 99.7301 89.6551 99.5523 89.8774C99.3834 90.0997 99.1789 90.2508 98.9566 90.3575C98.7254 90.4642 98.4854 90.4998 98.2364 90.4642C97.9875 90.4286 97.7385 90.322 97.4985 90.1352C97.4718 90.1174 97.4451 90.0908 97.4184 90.0641C97.3918 90.0374 97.3651 90.0107 97.3384 89.9841L98.7432 88.179L99.1166 88.4725L97.9697 89.9396L98.0586 89.6017C98.1742 89.6906 98.2898 89.7529 98.4142 89.7707C98.5387 89.7884 98.6543 89.7707 98.7699 89.7351C98.8855 89.6906 98.9833 89.6106 99.0633 89.5039C99.1522 89.3972 99.1966 89.2816 99.2144 89.1571C99.2322 89.0326 99.2144 88.9171 99.1611 88.8015C99.1077 88.6859 99.0277 88.5792 98.9121 88.4903L98.8143 88.4102C98.6899 88.3124 98.5654 88.2591 98.432 88.2413C98.2986 88.2235 98.1742 88.2413 98.0497 88.3035C97.9252 88.3658 97.8096 88.4547 97.7029 88.597C97.614 88.7125 97.5518 88.8281 97.5162 88.9437C97.4807 89.0593 97.4718 89.1838 97.4896 89.3172L96.8494 89.3705C96.8139 89.1749 96.8227 88.9793 96.885 88.7748C96.9472 88.5703 97.0539 88.3658 97.2051 88.1702L97.1962 88.179Z" fill="#F1F1F1"/>
<path d="M95.5159 90.2153C95.676 90.0286 95.8449 89.8775 96.0316 89.753C96.2183 89.6285 96.3873 89.5396 96.5473 89.4951L96.814 90.082C96.6718 90.1353 96.5206 90.2065 96.3695 90.3043C96.2183 90.4021 96.085 90.5177 95.9694 90.651C95.8449 90.7933 95.7738 90.9089 95.756 90.9978C95.7382 91.0867 95.756 91.1579 95.8182 91.2112C95.8716 91.2557 95.9249 91.2646 95.9961 91.2379C96.0672 91.2112 96.1294 91.1668 96.2094 91.1045C96.2895 91.0423 96.3695 90.9711 96.4673 90.8911C96.5651 90.8111 96.6629 90.7311 96.7607 90.6688C96.8674 90.5977 96.9741 90.5443 97.0808 90.4999C97.1875 90.4554 97.303 90.4465 97.4186 90.4732C97.5342 90.491 97.6498 90.5532 97.7743 90.6599C97.9076 90.7755 97.9965 90.9178 98.0321 91.0867C98.0677 91.2557 98.0499 91.4424 97.9876 91.638C97.9254 91.8336 97.8009 92.0381 97.6142 92.2427C97.4897 92.3938 97.3386 92.5272 97.1786 92.6428C97.0185 92.7584 96.8585 92.8473 96.7162 92.9006L96.4584 92.3138C96.6006 92.2604 96.734 92.1982 96.8496 92.1093C96.9652 92.0293 97.063 91.9403 97.143 91.8425C97.2675 91.7003 97.3386 91.5847 97.3564 91.4869C97.3742 91.389 97.3564 91.3179 97.2941 91.2646C97.2408 91.2201 97.1786 91.2112 97.1074 91.229C97.0363 91.2557 96.9652 91.3001 96.8852 91.3624C96.8051 91.4246 96.7162 91.5046 96.6273 91.5847C96.5295 91.6647 96.4406 91.7447 96.3339 91.807C96.2361 91.8781 96.1294 91.9314 96.0138 91.967C95.8983 92.0026 95.7916 92.0204 95.676 91.9937C95.5604 91.9759 95.4448 91.9137 95.3203 91.807C95.1959 91.6914 95.107 91.558 95.0803 91.389C95.0447 91.2201 95.0625 91.0423 95.1336 90.8378C95.2048 90.6421 95.3381 90.4287 95.5159 90.2153Z" fill="#F1F1F1"/>
<path d="M94.4581 91.4602L96.5119 93.3897L95.9518 93.9854L93.8979 92.0559L94.4581 91.4602ZM96.5208 93.9588C96.6275 93.8432 96.7431 93.7898 96.8675 93.772C96.992 93.772 97.1076 93.8076 97.2054 93.8876C97.3032 93.9766 97.3477 94.0833 97.3477 94.2166C97.3477 94.35 97.2943 94.4656 97.1876 94.5812C97.0809 94.6879 96.9742 94.7501 96.8498 94.7679C96.7253 94.7857 96.6097 94.7412 96.5208 94.6612C96.423 94.5634 96.3696 94.4567 96.3696 94.3233C96.3696 94.19 96.423 94.0744 96.5297 93.9588H96.5208Z" fill="#F1F1F1"/>
<path d="M91.8443 92.6336C92.031 92.4469 92.2444 92.2958 92.4578 92.1713C92.6801 92.0468 92.8935 91.9756 93.098 91.949L93.2758 92.5981C93.1157 92.607 92.9557 92.6603 92.7868 92.7403C92.6178 92.8204 92.4667 92.9271 92.3333 93.0604C92.1288 93.2561 92.0221 93.4517 92.0221 93.6384C92.0221 93.8251 92.1022 94.0118 92.28 94.1897L92.5734 94.492L93.0357 95.0433L93.5514 95.5501L93.9693 95.9858L93.418 96.5282L91.7821 94.8477C91.4176 94.4742 91.2486 94.1008 91.2664 93.7362C91.2842 93.3716 91.4798 93.0071 91.8443 92.6514V92.6336ZM92.769 93.3983C92.9557 93.2205 93.1602 93.096 93.3914 93.0338C93.6225 92.9626 93.8537 92.9626 94.0849 93.0249C94.316 93.0871 94.5294 93.2116 94.7161 93.4072C94.9117 93.6028 95.0273 93.8251 95.0806 94.0563C95.134 94.2875 95.1251 94.5187 95.0451 94.7499C94.9651 94.981 94.8406 95.1856 94.6628 95.3634C94.4849 95.5323 94.2982 95.6479 94.1026 95.7013C93.907 95.7546 93.7025 95.7457 93.4892 95.6746C93.2758 95.6035 93.0624 95.4523 92.8401 95.23C92.6267 95.0077 92.4845 94.7854 92.4133 94.572C92.3422 94.3586 92.3422 94.1541 92.4045 93.9585C92.4667 93.7629 92.5823 93.5762 92.7601 93.4072L92.769 93.3983ZM93.1157 93.9941C93.009 94.0919 92.9379 94.2075 92.9023 94.3231C92.8668 94.4475 92.8579 94.5631 92.8846 94.6787C92.9112 94.7943 92.9735 94.9099 93.0713 95.0077C93.1691 95.1055 93.2758 95.1767 93.3914 95.2033C93.5069 95.23 93.6225 95.23 93.747 95.1944C93.8626 95.1589 93.9782 95.0877 94.076 94.9899C94.1738 94.8921 94.2449 94.7854 94.2893 94.6609C94.3338 94.5365 94.3427 94.4209 94.316 94.3053C94.2893 94.1897 94.2271 94.0741 94.1293 93.9763C94.0315 93.8785 93.9248 93.8162 93.8092 93.7896C93.6937 93.7629 93.5692 93.7629 93.4447 93.7984C93.3202 93.834 93.2135 93.9051 93.1068 94.003L93.1157 93.9941Z" fill="#F1F1F1"/>
<path d="M91.5949 98.1556C91.4259 98.2979 91.2392 98.3957 91.0525 98.4402C90.8569 98.4846 90.6702 98.4757 90.4746 98.3957C90.279 98.3157 90.0834 98.1734 89.9056 97.96L88.8564 96.7329L89.4788 96.1994L90.4479 97.3287C90.5991 97.4976 90.7413 97.5954 90.8836 97.6132C91.0347 97.631 91.1681 97.5777 91.3104 97.4621C91.4082 97.382 91.4793 97.2842 91.5237 97.1686C91.5682 97.0619 91.5771 96.9463 91.5504 96.8219C91.5237 96.7063 91.4526 96.5729 91.337 96.4395L90.4302 95.3814L91.0525 94.8479L92.8841 96.9908L92.2884 97.4976L91.7816 96.9019L92.0483 96.9819C92.0928 97.1953 92.075 97.3909 92.0039 97.5954C91.9238 97.7911 91.7994 97.9689 91.6127 98.1289L91.5949 98.1556Z" fill="#F1F1F1"/>
<path d="M87.2742 97.8887C87.5321 97.6931 87.7899 97.5775 88.0655 97.533C88.3412 97.4886 88.5901 97.5153 88.8213 97.6131C89.0613 97.7109 89.2658 97.8709 89.4259 98.0932C89.5948 98.3155 89.6926 98.5556 89.7193 98.8046C89.7459 99.0535 89.7193 99.3025 89.6037 99.5426C89.497 99.7826 89.3281 99.9872 89.0969 100.156C88.8746 100.325 88.6435 100.423 88.3945 100.458C88.1456 100.494 87.9055 100.467 87.6743 100.369C87.4432 100.272 87.2298 100.103 87.052 99.8627C87.0342 99.836 87.0164 99.8093 86.9897 99.7738L86.9275 99.6759L88.759 98.2977L89.0436 98.6801L87.5588 99.8004L87.7277 99.4981C87.8166 99.6137 87.9144 99.7026 88.0211 99.756C88.1367 99.8093 88.2523 99.8271 88.3678 99.8093C88.4834 99.7915 88.6079 99.7471 88.7146 99.6582C88.8213 99.5781 88.9102 99.4714 88.9546 99.3647C88.9991 99.2491 89.0169 99.1336 88.9991 99.0091C88.9813 98.8846 88.928 98.7601 88.8391 98.6445L88.7679 98.5467C88.6701 98.4222 88.5634 98.3333 88.439 98.2799C88.3145 98.2266 88.1811 98.2177 88.0478 98.2444C87.9144 98.2711 87.781 98.3333 87.6388 98.4311C87.5232 98.52 87.4343 98.6178 87.3632 98.7245C87.292 98.8312 87.2565 98.9468 87.2387 99.0713L86.6074 98.9557C86.6252 98.7601 86.6874 98.5734 86.7941 98.3955C86.9008 98.2177 87.0609 98.0488 87.2654 97.8976L87.2742 97.8887Z" fill="#F1F1F1"/>
<path d="M85.9406 98.9115L87.5232 101.241L86.8741 101.677L86.4207 101.01L86.643 101.143C86.6874 101.357 86.6607 101.552 86.5629 101.748C86.4651 101.935 86.314 102.104 86.0917 102.255L85.6649 101.623C85.6649 101.623 85.7272 101.597 85.745 101.588C85.7716 101.57 85.7983 101.561 85.8161 101.543C86.0028 101.41 86.1184 101.259 86.1628 101.072C86.2073 100.885 86.1451 100.69 85.9939 100.468L85.2471 99.365L85.9228 98.9026L85.9406 98.9115Z" fill="#F1F1F1"/>
<path d="M83.0242 101.73C83.1309 101.668 83.2376 101.632 83.3531 101.632C83.4687 101.632 83.5754 101.659 83.6732 101.712C83.771 101.766 83.8599 101.855 83.9222 101.961C83.9844 102.068 84.02 102.184 84.02 102.299C84.02 102.415 83.9933 102.521 83.94 102.619C83.8866 102.717 83.8066 102.797 83.6999 102.859C83.5932 102.922 83.4865 102.948 83.3709 102.948C83.2553 102.948 83.1487 102.922 83.0509 102.868C82.9531 102.815 82.8641 102.735 82.8019 102.619C82.7397 102.504 82.7041 102.397 82.7041 102.281C82.7041 102.166 82.7308 102.059 82.793 101.961C82.8464 101.864 82.9264 101.783 83.0331 101.721L83.0242 101.73Z" fill="#F1F1F1"/>
<path d="M80.9173 102.05L81.0773 106.06L80.3216 106.434L77.2275 103.873L78.0277 103.482L80.6684 105.794L80.3661 105.945L80.1438 102.442L80.9262 102.059L80.9173 102.05ZM80.5261 103.117L80.615 103.793L78.9168 104.629L78.4367 104.149L80.5261 103.117ZM81.2552 106.301L80.9529 107.288L80.1705 107.67L80.6861 106.576L81.2552 106.292V106.301Z" fill="#F1F1F1"/>
<path d="M75.5822 104.478C75.8045 104.389 76.0179 104.353 76.2224 104.38C76.4269 104.407 76.6136 104.504 76.7825 104.664C76.9514 104.833 77.1026 105.065 77.227 105.367C77.3515 105.669 77.4138 105.945 77.396 106.176C77.3871 106.407 77.316 106.612 77.1915 106.772C77.067 106.941 76.8981 107.065 76.6758 107.154C76.4269 107.261 76.1779 107.288 75.9379 107.261C75.6978 107.225 75.4755 107.136 75.2799 106.985C75.0843 106.834 74.9332 106.621 74.8176 106.345C74.7109 106.069 74.6664 105.811 74.702 105.563C74.7376 105.314 74.8265 105.1 74.9776 104.905C75.1288 104.709 75.3244 104.567 75.5733 104.46L75.5822 104.478ZM75.9645 105.047C75.8401 105.1 75.7422 105.171 75.6622 105.269C75.5911 105.367 75.5378 105.482 75.5289 105.616C75.5111 105.749 75.5289 105.892 75.6 106.043C75.6622 106.194 75.7422 106.309 75.8489 106.398C75.9556 106.478 76.0623 106.532 76.1868 106.549C76.3113 106.567 76.4357 106.549 76.5602 106.496C76.6847 106.443 76.7914 106.372 76.8625 106.274C76.9425 106.176 76.987 106.06 77.0048 105.927C77.0226 105.794 77.0048 105.651 76.9336 105.5C76.8714 105.349 76.7914 105.234 76.6847 105.145C76.578 105.056 76.4624 105.011 76.3468 104.993C76.2313 104.976 76.0979 104.993 75.9734 105.047H75.9645ZM77.1381 103.891L78.614 107.492L77.8583 107.803L77.2359 106.283L76.9692 105.491L76.6402 104.718L76.418 104.184L77.1381 103.891Z" fill="#F1F1F1"/>
<path d="M73.9645 105.145L74.907 107.803L74.1335 108.079L73.1821 105.42L73.9556 105.145H73.9645ZM74.658 108.31C74.8003 108.257 74.9337 108.257 75.0492 108.31C75.1648 108.363 75.2448 108.443 75.2893 108.568C75.3338 108.692 75.3249 108.808 75.2626 108.924C75.2004 109.039 75.1026 109.119 74.9603 109.172C74.8181 109.226 74.6847 109.226 74.5691 109.172C74.4535 109.119 74.3735 109.048 74.3291 108.924C74.2846 108.799 74.2935 108.675 74.3469 108.559C74.4002 108.443 74.5069 108.363 74.6491 108.31H74.658Z" fill="#F1F1F1"/>
<path d="M71.0127 106.122L71.1727 106.647L71.2616 106.745L71.555 107.687C71.6084 107.856 71.6973 107.972 71.8306 108.034C71.964 108.096 72.1329 108.096 72.3463 108.034C72.4886 107.99 72.6219 107.927 72.7464 107.839C72.8709 107.75 72.9687 107.652 73.0487 107.545L73.4932 108.008C73.3777 108.159 73.2265 108.292 73.0398 108.417C72.8531 108.532 72.6486 108.63 72.4352 108.692C72.0262 108.817 71.6795 108.817 71.3861 108.692C71.1016 108.568 70.8971 108.301 70.7637 107.892L70.2925 106.354L71.0215 106.131L71.0127 106.122ZM71.8217 105.829C72.0262 105.767 72.2218 105.749 72.3908 105.767C72.5597 105.793 72.7108 105.856 72.8264 105.954C72.942 106.051 73.0309 106.176 73.0754 106.327C73.1198 106.487 73.1287 106.638 73.0843 106.78C73.0398 106.923 72.9509 107.056 72.7997 107.181C72.6486 107.296 72.4352 107.403 72.1596 107.492L71.4483 107.714L71.3061 107.261L71.9373 107.065C72.124 107.012 72.2396 106.94 72.2841 106.86C72.3374 106.78 72.3463 106.692 72.3196 106.603C72.293 106.505 72.2218 106.434 72.1329 106.398C72.044 106.363 71.9195 106.371 71.7862 106.407C71.6528 106.451 71.5461 106.514 71.4572 106.612C71.3683 106.7 71.3238 106.816 71.3149 106.958L71.0838 106.629C71.0838 106.443 71.1549 106.283 71.2705 106.149C71.395 106.007 71.5728 105.909 71.8128 105.829H71.8217Z" fill="#F1F1F1"/>
<path d="M68.4783 106.834L69.243 110.426L67.4914 110.799C67.038 110.897 66.6823 110.879 66.4156 110.764C66.1489 110.639 65.9889 110.444 65.9266 110.159C65.8911 109.973 65.8999 109.795 65.9622 109.644C66.0244 109.483 66.1311 109.35 66.2734 109.243C66.4156 109.137 66.5934 109.057 66.7979 109.012L66.7446 109.252C66.5223 109.297 66.3089 109.306 66.1222 109.27C65.9355 109.235 65.7755 109.154 65.6421 109.03C65.5087 108.906 65.4287 108.745 65.3843 108.532C65.322 108.221 65.3843 107.963 65.5976 107.732C65.8021 107.51 66.14 107.349 66.6112 107.243L68.4694 106.852L68.4783 106.834ZM67.7848 107.634L66.8157 107.839C66.6023 107.883 66.4512 107.954 66.3534 108.052C66.2556 108.15 66.22 108.274 66.2556 108.425C66.2911 108.577 66.3712 108.683 66.4956 108.728C66.6201 108.772 66.789 108.772 67.0024 108.728L68.0338 108.505L68.1671 109.11L67.278 109.297C67.0736 109.341 66.9313 109.403 66.8335 109.501C66.7357 109.599 66.709 109.715 66.7446 109.857C66.7713 109.999 66.8513 110.097 66.9758 110.141C67.1002 110.186 67.2603 110.186 67.4648 110.141L68.2916 109.964L67.7937 107.625L67.7848 107.634Z" fill="#F1F1F1"/>
<path d="M63.4994 107.732C63.7928 107.687 64.0596 107.714 64.3085 107.803C64.5575 107.892 64.762 108.034 64.922 108.239C65.082 108.434 65.1887 108.674 65.2243 108.95C65.2599 109.235 65.2332 109.483 65.1354 109.724C65.0376 109.955 64.8776 110.15 64.6642 110.31C64.4508 110.462 64.2018 110.568 63.9084 110.604C63.615 110.648 63.3394 110.622 63.0905 110.533C62.8415 110.444 62.637 110.302 62.477 110.106C62.3169 109.91 62.2102 109.67 62.1747 109.395C62.1302 109.11 62.1658 108.861 62.2636 108.621C62.3614 108.39 62.5214 108.194 62.7348 108.034C62.9482 107.874 63.206 107.776 63.4994 107.732ZM63.5972 108.399C63.455 108.416 63.3394 108.47 63.2416 108.541C63.1438 108.612 63.0727 108.719 63.0282 108.843C62.9838 108.968 62.966 109.11 62.9927 109.27C63.0193 109.43 63.0638 109.564 63.1438 109.67C63.2238 109.777 63.3216 109.848 63.4372 109.892C63.5528 109.937 63.6773 109.955 63.8106 109.928C63.944 109.91 64.0596 109.857 64.1574 109.786C64.2552 109.715 64.3263 109.608 64.3797 109.483C64.433 109.359 64.4419 109.217 64.4152 109.057C64.3885 108.897 64.3441 108.763 64.2641 108.657C64.1841 108.55 64.0862 108.47 63.9707 108.425C63.8551 108.381 63.7306 108.363 63.5972 108.39V108.399Z" fill="#F1F1F1"/>
<path d="M60.2457 107.083C60.5124 107.065 60.7702 107.083 61.0192 107.118C61.2681 107.163 61.4815 107.243 61.6593 107.359L61.3837 107.972C61.2503 107.883 61.0992 107.812 60.9125 107.768C60.7258 107.723 60.548 107.714 60.3612 107.723C60.0767 107.75 59.8722 107.83 59.7478 107.963C59.6233 108.105 59.5788 108.301 59.5966 108.55L59.6322 108.968V109.679L59.7122 110.391L59.7567 110.995L58.9831 111.057L58.7964 108.719C58.752 108.203 58.8587 107.803 59.1165 107.536C59.3655 107.27 59.7478 107.11 60.2546 107.074L60.2457 107.083ZM60.4679 108.265C60.7258 108.248 60.9569 108.283 61.1792 108.381C61.4015 108.479 61.5793 108.621 61.7216 108.817C61.8638 109.012 61.9438 109.244 61.9705 109.519C61.9883 109.795 61.9527 110.035 61.8372 110.248C61.7216 110.462 61.5704 110.631 61.3659 110.764C61.1614 110.889 60.9303 110.969 60.6813 110.986C60.4413 111.004 60.219 110.977 60.0323 110.897C59.8456 110.817 59.6944 110.675 59.5788 110.488C59.4633 110.302 59.3921 110.044 59.3655 109.733C59.3388 109.421 59.3655 109.164 59.4544 108.959C59.5433 108.755 59.6678 108.586 59.8367 108.479C60.0056 108.363 60.219 108.301 60.459 108.283L60.4679 108.265ZM60.3524 108.941C60.2101 108.95 60.0856 108.995 59.9789 109.057C59.8722 109.128 59.7922 109.217 59.7389 109.324C59.6855 109.43 59.6589 109.555 59.6766 109.688C59.6855 109.83 59.73 109.946 59.8011 110.044C59.8722 110.142 59.9612 110.213 60.0767 110.257C60.1923 110.302 60.3257 110.319 60.4679 110.311C60.6102 110.302 60.7347 110.257 60.8414 110.195C60.9481 110.133 61.037 110.044 61.0903 109.937C61.1437 109.83 61.1703 109.706 61.1614 109.564C61.1525 109.43 61.1081 109.306 61.037 109.208C60.9658 109.11 60.868 109.03 60.7525 108.986C60.6369 108.941 60.5035 108.915 60.3701 108.923L60.3524 108.941Z" fill="#F1F1F1"/>
<path d="M56.5291 111.173C56.3068 111.173 56.1023 111.137 55.9245 111.049C55.7467 110.96 55.6044 110.826 55.4977 110.648C55.3911 110.462 55.3377 110.231 55.3377 109.946L55.311 108.337H56.129L56.1557 109.813C56.1557 110.035 56.209 110.204 56.3157 110.311C56.4135 110.417 56.5558 110.471 56.7425 110.471C56.8759 110.471 56.9914 110.435 57.0892 110.382C57.1959 110.319 57.2671 110.239 57.3293 110.133C57.3826 110.026 57.4093 109.875 57.4093 109.697L57.3826 108.301H58.2006L58.2451 111.111H57.4627V110.346L57.6049 110.577C57.5071 110.764 57.3649 110.915 57.1781 111.022C56.9914 111.129 56.7781 111.182 56.538 111.182L56.5291 111.173Z" fill="#F1F1F1"/>
<path d="M53.4437 108.203C53.7371 108.221 54.0038 108.292 54.2261 108.425C54.4483 108.559 54.6262 108.746 54.7506 108.968C54.8751 109.19 54.9285 109.448 54.9107 109.724C54.8929 110.008 54.8218 110.257 54.6795 110.462C54.5373 110.675 54.3417 110.835 54.1105 110.951C53.8704 111.066 53.6037 111.111 53.3103 111.102C53.008 111.084 52.7502 111.013 52.519 110.88C52.2878 110.746 52.1189 110.568 51.9944 110.337C51.87 110.115 51.8166 109.857 51.8344 109.572C51.8522 109.288 51.9233 109.048 52.0656 108.834C52.2078 108.621 52.4034 108.461 52.6435 108.345C52.8835 108.23 53.1503 108.185 53.4526 108.194L53.4437 108.203ZM53.4081 108.87C53.2658 108.87 53.1414 108.888 53.0347 108.941C52.928 108.994 52.8391 109.083 52.7679 109.199C52.6968 109.315 52.6613 109.457 52.6524 109.617C52.6524 109.777 52.6701 109.919 52.7324 110.044C52.7946 110.159 52.8746 110.257 52.9724 110.319C53.0702 110.382 53.1947 110.426 53.3281 110.426C53.4614 110.426 53.5859 110.408 53.7015 110.355C53.8082 110.302 53.906 110.213 53.9771 110.106C54.0482 109.999 54.0838 109.857 54.0927 109.688C54.0927 109.528 54.0749 109.386 54.0127 109.261C53.9504 109.137 53.8704 109.048 53.7637 108.977C53.657 108.906 53.5415 108.87 53.4081 108.87Z" fill="#F1F1F1"/>
<path d="M51.5589 108.123L51.2032 111.991L50.3853 111.92L50.7409 108.052L51.5589 108.123Z" fill="#F1F1F1"/>
<path d="M48.4648 107.777L48.3937 108.319L48.4293 108.443L48.2959 109.421C48.2692 109.59 48.3048 109.733 48.4026 109.848C48.4915 109.955 48.6515 110.026 48.8649 110.062C49.0161 110.079 49.1672 110.079 49.3095 110.053C49.4606 110.026 49.594 109.982 49.7096 109.911L49.923 110.515C49.754 110.604 49.5584 110.666 49.3362 110.693C49.1139 110.72 48.8916 110.72 48.6693 110.693C48.2426 110.64 47.9225 110.488 47.718 110.257C47.5135 110.026 47.4335 109.697 47.4957 109.27L47.7091 107.679L48.4648 107.785V107.777ZM49.3184 107.848C49.5318 107.874 49.7096 107.937 49.8607 108.034C50.0119 108.132 50.1097 108.248 50.1808 108.39C50.2519 108.532 50.2697 108.683 50.2519 108.835C50.2341 108.995 50.1719 109.137 50.0741 109.253C49.9763 109.368 49.834 109.448 49.6473 109.493C49.4606 109.537 49.2206 109.546 48.9361 109.502L48.1981 109.404L48.2603 108.932L48.9183 109.021C49.105 109.048 49.2472 109.03 49.3273 108.977C49.4073 108.924 49.4517 108.852 49.4695 108.755C49.4873 108.648 49.4517 108.568 49.3806 108.488C49.3095 108.417 49.2028 108.372 49.0605 108.354C48.9183 108.337 48.7938 108.354 48.6782 108.399C48.5626 108.443 48.4737 108.532 48.4115 108.657L48.3404 108.257C48.4204 108.088 48.5449 107.972 48.7138 107.901C48.8827 107.83 49.0872 107.803 49.3362 107.839L49.3184 107.848Z" fill="#F1F1F1"/>
<path d="M45.1933 108.008C45.3089 108.034 45.4156 108.079 45.4956 108.159C45.5756 108.239 45.6379 108.328 45.6823 108.434C45.7179 108.541 45.7268 108.666 45.7001 108.79C45.6734 108.915 45.6201 109.021 45.5401 109.101C45.4601 109.181 45.3711 109.244 45.2645 109.279C45.1578 109.315 45.0422 109.324 44.9266 109.297C44.811 109.27 44.7132 109.226 44.6243 109.146C44.5354 109.066 44.4732 108.977 44.4376 108.87C44.402 108.763 44.3931 108.648 44.4198 108.514C44.4465 108.39 44.4998 108.283 44.5798 108.194C44.6599 108.105 44.7488 108.043 44.8644 108.008C44.971 107.972 45.0866 107.963 45.2022 107.99L45.1933 108.008Z" fill="#F1F1F1"/>
<path d="M41.4057 106.185C41.9036 106.327 42.2592 106.585 42.4548 106.94C42.6593 107.296 42.6771 107.741 42.5259 108.256L41.9569 110.222L41.1389 109.981L41.708 108.034C41.8058 107.705 41.8058 107.438 41.708 107.252C41.6102 107.065 41.4412 106.932 41.2012 106.86C40.9522 106.789 40.7388 106.807 40.561 106.914C40.3832 107.02 40.2409 107.243 40.1431 107.581L39.5741 109.528L38.7739 109.297L39.3429 107.332C39.4941 106.816 39.7519 106.451 40.1165 106.256C40.481 106.06 40.9078 106.034 41.4057 106.176V106.185Z" fill="#F1F1F1"/>
<path d="M39.6359 105.731L37.4132 107.225L37.6266 106.647L38.3023 109.146L37.4043 108.817L36.9331 107.083L37.3243 107.216L35.8395 108.248L34.9771 107.928L37.102 106.496L36.8886 107.065L36.1596 104.451L37.0753 104.789L37.5466 106.621L37.182 106.487L38.7202 105.393L39.627 105.731H39.6359Z" fill="#F1F1F1"/>
<path d="M36.6576 104.069L33.119 107.919L32.4521 107.634L35.9908 103.784L36.6576 104.069Z" fill="#F1F1F1"/>
<path d="M32.7635 102.806C33.2259 103.037 33.5282 103.348 33.6615 103.74C33.7949 104.131 33.7415 104.567 33.5015 105.056L32.5857 106.887L31.8211 106.505L32.728 104.691C32.8791 104.38 32.9325 104.122 32.8702 103.926C32.808 103.722 32.6657 103.562 32.4435 103.455C32.2123 103.34 31.9989 103.322 31.8033 103.393C31.6077 103.464 31.4299 103.66 31.2787 103.971L30.3718 105.785L29.625 105.411L30.5408 103.58C30.7808 103.099 31.1009 102.788 31.4921 102.655C31.8833 102.53 32.3101 102.575 32.7724 102.806H32.7635Z" fill="#F1F1F1"/>
<path d="M30.7094 101.801L28.9046 104.993L28.1577 104.575L29.9626 101.383L30.7094 101.801Z" fill="#F1F1F1"/>
<path d="M28.2913 100.405L26.2463 103.446L24.8593 102.512C24.5304 102.29 24.2814 102.032 24.1125 101.739C23.9436 101.445 23.8636 101.134 23.8813 100.814C23.8991 100.494 23.9969 100.174 24.2103 99.8715C24.4237 99.5692 24.6637 99.3469 24.966 99.2135C25.2683 99.0801 25.5795 99.0357 25.9174 99.0801C26.2552 99.1246 26.5842 99.258 26.9221 99.4803L28.3002 100.414L28.2913 100.405ZM27.1977 100.503L26.5575 100.076C26.353 99.9426 26.1485 99.8626 25.9529 99.8359C25.7484 99.8093 25.5617 99.8359 25.3839 99.9338C25.2061 100.023 25.055 100.165 24.9216 100.352C24.7882 100.547 24.7171 100.743 24.7082 100.939C24.6993 101.134 24.7349 101.321 24.8327 101.499C24.9305 101.677 25.0816 101.837 25.2861 101.97L25.9263 102.397L27.1977 100.503Z" fill="#F1F1F1"/>
<path d="M23.8548 97.213C24.1126 97.4086 24.2904 97.6309 24.406 97.8799C24.5216 98.1288 24.5572 98.3778 24.5305 98.6357C24.5038 98.8935 24.3971 99.1247 24.2282 99.347C24.0593 99.5693 23.8548 99.7294 23.6147 99.8183C23.3835 99.9161 23.1346 99.9428 22.8768 99.8983C22.6189 99.8538 22.3789 99.7471 22.1566 99.5693C21.9343 99.4004 21.7832 99.1959 21.6765 98.9736C21.5787 98.7424 21.5342 98.5023 21.5698 98.2533C21.6053 98.0044 21.712 97.7554 21.8987 97.5153C21.9165 97.4886 21.9432 97.462 21.9699 97.4353C21.9965 97.4086 22.0232 97.3819 22.0499 97.3553L23.8548 98.7602L23.5614 99.1336L22.0944 97.9955L22.4322 98.0755C22.3433 98.1911 22.2811 98.3067 22.2633 98.4312C22.2455 98.5556 22.2633 98.6712 22.2988 98.7868C22.3344 98.9024 22.4233 99.0002 22.53 99.0803C22.6367 99.1603 22.7523 99.2136 22.8768 99.2314C23.0012 99.2492 23.1168 99.2314 23.2324 99.1781C23.348 99.1247 23.4547 99.0447 23.5436 98.9202L23.6236 98.8224C23.7214 98.6979 23.7748 98.5645 23.7925 98.4312C23.8103 98.2978 23.7925 98.1733 23.7303 98.0488C23.6681 97.9243 23.5791 97.8087 23.4369 97.702C23.3213 97.6131 23.2057 97.5509 23.0901 97.5153C22.9746 97.4798 22.8501 97.4709 22.7167 97.4886L22.6634 96.8484C22.859 96.8129 23.0546 96.8218 23.2591 96.884C23.4636 96.9462 23.6681 97.0529 23.8637 97.2041L23.8548 97.213Z" fill="#F1F1F1"/>
<path d="M21.8184 95.5414C21.9962 95.7014 22.1562 95.8704 22.2807 96.0571C22.4052 96.2438 22.4941 96.4128 22.5386 96.5728L21.9517 96.8396C21.8984 96.6973 21.8273 96.5462 21.7295 96.395C21.6317 96.2438 21.5161 96.1105 21.3827 95.9949C21.2405 95.8704 21.1249 95.7993 21.036 95.7815C20.9471 95.7637 20.8759 95.7815 20.8226 95.8437C20.7781 95.8971 20.7692 95.9504 20.7959 96.0127C20.8226 96.0749 20.867 96.146 20.9293 96.2261C20.9915 96.3061 21.0626 96.3861 21.1427 96.4839C21.2227 96.5728 21.3027 96.6706 21.3649 96.7773C21.4361 96.884 21.4894 96.9907 21.5339 97.0974C21.5783 97.2041 21.5872 97.3197 21.5605 97.4353C21.5428 97.5509 21.4805 97.6665 21.3738 97.791C21.2583 97.9244 21.116 98.0133 20.9471 98.0489C20.7781 98.0844 20.5914 98.0666 20.3958 98.0044C20.2002 97.9422 19.9957 97.8177 19.7912 97.631C19.6401 97.5065 19.5067 97.3553 19.3911 97.1953C19.2667 97.0352 19.1866 96.8752 19.1333 96.7329L19.7201 96.475C19.7735 96.6173 19.8357 96.7507 19.9246 96.8663C20.0046 96.9819 20.0935 97.0797 20.1913 97.1597C20.3336 97.2842 20.4492 97.3553 20.547 97.3731C20.6448 97.3909 20.7159 97.3731 20.7692 97.3109C20.8137 97.2575 20.8226 97.1953 20.8048 97.1241C20.787 97.053 20.7337 96.9819 20.6714 96.9018C20.6092 96.8218 20.5292 96.7329 20.4492 96.644C20.3692 96.5462 20.2891 96.4572 20.2269 96.3505C20.1558 96.2527 20.1024 96.146 20.0669 96.0304C20.0313 95.9149 20.0135 95.8082 20.0402 95.6926C20.058 95.577 20.1202 95.4525 20.2269 95.3369C20.3425 95.2124 20.4758 95.1235 20.6448 95.0968C20.8137 95.0612 20.9915 95.079 21.196 95.1591C21.3916 95.2302 21.605 95.3547 21.8184 95.5414Z" fill="#F1F1F1"/>
<path d="M18.0752 96.5461C18.1908 96.6528 18.2441 96.7683 18.2619 96.8928C18.2619 97.0173 18.2352 97.1329 18.1463 97.2307C18.0574 97.3285 17.9507 97.373 17.8173 97.373C17.6929 97.373 17.5684 97.3196 17.4528 97.2129C17.3461 97.1062 17.2839 96.9995 17.2661 96.875C17.2483 96.7506 17.2928 96.6439 17.3728 96.5461C17.4617 96.4482 17.5773 96.3949 17.7106 96.3949C17.844 96.3949 17.9596 96.4482 18.0752 96.5549V96.5461ZM20.5647 94.4832L18.6353 96.5461L18.0396 95.9859L19.969 93.9319L20.5647 94.4921V94.4832Z" fill="#F1F1F1"/>
<path d="M19.3913 91.869C19.578 92.0558 19.7292 92.2692 19.8537 92.4826C19.9781 92.696 20.0493 92.9183 20.0759 93.1228L19.4269 93.3006C19.418 93.1405 19.3647 92.9805 19.2846 92.8115C19.2046 92.6426 19.0979 92.4914 18.9646 92.3581C18.769 92.1536 18.5734 92.0469 18.3866 92.0469C18.1999 92.0469 18.0132 92.1269 17.8354 92.3047L17.5331 92.5981L16.9819 93.0605L16.4751 93.5762L16.0394 93.9941L15.4971 93.4429L17.1775 91.8068C17.5509 91.4422 17.9243 91.2733 18.2888 91.2911C18.6534 91.3088 19.0179 91.5045 19.3735 91.869H19.3913ZM18.6267 92.7938C18.8045 92.9805 18.929 93.185 18.9912 93.4162C19.0535 93.6474 19.0624 93.8786 19.0001 94.1097C18.9379 94.3409 18.8134 94.5543 18.6178 94.7411C18.4222 94.9367 18.2088 95.0523 17.9688 95.1056C17.7376 95.159 17.5064 95.1501 17.2753 95.07C17.0441 94.9989 16.8396 94.8655 16.6618 94.6877C16.4929 94.5099 16.3773 94.3231 16.3239 94.1275C16.2706 93.9319 16.2795 93.7274 16.3506 93.514C16.4217 93.3006 16.5729 93.0872 16.7952 92.8649C17.0174 92.6515 17.2397 92.5092 17.4531 92.4381C17.6665 92.367 17.871 92.367 18.0666 92.4292C18.2622 92.4914 18.4489 92.607 18.6178 92.7849L18.6267 92.7938ZM18.031 93.1405C17.9332 93.0338 17.8176 92.9716 17.702 92.9271C17.5776 92.8916 17.462 92.8827 17.3464 92.9094C17.2308 92.936 17.1152 92.9983 17.0174 93.0961C16.9196 93.1939 16.8485 93.3006 16.8218 93.4162C16.7952 93.5318 16.7952 93.6474 16.8307 93.7719C16.8663 93.8874 16.9374 94.003 17.0352 94.1008C17.133 94.1987 17.2397 94.2698 17.3642 94.3142C17.4798 94.3587 17.6042 94.3676 17.7198 94.3409C17.8354 94.3142 17.951 94.252 18.0488 94.1542C18.1466 94.0564 18.2088 93.9497 18.2355 93.8341C18.2622 93.7185 18.2622 93.594 18.2266 93.4695C18.191 93.3451 18.1199 93.2383 18.0221 93.1316L18.031 93.1405Z" fill="#F1F1F1"/>
<path d="M13.8703 91.6201C13.728 91.4512 13.6302 91.2733 13.5858 91.0777C13.5413 90.8821 13.5502 90.6954 13.6213 90.4997C13.6925 90.3041 13.8436 90.1085 14.057 89.9218L15.2839 88.8726L15.8174 89.495L14.6883 90.4642C14.5193 90.6153 14.4215 90.7576 14.4037 90.9088C14.386 91.051 14.4393 91.1933 14.5549 91.3356C14.6349 91.4334 14.7327 91.5045 14.8483 91.549C14.955 91.5934 15.0706 91.6023 15.195 91.5756C15.3106 91.549 15.444 91.4778 15.5774 91.3622L16.6354 90.4553L17.1688 91.0777L15.0261 92.9094L14.5193 92.3137L15.115 91.8068L15.035 92.0736C14.8216 92.118 14.626 92.1003 14.4215 92.0291C14.2259 91.9491 14.0481 91.8246 13.8881 91.6379L13.8703 91.6201Z" fill="#F1F1F1"/>
<path d="M14.146 87.3166C14.3416 87.5744 14.4571 87.8323 14.5016 88.1079C14.5461 88.3836 14.5194 88.6325 14.4305 88.8637C14.3327 89.1038 14.1726 89.3083 13.9504 89.4684C13.7281 89.6373 13.488 89.7351 13.2391 89.7707C12.9901 89.7974 12.7412 89.7707 12.5011 89.6551C12.2611 89.5484 12.0566 89.3795 11.8876 89.1483C11.7187 88.926 11.6209 88.6948 11.5854 88.4458C11.5498 88.1969 11.5765 87.9568 11.6743 87.7256C11.7721 87.4944 11.941 87.281 12.1811 87.1032C12.2077 87.0854 12.2344 87.0676 12.27 87.0409C12.3055 87.0231 12.3322 86.9965 12.3678 86.9787L13.7459 88.8104L13.3636 89.0949L12.2433 87.61L12.5456 87.7789C12.43 87.8679 12.3411 87.9657 12.2877 88.0724C12.2344 88.188 12.2166 88.3036 12.2344 88.4191C12.2522 88.5436 12.2966 88.6592 12.3855 88.7659C12.4656 88.8815 12.5723 88.9615 12.6789 89.006C12.7945 89.0505 12.9101 89.0682 13.0346 89.0505C13.1591 89.0327 13.2835 88.9793 13.3991 88.8904L13.4969 88.8193C13.6214 88.7215 13.7103 88.6148 13.7636 88.4903C13.817 88.3658 13.8259 88.2324 13.7992 88.099C13.7725 87.9657 13.7103 87.8323 13.6036 87.69C13.5147 87.5744 13.4169 87.4855 13.3102 87.4233C13.2035 87.361 13.0879 87.3166 12.9635 87.2988L13.079 86.6675C13.2746 86.6853 13.4614 86.7475 13.6392 86.8542C13.817 86.9609 13.9859 87.121 14.1371 87.3255L14.146 87.3166Z" fill="#F1F1F1"/>
<path d="M13.114 85.9649L10.7846 87.5477L10.3489 86.8986L11.0157 86.4451L10.8824 86.6674C10.669 86.7118 10.4734 86.6852 10.2778 86.5873C10.0911 86.4895 9.92214 86.3384 9.771 86.1161L10.4023 85.6893C10.4023 85.6893 10.4289 85.7515 10.4378 85.7782C10.4556 85.8049 10.4645 85.8316 10.4823 85.8493C10.6156 86.0361 10.7668 86.1517 10.9535 86.1961C11.1402 86.2406 11.3358 86.1783 11.5581 86.0272L12.6606 85.2803L13.1229 85.956L13.114 85.9649Z" fill="#F1F1F1"/>
<path d="M10.3045 83.0755C10.3667 83.1822 10.4023 83.2889 10.4023 83.4045C10.4023 83.5201 10.3756 83.6268 10.3223 83.7246C10.2689 83.8313 10.18 83.9113 10.0733 83.9735C9.96664 84.0358 9.85105 84.0713 9.73547 84.0713C9.61989 84.0713 9.51319 84.0447 9.41539 83.9913C9.31759 83.938 9.23757 83.8579 9.17534 83.7512C9.1131 83.6534 9.08643 83.5378 9.08643 83.4222C9.08643 83.3067 9.1131 83.2 9.16644 83.1021C9.21979 83.0043 9.29981 82.9154 9.41539 82.8532C9.53098 82.7909 9.63767 82.7554 9.75325 82.7554C9.86883 82.7554 9.97553 82.782 10.0822 82.8354C10.18 82.8888 10.26 82.9688 10.3223 83.0755H10.3045Z" fill="#F1F1F1"/>
<path d="M5.71697 81.3056L4.73007 81.0033L4.33887 80.2208L5.43246 80.7366L5.71697 81.3056ZM9.97577 80.9677L5.96592 81.1278L5.5925 80.372L8.15311 77.2688L8.54431 78.0691L6.24154 80.7099L6.0904 80.4076L9.59345 80.1853L9.97577 80.9677ZM8.90884 80.5765L8.23313 80.6654L7.39737 78.9671L7.87749 78.487L8.90884 80.5765Z" fill="#F1F1F1"/>
<path d="M8.1263 77.1623L4.53433 78.6383L4.22314 77.8825L5.74351 77.2601L6.53481 76.9933L7.30832 76.6554L7.84178 76.4331L8.13519 77.1534L8.1263 77.1623ZM7.5306 75.6062C7.61951 75.8285 7.65507 76.0419 7.6284 76.2464C7.60173 76.4509 7.50393 76.6376 7.34389 76.8066C7.17496 76.9755 6.94379 77.1267 6.6415 77.2512C6.33031 77.3757 6.06358 77.4379 5.83242 77.4201C5.60125 77.4112 5.39676 77.3401 5.23672 77.2156C5.06779 77.0911 4.94332 76.9222 4.85441 76.6999C4.74771 76.4509 4.71215 76.2108 4.74771 75.9619C4.78328 75.7129 4.87219 75.4995 5.02334 75.3039C5.17448 75.1083 5.38787 74.9482 5.66349 74.8415C5.93911 74.7348 6.19695 74.6904 6.4459 74.7259C6.69484 74.7615 6.91712 74.8504 7.10383 75.0016C7.29943 75.1527 7.44169 75.3483 7.54838 75.5973L7.5306 75.6062ZM6.96157 75.9885C6.90823 75.8641 6.8371 75.7574 6.7393 75.6862C6.6415 75.6151 6.52591 75.5617 6.39255 75.5529C6.25918 75.544 6.11693 75.5529 5.96578 75.624C5.81463 75.6862 5.69905 75.7663 5.61903 75.873C5.53901 75.9797 5.48567 76.0864 5.46789 76.2108C5.4501 76.3353 5.46789 76.4598 5.52123 76.5843C5.57458 76.7088 5.64571 76.8155 5.74351 76.8866C5.84131 76.9666 5.95689 77.0111 6.09026 77.0289C6.22362 77.0467 6.36588 77.0289 6.51702 76.9577C6.66817 76.8955 6.78375 76.8155 6.86377 76.7088C6.95268 76.6021 6.99714 76.4865 7.01492 76.362C7.0327 76.2375 7.01492 76.113 6.96157 75.9885Z" fill="#F1F1F1"/>
<path d="M3.70761 74.6905C3.76096 74.8328 3.76096 74.9662 3.70761 75.0818C3.65427 75.1974 3.57425 75.2774 3.44977 75.3218C3.3253 75.3663 3.20972 75.3574 3.09413 75.2952C2.97855 75.2329 2.89853 75.1351 2.84519 74.9928C2.79184 74.8506 2.79184 74.7261 2.84519 74.6016C2.89853 74.4771 2.96966 74.406 3.09413 74.3615C3.21861 74.3171 3.34308 74.326 3.45866 74.3793C3.57425 74.4327 3.65427 74.5394 3.70761 74.6816V74.6905ZM6.87281 73.997L4.2144 74.9484L3.93878 74.1748L6.59719 73.2234L6.87281 73.997Z" fill="#F1F1F1"/>
<path d="M5.88595 71.0448L5.36138 71.2048L5.26358 71.2938L4.32113 71.5872C4.1522 71.6405 4.03662 71.7295 3.97438 71.8628C3.91214 71.9962 3.91214 72.1651 3.97438 72.3786C4.01883 72.5208 4.08107 72.6542 4.16998 72.7787C4.25889 72.9032 4.35669 73.001 4.46338 73.081L4.00105 73.5256C3.84991 73.41 3.71654 73.2588 3.59207 73.0721C3.47648 72.8854 3.37868 72.6809 3.31644 72.4675C3.19197 72.0584 3.18308 71.7117 3.31644 71.4182C3.44092 71.1337 3.70765 70.9203 4.11664 70.7958L5.65478 70.3157L5.87705 71.0448H5.88595ZM6.17935 71.8539C6.24159 72.0584 6.25937 72.2541 6.24159 72.423C6.21491 72.5919 6.15268 72.7431 6.05487 72.8587C5.95707 72.9832 5.8326 73.0632 5.68145 73.1077C5.52141 73.1521 5.37027 73.161 5.22801 73.1166C5.08576 73.0721 4.95239 72.9832 4.82792 72.832C4.71233 72.6809 4.60564 72.4675 4.51673 72.1918L4.29446 71.4805L4.7479 71.3382L4.9435 71.9695C4.99684 72.1563 5.06797 72.2719 5.14799 72.3163C5.22801 72.3697 5.31692 72.3786 5.40583 72.3519C5.50363 72.3252 5.57476 72.2541 5.61032 72.1652C5.64589 72.0673 5.637 71.9517 5.60143 71.8184C5.55698 71.685 5.49474 71.5783 5.39694 71.4894C5.30803 71.4005 5.19245 71.356 5.05019 71.356L5.37916 71.1248C5.56587 71.1248 5.72591 71.1959 5.85927 71.3115C5.99264 71.4271 6.09933 71.6139 6.17935 71.845V71.8539Z" fill="#F1F1F1"/>
<path d="M5.17477 68.5106L1.59169 69.2753L1.21827 67.5236C1.12047 67.0701 1.13825 66.7144 1.25383 66.4477C1.37831 66.1809 1.57391 66.0209 1.85842 65.9586C2.04513 65.9231 2.22295 65.932 2.3741 65.9942C2.52525 66.0565 2.6675 66.1632 2.77419 66.3054C2.88089 66.4477 2.96091 66.6255 3.00536 66.83L2.7653 66.7767C2.72085 66.5544 2.71196 66.341 2.74752 66.1543C2.78309 65.9675 2.8631 65.8075 2.98758 65.6741C3.11205 65.5407 3.27209 65.4607 3.48548 65.4163C3.79666 65.354 4.0545 65.4162 4.28567 65.6296C4.50794 65.8342 4.66798 66.172 4.77467 66.6433L5.17477 68.5017V68.5106ZM4.37458 67.817L4.17008 66.8478C4.12563 66.6344 4.0545 66.4833 3.9567 66.3855C3.8589 66.2876 3.73442 66.2521 3.58328 66.2876C3.43213 66.3232 3.32544 66.4032 3.28098 66.5277C3.23653 66.6522 3.23653 66.8211 3.28098 67.0345L3.50326 68.066L2.89867 68.1994L2.71196 67.3102C2.6675 67.1057 2.60527 66.9634 2.50746 66.8656C2.41855 66.7767 2.29408 66.7411 2.15182 66.7767C2.00957 66.8122 1.91177 66.8834 1.86731 67.0079C1.82286 67.1324 1.82286 67.2924 1.86731 67.4969L2.04513 68.3238L4.38347 67.8259L4.37458 67.817Z" fill="#F1F1F1"/>
<path d="M4.26742 63.5313C4.31188 63.8247 4.28521 64.1004 4.1963 64.3405C4.10739 64.5894 3.96513 64.7939 3.76064 64.954C3.55614 65.114 3.32498 65.2207 3.04936 65.2563C2.77374 65.2919 2.5159 65.2652 2.27584 65.1674C2.04467 65.0696 1.84907 64.9095 1.68903 64.6961C1.52899 64.4827 1.43119 64.2338 1.39563 63.9403C1.35117 63.6469 1.37785 63.3713 1.46676 63.1223C1.55567 62.8733 1.69792 62.6688 1.89353 62.5088C2.08913 62.3487 2.32919 62.242 2.60481 62.2064C2.88932 62.1709 3.13827 62.1976 3.37832 62.2954C3.61838 62.3932 3.80509 62.5532 3.96513 62.7666C4.12517 62.98 4.22297 63.2379 4.26742 63.5313ZM3.6006 63.6291C3.58282 63.4869 3.52947 63.3713 3.45834 63.2735C3.38722 63.1756 3.28052 63.1045 3.15605 63.0601C3.03157 63.0156 2.88932 62.9978 2.72928 63.0245C2.56924 63.0512 2.43588 63.0956 2.32919 63.1756C2.22249 63.2557 2.15136 63.3535 2.10691 63.4691C2.06245 63.5847 2.04467 63.7092 2.07135 63.8425C2.08913 63.9759 2.14247 64.0915 2.2136 64.1893C2.28473 64.2871 2.39142 64.3582 2.5159 64.4116C2.64037 64.4561 2.78263 64.4738 2.94266 64.4472C3.1027 64.4205 3.23607 64.376 3.34276 64.296C3.44945 64.216 3.52947 64.1182 3.57393 64.0026C3.61838 63.887 3.63616 63.7625 3.60949 63.6291H3.6006Z" fill="#F1F1F1"/>
<path d="M4.92545 60.2771C4.94323 60.5438 4.92545 60.8017 4.88989 61.0506C4.84543 61.2996 4.76541 61.513 4.64983 61.6908L4.03635 61.4152C4.12526 61.2818 4.19639 61.1307 4.24084 60.9439C4.2853 60.7572 4.29419 60.5794 4.2853 60.3926C4.25863 60.1081 4.17861 59.9036 4.04524 59.7791C3.90299 59.6546 3.70738 59.6102 3.45844 59.628L3.04056 59.6635H2.32928L1.618 59.7436L1.01341 59.788L0.951172 59.0144L3.28951 58.8277C3.80518 58.7832 4.20528 58.8899 4.47201 59.1389C4.73874 59.3879 4.89878 59.7702 4.94323 60.2771H4.92545ZM3.74295 60.4993C3.76073 60.7572 3.72517 60.9884 3.62736 61.2107C3.52956 61.433 3.38731 61.6108 3.1917 61.7531C2.9961 61.8953 2.76494 61.9754 2.48932 62.002C2.21369 62.0287 1.97364 61.9843 1.75136 61.8687C1.53798 61.762 1.36905 61.6019 1.23568 61.3974C1.11121 61.1929 1.03119 60.9617 1.01341 60.7127C0.995627 60.4727 1.0223 60.2504 1.10232 60.0637C1.18234 59.8769 1.32459 59.7258 1.51131 59.6102C1.69802 59.4946 1.95586 59.4235 2.26704 59.3968C2.57823 59.3701 2.83606 59.3968 3.04056 59.4857C3.24505 59.5746 3.40509 59.6991 3.52067 59.868C3.63626 60.037 3.69849 60.2504 3.71627 60.4905L3.74295 60.4993ZM3.06723 60.3838C3.05834 60.2415 3.01389 60.117 2.95165 60.0103C2.88052 59.9036 2.79161 59.8236 2.68492 59.7702C2.57823 59.7169 2.45375 59.6902 2.32039 59.708C2.17813 59.7169 2.06255 59.7613 1.96475 59.8325C1.86695 59.9036 1.79582 60.0014 1.75136 60.117C1.70691 60.2326 1.68913 60.366 1.69802 60.5082C1.70691 60.6505 1.75136 60.775 1.8136 60.8817C1.87584 60.9884 1.96475 61.0684 2.07144 61.1307C2.17813 61.184 2.3026 61.2107 2.44486 61.2018C2.57823 61.1929 2.7027 61.1484 2.8005 61.0773C2.8983 61.0062 2.97832 60.9084 3.02278 60.7928C3.07612 60.6772 3.0939 60.5438 3.08501 60.4104L3.06723 60.3838Z" fill="#F1F1F1"/>
<path d="M0.835551 56.5602C0.835551 56.3379 0.871115 56.1334 0.960025 55.9556C1.04894 55.7777 1.1823 55.6355 1.36012 55.5288C1.54683 55.4221 1.778 55.3687 2.06251 55.3687L3.67178 55.342V56.1601L2.19588 56.1868C1.9736 56.1868 1.80467 56.2401 1.69798 56.3468C1.59129 56.4446 1.53794 56.5869 1.53794 56.7736C1.53794 56.907 1.5735 57.0226 1.62685 57.1204C1.68909 57.2271 1.76911 57.2982 1.8758 57.3605C1.98249 57.4138 2.13364 57.4405 2.31146 57.4405L3.70735 57.4138V58.2318L0.897788 58.2763V57.4938H1.66241L1.43125 57.6361C1.24454 57.5383 1.09339 57.396 0.986698 57.2093C0.880006 57.0226 0.82666 56.8092 0.82666 56.5691L0.835551 56.5602Z" fill="#F1F1F1"/>
<path d="M3.79654 53.4745C3.77876 53.768 3.70763 54.0347 3.57427 54.257C3.4409 54.4793 3.25419 54.6571 3.03192 54.7816C2.80964 54.9061 2.5518 54.9595 2.27618 54.9417C1.99167 54.9328 1.74272 54.8528 1.53823 54.7105C1.33373 54.5682 1.1648 54.3726 1.04922 54.1414C0.933638 53.9102 0.889183 53.6346 0.898074 53.3412C0.915856 53.0389 0.986984 52.781 1.12035 52.5498C1.25371 52.3186 1.43153 52.1497 1.6627 52.0252C1.88498 51.9007 2.14281 51.8474 2.42733 51.8652C2.71184 51.874 2.9519 51.9541 3.16528 52.0963C3.37866 52.2386 3.5387 52.4342 3.65429 52.6743C3.76987 52.9144 3.81432 53.1811 3.80543 53.4834L3.79654 53.4745ZM3.12972 53.439C3.12972 53.2967 3.11193 53.1722 3.05859 53.0655C3.00524 52.9588 2.91633 52.8699 2.80075 52.7988C2.68517 52.7276 2.54291 52.6921 2.38287 52.6832C2.22283 52.6832 2.08058 52.701 1.9561 52.7632C1.83163 52.8255 1.74272 52.9055 1.68048 53.0033C1.61825 53.1011 1.57379 53.2256 1.57379 53.359C1.57379 53.4923 1.59157 53.6168 1.64492 53.7324C1.69826 53.8391 1.78717 53.9369 1.89387 54.0081C2.00945 54.0792 2.14281 54.1148 2.31174 54.1236C2.47178 54.1236 2.61404 54.1059 2.73851 54.0436C2.86299 53.9814 2.9519 53.9014 3.02302 53.7947C3.08526 53.688 3.12972 53.5724 3.12972 53.439Z" fill="#F1F1F1"/>
<path d="M3.86759 51.5897L0 51.2341L0.071128 50.416L3.93872 50.7717L3.86759 51.5897Z" fill="#F1F1F1"/>
<path d="M4.22336 48.4954L3.68101 48.4243L3.55654 48.4599L2.57853 48.3265C2.4096 48.2998 2.26734 48.3354 2.15176 48.4332C2.04507 48.5221 1.97394 48.6822 1.93838 48.8956C1.92059 49.0467 1.92059 49.1979 1.94727 49.3401C1.97394 49.4913 2.01839 49.6247 2.08952 49.7403L1.48493 49.9537C1.39602 49.7847 1.33379 49.5891 1.30711 49.3668C1.28044 49.1445 1.28044 48.9222 1.30711 48.6999C1.36046 48.2731 1.51161 47.9619 1.74277 47.7485C1.97394 47.544 2.30291 47.464 2.72968 47.5262L4.32117 47.7396L4.22336 48.4954ZM4.15224 49.349C4.12556 49.5624 4.06333 49.7403 3.96553 49.8914C3.86772 50.0426 3.75214 50.1404 3.60988 50.2115C3.46763 50.2827 3.31648 50.3004 3.16533 50.2827C3.0053 50.256 2.86304 50.2026 2.74746 50.1048C2.63187 50.007 2.55186 49.8647 2.5074 49.678C2.46294 49.4913 2.45405 49.2601 2.49851 48.9667L2.59631 48.2287L3.06753 48.2909L2.97862 48.9489C2.95195 49.1356 2.96973 49.2779 3.02308 49.3579C3.07642 49.4379 3.14755 49.4824 3.24535 49.5002C3.35205 49.518 3.44096 49.4824 3.51208 49.4113C3.58321 49.3401 3.62767 49.2334 3.64545 49.0912C3.66323 48.9489 3.64545 48.8244 3.60099 48.7088C3.55654 48.5932 3.46763 48.5043 3.34315 48.4421L3.74325 48.3709C3.91218 48.451 4.02776 48.5754 4.09889 48.7444C4.17002 48.9133 4.19669 49.1178 4.16113 49.3668L4.15224 49.349Z" fill="#F1F1F1"/>
<path d="M3.98303 45.2323C3.95636 45.3479 3.9119 45.4546 3.83188 45.5347C3.76075 45.6147 3.66295 45.6769 3.55626 45.7214C3.44957 45.757 3.32509 45.7658 3.20062 45.7392C3.07615 45.7125 2.96945 45.6591 2.88054 45.588C2.80053 45.508 2.73829 45.4191 2.70272 45.3124C2.66716 45.2057 2.65827 45.0901 2.68494 44.9745C2.71162 44.8589 2.75607 44.7611 2.83609 44.6722C2.91611 44.5833 3.00502 44.521 3.11171 44.4854C3.2184 44.4499 3.33399 44.441 3.46735 44.4677C3.60072 44.4943 3.69852 44.5477 3.78743 44.6277C3.87634 44.7077 3.93857 44.7967 3.97414 44.9122C4.0097 45.0189 4.01859 45.1345 3.99192 45.2501L3.98303 45.2323Z" fill="#F1F1F1"/>
<path d="M5.80566 41.4354C5.66341 41.9333 5.40557 42.289 5.04993 42.4846C4.68539 42.6891 4.24974 42.7069 3.72517 42.5558L1.76025 41.9867L2.00031 41.1687L3.94744 41.7288C4.27641 41.8266 4.54314 41.8266 4.72985 41.7288C4.91656 41.631 5.04993 41.4621 5.12105 41.222C5.19218 40.973 5.1744 40.7596 5.06771 40.5818C4.96102 40.404 4.73874 40.2617 4.40088 40.1639L2.45375 39.6037L2.68492 38.8035L4.64983 39.3725C5.16551 39.5237 5.53004 39.7816 5.72564 40.1461C5.92124 40.5107 5.94792 40.9375 5.80566 41.4354Z" fill="#F1F1F1"/>
<path d="M6.25019 39.6836L4.74761 37.4606L5.32552 37.674L2.82715 38.3587L3.15612 37.4606L4.88986 36.9894L4.7565 37.3806L3.72514 35.8957L4.04522 35.0332L5.47667 37.1583L4.90764 36.9449L7.5216 36.2158L7.18374 37.1316L5.35219 37.6118L5.48556 37.2472L6.57915 38.7855L6.24129 39.6925L6.25019 39.6836Z" fill="#F1F1F1"/>
<path d="M7.92207 36.6782L4.07227 33.1393L4.35678 32.4724L8.20658 36.0113L7.92207 36.6782Z" fill="#F1F1F1"/>
<path d="M9.16642 32.8107C8.93526 33.273 8.62407 33.5753 8.23287 33.7087C7.84166 33.8421 7.406 33.7887 6.917 33.5487L5.08545 32.6417L5.46776 31.877L7.28153 32.7751C7.59271 32.9262 7.85055 32.9796 8.04615 32.9174C8.25065 32.8551 8.41069 32.7128 8.51738 32.4817C8.63296 32.2505 8.65074 32.0371 8.57961 31.8415C8.50849 31.6458 8.31288 31.468 8.0017 31.3168L6.18793 30.4188L6.56136 29.6719L8.3929 30.5788C8.88191 30.8189 9.1842 31.139 9.31757 31.5302C9.45093 31.9215 9.39759 32.3483 9.16642 32.8107Z" fill="#F1F1F1"/>
<path d="M10.1802 30.7386L6.98828 28.9425L7.40616 28.1956L10.598 29.9917L10.1802 30.7386Z" fill="#F1F1F1"/>
<path d="M11.5764 28.3112L8.53564 26.2661L9.46031 24.879C9.68258 24.55 9.94042 24.301 10.2338 24.1321C10.5272 23.9631 10.8384 23.8831 11.1585 23.9009C11.4786 23.9187 11.7986 24.0165 12.1009 24.2299C12.4032 24.4433 12.6255 24.6833 12.7589 24.9857C12.8922 25.2791 12.9367 25.5992 12.8922 25.9371C12.8478 26.275 12.7144 26.6039 12.4921 26.9418L11.5675 28.3289L11.5764 28.3112ZM11.4786 27.2175L11.9053 26.5773C12.0387 26.3728 12.1187 26.1683 12.1454 25.9726C12.1721 25.7681 12.1454 25.5814 12.0476 25.4036C11.9587 25.2257 11.8164 25.0746 11.6297 24.9412C11.4341 24.8078 11.2385 24.7367 11.0429 24.7278C10.8473 24.7189 10.6606 24.7545 10.4828 24.8523C10.305 24.9501 10.1449 25.1013 10.0116 25.3058L9.58478 25.946L11.4786 27.2175Z" fill="#F1F1F1"/>
<path d="M14.7504 23.883C14.5548 24.1408 14.3325 24.3187 14.0835 24.4343C13.8346 24.5499 13.5856 24.5854 13.3278 24.5588C13.07 24.5321 12.8388 24.4254 12.6165 24.2564C12.3942 24.0875 12.2342 23.883 12.1453 23.6429C12.0475 23.4117 12.0208 23.1628 12.0653 22.9049C12.1097 22.647 12.2164 22.407 12.3942 22.1847C12.5632 21.9624 12.7677 21.8023 12.9899 21.7045C13.2211 21.5978 13.4612 21.5622 13.7101 21.5978C13.9591 21.6334 14.208 21.7401 14.4481 21.9268C14.4747 21.9446 14.5014 21.9713 14.5281 21.9979C14.5548 22.0246 14.5814 22.0513 14.6081 22.078L13.2033 23.8919L12.8299 23.5984L13.9679 22.1313L13.8879 22.4692C13.7723 22.3803 13.6568 22.318 13.5323 22.3003C13.4078 22.2825 13.2922 22.3003 13.1766 22.3358C13.0611 22.3803 12.9633 22.4603 12.8832 22.567C12.7943 22.6737 12.7499 22.7893 12.7321 22.9138C12.7143 23.0383 12.7321 23.1539 12.7854 23.2695C12.8388 23.385 12.9188 23.4917 13.0433 23.5807L13.1411 23.6607C13.2656 23.7585 13.3989 23.8118 13.5323 23.8296C13.6657 23.8474 13.7901 23.8296 13.9146 23.7674C14.0391 23.7051 14.1547 23.6073 14.2525 23.474C14.3414 23.3584 14.4036 23.2428 14.4392 23.1272C14.4747 23.0116 14.4836 22.8871 14.4658 22.7537L15.106 22.7004C15.1416 22.896 15.1327 23.0916 15.0704 23.2961C15.0082 23.5006 14.9015 23.7051 14.7504 23.9008V23.883Z" fill="#F1F1F1"/>
<path d="M16.4393 21.838C16.2793 22.0159 16.1104 22.1759 15.9237 22.3004C15.737 22.4249 15.568 22.5138 15.4169 22.5583L15.1502 21.9714C15.2924 21.9181 15.4436 21.8469 15.5947 21.7491C15.7459 21.6513 15.8792 21.5357 15.9948 21.4023C16.1193 21.2601 16.1904 21.1445 16.2082 21.0556C16.226 20.9666 16.2082 20.8955 16.1459 20.8422C16.0926 20.7977 16.0393 20.7888 15.977 20.8155C15.9148 20.8422 15.8437 20.8866 15.7636 20.9489C15.6836 21.0111 15.6036 21.0822 15.5058 21.1623C15.408 21.2423 15.3102 21.3223 15.2124 21.3934C15.1057 21.4646 14.999 21.5179 14.8923 21.5624C14.7856 21.598 14.67 21.6157 14.5545 21.5891C14.4389 21.5713 14.3233 21.509 14.1988 21.4023C14.0655 21.2867 13.9765 21.1445 13.941 20.9755C13.9054 20.8066 13.9232 20.6199 13.9854 20.4242C14.0477 20.2286 14.1721 20.0241 14.3589 19.8196C14.4833 19.6685 14.6345 19.5351 14.7945 19.4195C14.9546 19.295 15.1146 19.215 15.2568 19.1616L15.5147 19.7574C15.3724 19.8107 15.2391 19.873 15.1235 19.9619C15.0079 20.0419 14.9101 20.1308 14.8301 20.2286C14.7056 20.3709 14.6345 20.4865 14.6167 20.5843C14.5989 20.6821 14.6167 20.7532 14.6789 20.8066C14.7323 20.851 14.7945 20.8599 14.8656 20.8422C14.9368 20.8155 15.0079 20.771 15.0879 20.7088C15.1679 20.6465 15.2568 20.5665 15.3458 20.4865C15.4436 20.4065 15.5325 20.3264 15.6392 20.2642C15.737 20.1931 15.8437 20.1397 15.9592 20.1041C16.0659 20.0597 16.1815 20.0508 16.2971 20.0775C16.4127 20.1041 16.5283 20.1575 16.6527 20.2642C16.7861 20.3798 16.8661 20.5132 16.8928 20.6821C16.9195 20.851 16.9106 21.0289 16.8394 21.2334C16.7683 21.429 16.6438 21.6424 16.4571 21.8558L16.4393 21.838Z" fill="#F1F1F1"/>
<path d="M15.4079 18.1124C15.3012 18.2279 15.1856 18.2813 15.0612 18.2991C14.9367 18.308 14.8211 18.2724 14.7233 18.1835C14.6255 18.0946 14.5811 17.9879 14.5811 17.8545C14.5811 17.73 14.6344 17.6055 14.7411 17.4899C14.8478 17.3832 14.9545 17.321 15.079 17.3032C15.2034 17.2854 15.3101 17.3299 15.4079 17.4099C15.5057 17.4988 15.5591 17.6144 15.5591 17.7478C15.5591 17.8812 15.5057 17.9968 15.399 18.1124H15.4079ZM17.4795 20.602L15.4168 18.6814L15.9769 18.0857L18.0397 20.0063L17.4795 20.602Z" fill="#F1F1F1"/>
<path d="M19.1778 18.6458C18.9911 18.8236 18.7866 18.9481 18.5554 19.0192C18.3243 19.0904 18.0931 19.0904 17.8619 19.037C17.6308 18.9748 17.4174 18.8503 17.2307 18.6547C17.0351 18.4591 16.9106 18.2457 16.8661 18.0056C16.8128 17.7744 16.8217 17.5432 16.9017 17.312C16.9728 17.0808 17.1062 16.8763 17.284 16.6985C17.4618 16.5296 17.6486 16.414 17.8442 16.3606C18.0398 16.3073 18.2443 16.3162 18.4576 16.3873C18.671 16.4584 18.8844 16.6096 19.1067 16.8319C19.329 17.0542 19.4623 17.2765 19.5334 17.4899C19.6046 17.7033 19.6046 17.9078 19.5423 18.1034C19.4801 18.299 19.3645 18.4857 19.1867 18.6547L19.1778 18.6458ZM18.8311 18.05C18.9377 17.9522 19 17.8366 19.0444 17.7211C19.08 17.5966 19.0889 17.481 19.0622 17.3654C19.0356 17.2498 18.9733 17.1342 18.8755 17.0364C18.7777 16.9386 18.671 16.8674 18.5554 16.8408C18.4399 16.8141 18.3243 16.8141 18.1998 16.8497C18.0842 16.8852 17.9686 16.9564 17.8708 17.0542C17.773 17.152 17.7019 17.2587 17.6574 17.3832C17.613 17.4988 17.6041 17.6232 17.6308 17.7388C17.6574 17.8544 17.7197 17.97 17.8175 18.0678C17.9153 18.1656 18.022 18.2279 18.1376 18.2546C18.2531 18.2812 18.3776 18.2812 18.5021 18.2457C18.6266 18.2101 18.7333 18.139 18.8399 18.0412L18.8311 18.05ZM20.1025 19.4105C19.9158 19.5972 19.7024 19.7484 19.489 19.8817C19.2756 20.0151 19.0533 20.0774 18.8488 20.104L18.671 19.4549C18.8311 19.446 18.9911 19.3927 19.16 19.3127C19.329 19.2326 19.4801 19.1259 19.6135 18.9926C19.818 18.7881 19.9247 18.6013 19.9247 18.4146C19.9247 18.2279 19.8446 18.0412 19.6668 17.8633L19.3734 17.561L18.9111 17.0097L18.3954 16.5029L17.9775 16.0761L18.5288 15.5337L20.1647 17.2142C20.5292 17.5877 20.6982 17.9611 20.6804 18.3257C20.6626 18.6991 20.467 19.0548 20.1025 19.4105Z" fill="#F1F1F1"/>
<path d="M20.3248 13.8977C20.4938 13.7555 20.6716 13.6577 20.8672 13.6043C21.0539 13.5599 21.2495 13.5688 21.4451 13.6399C21.6407 13.711 21.8363 13.8622 22.023 14.0756L23.0722 15.3026L22.4498 15.8361L21.4807 14.7069C21.3295 14.538 21.1873 14.4401 21.0361 14.4224C20.885 14.4046 20.7516 14.4579 20.6094 14.5735C20.5116 14.6535 20.4404 14.7514 20.396 14.8669C20.3515 14.9825 20.3426 15.0892 20.3693 15.2137C20.396 15.3293 20.4671 15.4627 20.5827 15.5961L21.4896 16.6542L20.8672 17.1877L19.0356 15.0448L19.6313 14.538L20.1381 15.1337L19.8714 15.0537C19.8269 14.8403 19.8447 14.6447 19.9159 14.4401C19.987 14.2356 20.1203 14.0578 20.3071 13.9066L20.3248 13.8977Z" fill="#F1F1F1"/>
<path d="M24.6545 14.1645C24.3967 14.3602 24.1388 14.4757 23.8721 14.5202C23.6054 14.5647 23.3475 14.538 23.1164 14.4491C22.8763 14.3513 22.6718 14.1912 22.5118 13.9689C22.3429 13.7466 22.2451 13.5066 22.2095 13.2576C22.1739 13.0086 22.2095 12.7596 22.3251 12.5196C22.4318 12.2795 22.6007 12.075 22.8319 11.906C23.0541 11.7371 23.2853 11.6393 23.5342 11.5948C23.7832 11.5593 24.0233 11.5859 24.2544 11.6749C24.4856 11.7727 24.699 11.9416 24.8768 12.1817C24.8946 12.2084 24.9124 12.235 24.939 12.2706C24.9568 12.3062 24.9835 12.3328 25.0013 12.3684L23.1697 13.7466L22.8852 13.3643L24.37 12.2439L24.2011 12.5462C24.1122 12.4307 24.0144 12.3417 23.9077 12.2884C23.7921 12.235 23.6765 12.2173 23.5609 12.235C23.4364 12.2528 23.3209 12.2973 23.2142 12.3862C23.1075 12.4662 23.0275 12.5729 22.9741 12.6796C22.9297 12.7952 22.9119 12.9108 22.9297 13.0353C22.9474 13.1598 23.0008 13.2843 23.0897 13.3998L23.1697 13.4977C23.2675 13.6221 23.3742 13.7111 23.4987 13.7644C23.6232 13.8178 23.7565 13.8267 23.8899 13.8C24.0233 13.7733 24.1566 13.7111 24.2989 13.6044C24.4145 13.5154 24.5034 13.4176 24.5656 13.3109C24.6278 13.2042 24.6723 13.0886 24.6901 12.9642L25.3213 13.0797C25.3036 13.2754 25.2413 13.4621 25.1346 13.6399C25.0279 13.8178 24.8679 13.9867 24.6634 14.1379L24.6545 14.1645Z" fill="#F1F1F1"/>
<path d="M26.0064 13.124L24.4238 10.7944L25.0729 10.3587L25.5263 11.0256L25.304 10.8922C25.2596 10.6788 25.2863 10.4832 25.3841 10.2876C25.4819 10.1009 25.633 9.93192 25.8553 9.78076L26.282 10.4121C26.282 10.4121 26.2198 10.4387 26.202 10.4476C26.1754 10.4654 26.1487 10.4743 26.1309 10.4921C25.9442 10.6255 25.8286 10.7766 25.7842 10.9634C25.7397 11.1501 25.8019 11.3457 25.9531 11.568L26.6999 12.6706L26.0242 13.1329L26.0064 13.124Z" fill="#F1F1F1"/>
<path d="M28.8869 10.3056C28.7802 10.3678 28.6735 10.4034 28.5579 10.4034C28.4424 10.4034 28.3357 10.3767 28.2379 10.3233C28.1312 10.27 28.0512 10.1811 27.9889 10.0744C27.9267 9.96768 27.8911 9.85209 27.8911 9.7365C27.8911 9.6209 27.9178 9.5142 27.9711 9.4164C28.0245 9.31859 28.1045 9.23856 28.2112 9.17632C28.309 9.11408 28.4246 9.0874 28.5402 9.0874C28.6557 9.0874 28.7624 9.11408 28.8602 9.16743C28.958 9.22078 29.0469 9.3008 29.1092 9.4164C29.1714 9.53199 29.207 9.63869 29.207 9.75428C29.207 9.86987 29.1803 9.97657 29.127 10.0833C29.0736 10.1811 28.9936 10.2611 28.8869 10.3233V10.3056Z" fill="#F1F1F1"/>
<g clip-path="url(#clip1_19_80)">
<path d="M55.2556 83.1435C55.0318 83.1435 54.584 83.1139 54.2109 82.8621C46.0624 77.455 40.7643 71.6035 37.5109 64.4779C35.0036 58.9672 34.4813 53.5304 35.9737 48.3307C37.5258 42.8348 40.8986 39.3979 45.9878 38.1239C47.1369 37.8277 48.2861 37.6943 49.4054 37.6943C52.823 37.6943 56.0914 39.0424 59.0911 41.7089C59.9119 42.4348 60.6432 43.2496 61.3446 44.0495C61.5386 44.2717 61.7327 44.4939 61.9267 44.7013C62.2401 44.5532 62.5535 44.3902 62.8669 44.2273C63.8967 43.7088 64.9712 43.1607 66.0905 42.7607C68.0157 42.0793 69.8812 41.7385 71.6422 41.7385C74.6868 41.7385 77.4925 42.7459 79.9848 44.731C83.6263 47.6345 85.3127 51.6935 84.9844 56.7747C84.656 62.0633 82.4473 66.8186 78.2387 71.2775C74.3286 75.4403 69.2544 78.6105 62.7624 80.9807C60.9865 81.6325 59.1359 82.1362 57.345 82.625L55.778 83.0546C55.6138 83.0991 55.4198 83.1287 55.2258 83.1287L55.2556 83.1435Z" fill="#D5ACC4" fill-opacity="0.5"/>
<path d="M49.4203 38.3759C52.8379 38.3759 55.9123 39.798 58.6434 42.2127C59.7925 43.2201 60.7626 44.4348 61.7923 45.5459C63.3146 44.8348 64.7772 43.9756 66.3591 43.4127C68.1649 42.7757 69.9558 42.4349 71.687 42.4349C74.4629 42.4349 77.1343 43.309 79.5968 45.2792C83.2532 48.1976 84.6262 52.1825 84.3426 56.7304C83.9994 62.2412 81.522 66.8335 77.791 70.8036C73.5674 75.2923 68.3291 78.2402 62.5833 80.329C60.3149 81.1586 57.9718 81.7363 55.6436 82.403C55.5391 82.4326 55.4048 82.4474 55.2854 82.4474C55.0467 82.4474 54.8079 82.3881 54.6288 82.2844C47.6145 77.6329 41.7045 71.9591 38.1824 64.1966C35.8991 59.1599 35.1379 53.9157 36.6751 48.5235C38.0631 43.62 41.0777 40.0795 46.1818 38.8055C47.3011 38.524 48.3756 38.3907 49.4352 38.3907M49.4352 36.9982C48.2562 36.9982 47.0473 37.1464 45.8385 37.4574C40.5703 38.7907 36.9288 42.4794 35.317 48.1531C33.7948 53.5306 34.3171 59.1154 36.899 64.7744C40.1524 71.9295 45.6893 78.0328 53.8378 83.4547C54.3601 83.7955 54.9571 83.8547 55.2705 83.8547C55.5391 83.8547 55.7779 83.8251 56.0167 83.751C56.5391 83.6029 57.0614 83.4547 57.5837 83.3214C59.3896 82.8326 61.2401 82.3141 63.046 81.6623C69.6424 79.2624 74.7912 76.033 78.7909 71.7814C83.1039 67.189 85.3724 62.3004 85.7156 56.8489C86.044 51.5159 84.2829 47.2791 80.4474 44.2126C77.8357 42.1238 74.8808 41.0572 71.6721 41.0572C69.8215 41.0572 67.8814 41.4128 65.8815 42.109C64.7175 42.5238 63.628 43.0719 62.5684 43.6052C62.4191 43.6793 62.2699 43.7534 62.1207 43.8274L61.8819 43.5608C61.1655 42.7608 60.4193 41.9164 59.5686 41.1757C56.4346 38.3907 53.017 36.9834 49.4054 36.9834L49.4352 36.9982Z" fill="#7D3E90"/>
<path d="M51.5242 79.4403C51.3003 79.4403 50.8526 79.4107 50.4944 79.1589C42.3459 73.7369 37.0329 67.9003 33.7944 60.7747C31.2871 55.264 30.7648 49.8272 32.2423 44.6275C33.8093 39.1316 37.1672 35.6947 42.2563 34.4059C43.4055 34.1096 44.5547 33.9763 45.674 33.9763C49.0916 33.9763 52.3599 35.3244 55.3597 37.9909C56.1805 38.7168 56.9118 39.5315 57.6132 40.3167C57.8072 40.5389 58.0012 40.7611 58.2102 40.9833C58.5236 40.8352 58.837 40.6722 59.1355 40.5093C60.1652 39.9908 61.2398 39.4427 62.374 39.0427C64.2992 38.3612 66.1647 38.0205 67.9258 38.0205C70.9703 38.0205 73.776 39.0279 76.2683 41.0129C79.9098 43.9165 81.5962 47.9755 81.2679 53.0567C80.9395 58.3453 78.7308 63.1005 74.5222 67.5595C70.6121 71.7223 65.5528 74.8924 59.0459 77.2627C57.27 77.9145 55.4194 78.4182 53.6285 78.907L52.0615 79.3366C51.8973 79.3811 51.7033 79.4107 51.5093 79.4107L51.5242 79.4403Z" fill="#D5ACC4" fill-opacity="0.5"/>
<path d="M45.6742 34.6725C49.0918 34.6725 52.1662 36.0947 54.8973 38.5094C56.0464 39.5167 57.0165 40.7314 58.0462 41.8425C59.5685 41.1166 61.0311 40.2722 62.613 39.7093C64.4188 39.0723 66.2097 38.7316 67.9409 38.7316C70.7168 38.7316 73.3882 39.6056 75.8507 41.5758C79.5071 44.4942 80.8801 48.4791 80.5965 53.027C80.2533 58.5378 77.7759 63.1301 74.0449 67.1003C69.8213 71.5889 64.583 74.5369 58.8372 76.6256C56.5688 77.4552 54.2257 78.033 51.8975 78.6996C51.7931 78.7292 51.6587 78.744 51.5393 78.744C51.3006 78.744 51.0618 78.6848 50.8827 78.5811C43.8684 73.9295 37.9584 68.2558 34.4364 60.4933C32.138 55.4565 31.3918 50.1976 32.9141 44.8053C34.302 39.9019 37.3167 36.3613 42.4207 35.0873C43.54 34.8059 44.6146 34.6725 45.6742 34.6725ZM45.6742 33.28C44.4952 33.28 43.2863 33.4282 42.0775 33.7393C36.8093 35.0577 33.1827 38.7612 31.5709 44.4349C30.0487 49.8124 30.571 55.3973 33.1529 61.0562C36.4063 68.2113 41.9432 74.3147 50.0917 79.7366C50.6141 80.0773 51.211 80.1365 51.5244 80.1365C51.7931 80.1365 52.0318 80.1069 52.2706 80.0328C52.793 79.8847 53.3153 79.7366 53.8377 79.6032C55.6435 79.1144 57.509 78.5959 59.3148 77.9293C65.9112 75.5294 71.06 72.3 75.0597 68.0484C79.3727 63.456 81.6412 58.5674 81.9845 53.1159C82.3128 47.7829 80.5518 43.5461 76.7163 40.4796C74.1045 38.3908 71.1496 37.3242 67.9409 37.3242C66.0903 37.3242 64.1502 37.6798 62.1504 38.376C60.9863 38.7908 59.8968 39.3389 58.8372 39.8722C58.688 39.9463 58.5387 40.0204 58.3895 40.0944C58.3149 40.0056 58.2403 39.9167 58.1507 39.8278C57.4344 39.0278 56.6882 38.1834 55.8375 37.4427C52.6885 34.6874 49.2858 33.28 45.6742 33.28V33.28Z" fill="#7D3E90"/>
<path d="M61.1509 48.2629L40.5645 52.2942L40.836 53.6604L61.4224 49.629L61.1509 48.2629Z" fill="#7D3E90"/>
<path d="M61.648 54.7907L48.4761 57.4746L48.7582 58.8387L61.9301 56.1548L61.648 54.7907Z" fill="#7D3E90"/>
<path d="M65.1921 60.3345L48.3164 63.6726L48.5906 65.0383L65.4662 61.7002L65.1921 60.3345Z" fill="#7D3E90"/>
<path d="M49.4203 38.3759C52.8379 38.3759 55.9123 39.798 58.6434 42.2127C59.7925 43.2201 60.7626 44.4348 61.7923 45.5459C63.3146 44.8348 64.7772 43.9756 66.3591 43.4127C68.1649 42.7757 69.9558 42.4349 71.687 42.4349C74.4629 42.4349 77.1343 43.309 79.5968 45.2792C83.2532 48.1976 84.6262 52.1825 84.3426 56.7304C83.9994 62.2412 81.522 66.8335 77.791 70.8036C73.5674 75.2923 68.3291 78.2402 62.5833 80.329C60.3149 81.1586 57.9718 81.7363 55.6436 82.403C55.5391 82.4326 55.4048 82.4474 55.2854 82.4474C55.0467 82.4474 54.8079 82.3881 54.6288 82.2844C47.6145 77.6329 41.7045 71.9591 38.1824 64.1966C35.8991 59.1599 35.1379 53.9157 36.6751 48.5235C38.0631 43.62 41.0777 40.0795 46.1818 38.8055C47.3011 38.524 48.3756 38.3907 49.4352 38.3907M49.4352 36.9982C48.2562 36.9982 47.0473 37.1464 45.8385 37.4574C40.5703 38.7907 36.9288 42.4794 35.317 48.1531C33.7948 53.5306 34.3171 59.1154 36.899 64.7744C40.1524 71.9295 45.6893 78.0328 53.8378 83.4547C54.3601 83.7955 54.9571 83.8547 55.2705 83.8547C55.5391 83.8547 55.7779 83.8251 56.0167 83.751C56.5391 83.6029 57.0614 83.4547 57.5837 83.3214C59.3896 82.8326 61.2401 82.3141 63.046 81.6623C69.6424 79.2624 74.7912 76.033 78.7909 71.7814C83.1039 67.189 85.3724 62.3004 85.7156 56.8489C86.044 51.5159 84.2829 47.2791 80.4474 44.2126C77.8357 42.1238 74.8808 41.0572 71.6721 41.0572C69.8215 41.0572 67.8814 41.4128 65.8815 42.109C64.7175 42.5238 63.628 43.0719 62.5684 43.6052C62.4191 43.6793 62.2699 43.7534 62.1207 43.8274L61.8819 43.5608C61.1655 42.7608 60.4193 41.9164 59.5686 41.1757C56.4346 38.3907 53.017 36.9834 49.4054 36.9834L49.4352 36.9982Z" fill="#7D3E90"/>
</g>
</g>
<defs>
<clipPath id="clip0_19_80">
<rect width="112" height="112" fill="white"/>
</clipPath>
<clipPath id="clip1_19_80">
<rect width="55.04" height="50.56" fill="white" transform="translate(30.7202 33.28)"/>
</clipPath>
</defs>
</svg>
