<svg width="81" height="81" viewBox="0 0 81 81" fill="none" xmlns="http://www.w3.org/2000/svg">
<rect x="0.5" y="0.5" width="80" height="80" rx="40" fill="#451841"/>
<path d="M57.6429 38.431H56.2143V28.7759C56.2143 27.2586 54.9286 26.0172 53.3571 26.0172H44.7857V28.7759H53.3571V38.431H51.9286C50.3571 38.431 49.0714 39.6724 49.0714 41.1897V53.6034H31.7857C31.2143 51.6724 29.6429 50.1552 27.6429 49.6034V28.7759H36.5L32.7857 32.3621L34.7857 34.2931L41.9286 27.3966L34.7857 20.5L32.7857 22.431L36.5 26.0172H27.6429C26.0714 26.0172 24.7857 27.2586 24.7857 28.7759V49.6034C22.3571 50.1552 20.5 52.3621 20.5 54.9828C20.5 58.0172 23.0714 60.5 26.2143 60.5C28.9286 60.5 31.0714 58.7069 31.7857 56.3621H49.0714V57.7414C49.0714 59.2586 50.3571 60.5 51.9286 60.5H57.6429C59.2143 60.5 60.5 59.2586 60.5 57.7414V41.1897C60.5 39.6724 59.2143 38.431 57.6429 38.431ZM26.2143 57.7414C24.6429 57.7414 23.3571 56.5 23.3571 54.9828C23.3571 53.4655 24.6429 52.2241 26.2143 52.2241C27.7857 52.2241 29.0714 53.4655 29.0714 54.9828C29.0714 56.5 27.7857 57.7414 26.2143 57.7414ZM51.9286 57.7414V41.1897H57.6429V57.7414H51.9286Z" fill="white"/>
</svg>
