<svg width="80" height="81" viewBox="0 0 80 81" fill="none" xmlns="http://www.w3.org/2000/svg">
<rect y="0.5" width="80" height="80" rx="40" fill="#451841"/>
<path d="M38.4849 20.6C38.8207 20.5667 39.1566 20.5413 39.4924 20.524C39.8283 20.508 40.1642 20.5 40.5 20.5C40.8694 20.5 41.2134 20.508 41.5317 20.524C41.8515 20.5413 42.1793 20.5667 42.5151 20.6V24.6C42.1793 24.5333 41.8515 24.5 41.5317 24.5H39.4683C39.1485 24.5 38.8207 24.5333 38.4849 24.6V20.6ZM30.0214 23.4C30.5924 23.0333 31.1714 22.7167 31.7584 22.45C32.3469 22.1833 32.9601 21.9333 33.5982 21.7L35.3615 25.3C34.6898 25.5 34.0604 25.7413 33.4733 26.024C32.8849 26.308 32.3052 26.6333 31.7343 27L30.0214 23.4ZM49.2657 27C48.6948 26.6333 48.1158 26.308 47.5287 26.024C46.9403 25.7413 46.3102 25.5 45.6385 25.3L47.4018 21.7C48.0399 21.9333 48.6532 22.1833 49.2416 22.45C49.8286 22.7167 50.4076 23.0333 50.9786 23.4L49.2657 27ZM54.2532 32.05C53.8837 31.4833 53.4807 30.9413 53.0441 30.424C52.6075 29.908 52.1541 29.4167 51.6839 28.95L54.8577 26.45C55.3279 26.9167 55.7813 27.408 56.2179 27.924C56.6545 28.4413 57.0575 28.9833 57.427 29.55L54.2532 32.05ZM23.5227 29.65C23.8921 29.0833 24.2871 28.5413 24.7076 28.024C25.1267 27.508 25.5714 27.0167 26.0416 26.55L29.2154 29.05C28.7452 29.5167 28.3005 30.008 27.8814 30.524C27.4609 31.0413 27.0659 31.5833 26.6965 32.15L23.5227 29.65ZM20.5 37.9C20.5672 37.2333 20.6847 36.5747 20.8526 35.924C21.0206 35.2747 21.2053 34.6333 21.4068 34L25.3867 34.9C25.1516 35.5333 24.9588 36.1747 24.8083 36.824C24.6565 37.4747 24.547 38.1333 24.4798 38.8L20.5 37.9ZM56.5705 38.95C56.5034 38.2833 56.3939 37.6167 56.2421 36.95C56.0916 36.2833 55.8988 35.6333 55.6637 35L59.5932 34.1C59.7947 34.7333 59.9794 35.3747 60.1474 36.024C60.3153 36.6747 60.4328 37.3333 60.5 38L56.5705 38.95ZM55.6637 46C55.8988 45.3667 56.0835 44.7333 56.2179 44.1C56.3522 43.4667 56.453 42.8167 56.5202 42.15L60.5 43.05C60.4328 43.7167 60.3153 44.3747 60.1474 45.024C59.9794 45.6747 59.7947 46.3167 59.5932 46.95L55.6637 46ZM24.4798 42.2C24.547 42.8667 24.6565 43.5247 24.8083 44.174C24.9588 44.8247 25.1516 45.4667 25.3867 46.1L21.4068 47C21.2053 46.3667 21.0206 45.7247 20.8526 45.074C20.6847 44.4247 20.5672 43.7667 20.5 43.1L24.4798 42.2ZM51.835 51.9C52.3052 51.4333 52.7418 50.9413 53.1448 50.424C53.5479 49.908 53.9341 49.3667 54.3035 48.8L57.5277 51.3C57.1583 51.8667 56.764 52.408 56.3448 52.924C55.9244 53.4413 55.479 53.9333 55.0088 54.4L51.835 51.9ZM26.0919 54.5C25.6217 54.0333 25.1771 53.5333 24.7579 53C24.3374 52.4667 23.9425 51.9167 23.573 51.35L26.6965 48.85C27.0659 49.4167 27.4609 49.9667 27.8814 50.5C28.3005 51.0333 28.7452 51.5333 29.2154 52L26.0919 54.5ZM45.6889 55.65C46.3606 55.4167 46.982 55.1667 47.5529 54.9C48.1238 54.6333 48.6948 54.3167 49.2657 53.95L51.029 57.55C50.458 57.9167 49.879 58.242 49.2919 58.526C48.7035 58.8087 48.0903 59.0667 47.4521 59.3L45.6889 55.65ZM33.6486 59.35C33.0105 59.1167 32.3892 58.8587 31.7846 58.576C31.1801 58.292 30.5924 57.9667 30.0214 57.6L31.7846 54C32.3556 54.3667 32.9346 54.6913 33.5217 54.974C34.1101 55.258 34.7401 55.5 35.4118 55.7L33.6486 59.35ZM40.5 60.5C40.1642 60.5 39.8283 60.492 39.4924 60.476C39.1566 60.4587 38.8207 60.4333 38.4849 60.4V56.4C38.9215 56.4667 39.5932 56.5 40.5 56.5H41.5317C41.8515 56.5 42.1793 56.4667 42.5151 56.4V60.4C42.1793 60.4333 41.8515 60.4587 41.5317 60.476C41.2134 60.492 40.8694 60.5 40.5 60.5ZM42.5151 52.5C41.2389 52.5 40.0721 52.1167 39.0149 51.35C37.9563 50.5833 37.2087 49.6 36.772 48.4C36.6713 48.1 36.5625 47.808 36.4456 47.524C36.3274 47.2413 36.1507 46.9833 35.9156 46.75L33.1448 44C32.2716 43.1333 31.5999 42.1413 31.1297 41.024C30.6595 39.908 30.4244 38.7333 30.4244 37.5C30.4244 35 31.3057 32.8747 33.0683 31.124C34.8322 29.3747 36.9736 28.5 39.4924 28.5C41.8098 28.5 43.8249 29.258 45.5378 30.774C47.2506 32.2913 48.2414 34.2 48.5101 36.5H44.4295C44.1944 35.3333 43.6154 34.3747 42.6924 33.624C41.7682 32.8747 40.7015 32.5 39.4924 32.5C38.0819 32.5 36.8896 32.9833 35.9156 33.95C34.9416 34.9167 34.4547 36.1 34.4547 37.5C34.4547 38.1667 34.589 38.8253 34.8577 39.476C35.1264 40.1253 35.5126 40.7 36.0164 41.2L38.7368 43.9C39.207 44.3667 39.5851 44.8747 39.8713 45.424C40.1561 45.9747 40.3992 46.5333 40.6008 47.1C40.7687 47.5333 41.0206 47.8747 41.3564 48.124C41.6923 48.3747 42.0785 48.5 42.5151 48.5C43.0861 48.5 43.565 48.308 43.9519 47.924C44.3375 47.5413 44.5302 47.0667 44.5302 46.5H48.5605C48.5605 48.1667 47.9808 49.5833 46.8214 50.75C45.6634 51.9167 44.228 52.5 42.5151 52.5ZM43.5227 44.5C42.683 44.5 41.9697 44.208 41.3826 43.624C40.7942 43.0413 40.5 42.3333 40.5 41.5C40.5 40.6333 40.7942 39.9167 41.3826 39.35C41.9697 38.7833 42.683 38.5 43.5227 38.5C44.3959 38.5 45.118 38.7833 45.6889 39.35C46.2599 39.9167 46.5453 40.6333 46.5453 41.5C46.5453 42.3333 46.2599 43.0413 45.6889 43.624C45.118 44.208 44.3959 44.5 43.5227 44.5Z" fill="white"/>
</svg>
