<svg width="66" height="66" viewBox="0 0 66 66" fill="none" xmlns="http://www.w3.org/2000/svg">
<g clip-path="url(#clip0_708_1973)">
<path d="M29.5047 65.6923C30.8019 42.4977 27.7239 36.5837 13.0157 34.0554C9.67395 33.4838 5.60666 33.066 0.154297 32.7582L0.198268 31.1093L0.286209 29.4824H0.352165C12.9278 30.2079 21.6779 29.7902 26.4048 25.569C31.1316 21.3479 32.5387 12.7076 33.2422 0.131996V0.06604L36.5181 0.241923L33.2642 0.131996L36.5181 0.307879C35.2209 23.4365 38.2989 29.3505 53.051 31.9008C56.3928 32.4724 60.4821 32.8902 65.9344 33.198L65.7366 36.4738C53.139 35.7482 44.3668 36.144 39.64 40.3652C34.8911 44.5864 33.5061 53.2486 32.8025 65.8682L29.5267 65.6923H29.5047Z" fill="#FDE206"/>
<path d="M34.8688 0.219853C33.5716 23.1945 36.2978 30.6696 52.7648 33.5276C56.4144 34.1652 60.7235 34.561 65.8241 34.8468C37.7049 33.2418 32.7362 37.6389 31.1532 65.8021C32.4504 42.7835 29.7242 35.2865 13.3011 32.4504C9.65157 31.8128 5.34244 31.4171 0.263824 31.1312C28.3171 32.7142 33.2858 28.2732 34.8688 0.219853ZM38.1446 0.395736H37.8588L34.8688 0.153897L31.5929 0L37.2212 0.351765L31.5929 0.0439707C30.7795 14.4004 29.0866 20.974 25.3051 24.3598C21.5237 27.7235 14.7961 28.6909 0.439707 27.8554H0.373751L0 34.4071L0.417722 28.2072L0.065956 34.4071C5.45236 34.7149 9.47568 35.1106 12.7295 35.6822C26.5803 38.0786 29.1306 43.1133 27.8774 65.6263L34.429 66C35.2425 51.5996 36.9574 45.004 40.7169 41.6183C44.4983 38.2545 51.2478 37.3091 65.6263 38.1226L65.8241 34.8468L66.022 31.571C60.6356 31.2632 56.6123 30.8674 53.3364 30.2958C39.4417 27.8994 36.8914 22.8648 38.1666 0.417722L38.1446 0.395736Z" fill="#010101"/>
</g>
<defs>
<clipPath id="clip0_708_1973">
<rect width="66" height="65.978" fill="white"/>
</clipPath>
</defs>
</svg>
