<svg width="27" height="27" viewBox="0 0 27 27" fill="none" xmlns="http://www.w3.org/2000/svg">
<path d="M22.1667 0.435547C23.3159 0.435547 24.4181 0.892093 25.2308 1.70475C26.0435 2.51741 26.5 3.61961 26.5 4.76888V22.1022C26.5 23.2515 26.0435 24.3537 25.2308 25.1663C24.4181 25.979 23.3159 26.4355 22.1667 26.4355H4.83333C3.68406 26.4355 2.58186 25.979 1.7692 25.1663C0.956546 24.3537 0.5 23.2515 0.5 22.1022V4.76888C0.5 3.61961 0.956546 2.51741 1.7692 1.70475C2.58186 0.892093 3.68406 0.435547 4.83333 0.435547H22.1667ZM22.1667 3.32444H4.83333C4.45024 3.32444 4.08284 3.47662 3.81196 3.7475C3.54107 4.01839 3.38889 4.38579 3.38889 4.76888V22.1022C3.38889 22.4853 3.54107 22.8527 3.81196 23.1236C4.08284 23.3945 4.45024 23.5467 4.83333 23.5467H22.1667C22.5498 23.5467 22.9172 23.3945 23.188 23.1236C23.4589 22.8527 23.6111 22.4853 23.6111 22.1022V4.76888C23.6111 4.38579 23.4589 4.01839 23.188 3.7475C22.9172 3.47662 22.5498 3.32444 22.1667 3.32444ZM7.72222 10.5467C8.07601 10.5467 8.41749 10.6766 8.68187 10.9117C8.94625 11.1468 9.11516 11.4707 9.15656 11.8221L9.16667 11.9911V19.2133C9.16626 19.5815 9.02529 19.9356 8.77255 20.2033C8.51982 20.471 8.1744 20.6321 7.80687 20.6537C7.43935 20.6753 7.07745 20.5557 6.79513 20.3194C6.51281 20.0831 6.33137 19.7479 6.28789 19.3823L6.27778 19.2133V11.9911C6.27778 11.608 6.42996 11.2406 6.70085 10.9697C6.97173 10.6988 7.33913 10.5467 7.72222 10.5467ZM12.0556 9.10221C12.3938 9.10216 12.7214 9.22084 12.9811 9.43756C13.2409 9.65428 13.4163 9.95529 13.4769 10.2881C13.7678 10.1201 14.0683 9.96912 14.3768 9.83599C15.3402 9.42432 16.7832 9.19755 18.0861 9.60632C18.7693 9.82299 19.4554 10.2274 19.9639 10.9164C20.4189 11.5303 20.6644 12.2771 20.7136 13.1163L20.7222 13.4355V19.2133C20.7218 19.5815 20.5808 19.9356 20.3281 20.2033C20.0754 20.471 19.73 20.6321 19.3624 20.6537C18.9949 20.6753 18.633 20.5557 18.3507 20.3194C18.0684 20.0831 17.8869 19.7479 17.8434 19.3823L17.8333 19.2133V13.4355C17.8333 12.9589 17.7178 12.7364 17.6427 12.6339C17.5347 12.4999 17.3862 12.4046 17.2194 12.3623C16.7168 12.2034 15.9931 12.2872 15.5121 12.4923C14.7899 12.8014 14.1283 13.2868 13.6777 13.736L13.5 13.9267V19.2133C13.4996 19.5815 13.3586 19.9356 13.1059 20.2033C12.8532 20.471 12.5077 20.6321 12.1402 20.6537C11.7727 20.6753 11.4108 20.5557 11.1285 20.3194C10.8461 20.0831 10.6647 19.7479 10.6212 19.3823L10.6111 19.2133V10.5467C10.6111 10.1636 10.7633 9.79617 11.0342 9.52528C11.3051 9.2544 11.6725 9.10221 12.0556 9.10221ZM7.72222 6.21332C8.10531 6.21332 8.47271 6.36551 8.7436 6.63639C9.01448 6.90728 9.16667 7.27468 9.16667 7.65777C9.16667 8.04086 9.01448 8.40826 8.7436 8.67914C8.47271 8.95003 8.10531 9.10221 7.72222 9.10221C7.33913 9.10221 6.97173 8.95003 6.70085 8.67914C6.42996 8.40826 6.27778 8.04086 6.27778 7.65777C6.27778 7.27468 6.42996 6.90728 6.70085 6.63639C6.97173 6.36551 7.33913 6.21332 7.72222 6.21332Z" fill="#942F88"/>
</svg>
