<svg width="49" height="33" viewBox="0 0 49 33" fill="none" xmlns="http://www.w3.org/2000/svg">
<path d="M11.048 12C13.1247 12 15.1548 12.6158 16.8815 13.7696C18.6082 14.9233 19.954 16.5632 20.7487 18.4818C21.5435 20.4004 21.7514 22.5117 21.3462 24.5485C20.9411 26.5853 19.9411 28.4562 18.4726 29.9246C17.0042 31.3931 15.1332 32.3931 13.0964 32.7982C11.0596 33.2034 8.94845 32.9955 7.02982 32.2007C5.1112 31.406 3.47132 30.0602 2.31757 28.3335C1.16381 26.6068 0.548 24.5767 0.548 22.5L0.5 21C0.5 15.4305 2.71249 10.089 6.65076 6.15076C10.589 2.21249 15.9305 0 21.5 0V6C19.5293 5.9947 17.5771 6.38013 15.7563 7.134C13.9355 7.88786 12.2822 8.99521 10.892 10.392C10.3517 10.9313 9.85324 11.511 9.401 12.126C9.938 12.042 10.487 11.997 11.045 11.997L11.048 12ZM38.048 12C40.1247 12 42.1548 12.6158 43.8815 13.7696C45.6082 14.9233 46.954 16.5632 47.7487 18.4818C48.5435 20.4004 48.7514 22.5117 48.3462 24.5485C47.9411 26.5853 46.9411 28.4562 45.4726 29.9246C44.0042 31.3931 42.1333 32.3931 40.0965 32.7982C38.0596 33.2034 35.9484 32.9955 34.0298 32.2007C32.1112 31.406 30.4713 30.0602 29.3176 28.3335C28.1638 26.6068 27.548 24.5767 27.548 22.5L27.5 21C27.5 15.4305 29.7125 10.089 33.6508 6.15076C37.589 2.21249 42.9305 0 48.5 0V6C46.5293 5.9947 44.5771 6.38013 42.7563 7.134C40.9355 7.88786 39.2822 8.99521 37.892 10.392C37.3517 10.9313 36.8532 11.511 36.401 12.126C36.938 12.042 37.487 11.997 38.048 11.997V12Z" fill="#F1F1F1"/>
</svg>
