<svg width="16" height="20" viewBox="0 0 16 20" fill="none" xmlns="http://www.w3.org/2000/svg">
<path d="M4.06152 5.45378C4.06152 5.86771 4.22596 6.26468 4.51865 6.55737C4.81134 6.85006 5.20831 7.0145 5.62224 7.0145C6.03617 7.0145 6.43314 6.85006 6.72583 6.55737C7.01852 6.26468 7.18295 5.86771 7.18295 5.45378C7.18295 5.03985 7.01852 4.64288 6.72583 4.35019C6.43314 4.0575 6.03617 3.89307 5.62224 3.89307C5.20831 3.89307 4.81134 4.0575 4.51865 4.35019C4.22596 4.64288 4.06152 5.03985 4.06152 5.45378Z" stroke="white" stroke-linecap="round" stroke-linejoin="round"/>
<path d="M3.25 8.56152C3.48429 8.10328 3.83304 7.71338 4.26243 7.42966C4.67771 7.15823 5.14729 7.01709 5.62364 7.01709C6.1 7.01709 6.56957 7.15823 6.98486 7.42966C7.4015 7.69973 7.74893 8.08923 7.99729 8.56152" stroke="white" stroke-linecap="round" stroke-linejoin="round"/>
<path d="M15.4642 17.4644C15.4642 17.8244 15.3212 18.1696 15.0667 18.4241C14.8122 18.6786 14.467 18.8216 14.1071 18.8216H1.89279C1.53285 18.8216 1.18766 18.6786 0.933142 18.4241C0.678629 18.1696 0.535645 17.8244 0.535645 17.4644V2.53585C0.535645 2.17592 0.678629 1.83072 0.933142 1.57621C1.18766 1.3217 1.53285 1.17871 1.89279 1.17871H10.7142L15.4642 5.92871V17.4644Z" stroke="white" stroke-linecap="round" stroke-linejoin="round"/>
<path d="M3.25 12.0356H12.75M3.25 15.4285H8.67857" stroke="white" stroke-linecap="round"/>
</svg>
