<svg width="125" height="125" viewBox="0 0 125 125" fill="none" xmlns="http://www.w3.org/2000/svg">
<path d="M54.2026 16.9193C53.9722 16.9541 53.7619 16.9025 53.5716 16.7647C53.3808 16.624 53.2678 16.437 53.2327 16.2039C53.1979 15.9735 53.2511 15.7644 53.3922 15.5764C53.5329 15.3856 53.7185 15.2729 53.9488 15.2381C54.1792 15.2033 54.3897 15.2562 54.5805 15.3969C54.7708 15.5348 54.8833 15.7189 54.9181 15.9493C54.9414 16.1038 54.9235 16.2516 54.8643 16.3927C54.8076 16.5306 54.7217 16.647 54.6067 16.7419C54.4918 16.8368 54.3571 16.896 54.2026 16.9193Z" fill="black"/>
<path d="M34.8964 20.2013L36.7697 23.6064L35.6535 24.2209L32.4986 18.486L33.57 17.8962L34.0835 18.8296L34.1544 18.7905C34.1192 18.4142 34.1916 18.0566 34.3715 17.7176C34.5538 17.3772 34.8603 17.0885 35.2908 16.8514C35.6816 16.6363 36.0689 16.53 36.453 16.5327C36.8356 16.5328 37.1962 16.6488 37.5346 16.8809C37.873 17.1129 38.1723 17.4654 38.4325 17.9383L40.4392 21.5861L39.323 22.2006L37.3902 18.6873C37.1616 18.2716 36.8746 18.0063 36.5294 17.8916C36.1828 17.7743 35.8203 17.8198 35.4421 18.0281C35.1832 18.1706 34.9839 18.3533 34.8439 18.5763C34.7064 18.7979 34.6388 19.0492 34.6409 19.3302C34.6442 19.6073 34.7294 19.8976 34.8964 20.2013Z" fill="black"/>
<path d="M23.5842 36.4499L17.3662 33.6429L18.2244 32.6442L22.7048 34.8056L22.7465 34.7571L19.9408 30.6468L20.799 29.6481L25.2605 31.7989L25.3021 31.7504L22.5043 27.6637L23.3625 26.665L27.0725 32.3906L26.2254 33.3763L21.7759 31.3032L21.712 31.3776L24.4285 35.4674L23.5842 36.4499Z" fill="black"/>
<path d="M18.373 48.3714C18.162 48.9476 17.8458 49.402 17.4244 49.7347C17.003 50.0674 16.5115 50.2654 15.9497 50.3288C15.388 50.3922 14.7897 50.3075 14.1549 50.0748C13.5174 49.8412 13.0034 49.5181 12.6129 49.1057C12.2224 48.6933 11.9737 48.2239 11.867 47.6976C11.7602 47.1713 11.8123 46.6201 12.0234 46.0439C12.2344 45.4677 12.5506 45.0132 12.972 44.6806C13.3934 44.3479 13.8863 44.1503 14.4507 44.0879C15.0151 44.0255 15.616 44.1111 16.2535 44.3448C16.8884 44.5775 17.3997 44.8996 17.7875 45.311C18.1754 45.7225 18.4227 46.1914 18.5294 46.7176C18.6362 47.2439 18.5841 47.7952 18.373 48.3714ZM17.3702 47.9993C17.507 47.6258 17.5217 47.2802 17.4142 46.9624C17.3067 46.6446 17.1104 46.3669 16.8253 46.1293C16.5412 45.889 16.2017 45.6965 15.8069 45.5518C15.4148 45.4081 15.0328 45.3361 14.6607 45.3359C14.287 45.332 13.9551 45.4161 13.6652 45.5882C13.3752 45.7603 13.1619 46.0331 13.0251 46.4065C12.8873 46.7827 12.873 47.1315 12.9822 47.4529C13.0924 47.7716 13.2909 48.0516 13.5777 48.2929C13.8628 48.5305 14.2014 48.7212 14.5935 48.865C14.9882 49.0097 15.3711 49.0834 15.7422 49.0863C16.1143 49.0866 16.4439 49.0001 16.7312 48.8271C17.0195 48.6513 17.2325 48.3754 17.3702 47.9993Z" fill="black"/>
<path d="M16.2587 62.8054C16.236 63.3334 16.0809 63.7987 15.7935 64.2015C15.5033 64.6013 15.1019 64.9082 14.5894 65.1222C14.0742 65.3332 13.4632 65.4234 12.7565 65.393C12.0498 65.3626 11.4503 65.2188 10.958 64.9616C10.4659 64.7016 10.0954 64.3586 9.8464 63.9327C9.59742 63.5069 9.48422 63.0314 9.50681 62.5063C9.52426 62.1004 9.60642 61.7769 9.75328 61.5359C9.89742 61.2919 10.0618 61.1056 10.2465 60.977C10.4313 60.8457 10.5935 60.7446 10.733 60.6738L10.7363 60.5972L7.49639 60.4577L7.55113 59.1847L16.2703 59.56L16.2169 60.8032L15.1993 60.7594L15.1948 60.8659C15.3305 60.9485 15.4847 61.066 15.6573 61.2185C15.83 61.3681 15.9777 61.5706 16.1004 61.8261C16.223 62.0817 16.2758 62.4081 16.2587 62.8054ZM15.1852 62.4777C15.2009 62.1116 15.1177 61.7981 14.9356 61.5371C14.7507 61.2733 14.488 61.0686 14.1473 60.9231C13.8068 60.7748 13.4066 60.6908 12.9468 60.671C12.4927 60.6514 12.0925 60.6996 11.7463 60.8155C11.4001 60.9314 11.1265 61.1116 10.9254 61.356C10.7244 61.6004 10.6159 61.9085 10.5999 62.2804C10.5834 62.6635 10.669 62.9871 10.8567 63.2511C11.0444 63.5151 11.3072 63.7198 11.645 63.8651C11.9829 64.0076 12.3676 64.0882 12.799 64.1067C13.2361 64.1256 13.632 64.0772 13.9868 63.9617C14.3415 63.8461 14.6265 63.665 14.8419 63.4184C15.0545 63.1688 15.1689 62.8552 15.1852 62.4777Z" fill="black"/>
<path d="M10.144 78.9026L18.4579 76.2484L18.8451 77.4623L10.5312 80.1164L10.144 78.9026Z" fill="black"/>
<path d="M12.6392 85.2235L20.5589 81.5568L21.0938 82.7132L13.1742 86.3799L12.6392 85.2235Z" fill="black"/>
<path d="M26.8955 91.3641C27.2652 91.8538 27.4757 92.366 27.5269 92.9006C27.5781 93.4352 27.4781 93.9558 27.227 94.4624C26.9759 94.969 26.5806 95.4262 26.0411 95.8338C25.4994 96.2431 24.9495 96.5001 24.3914 96.6049C23.8333 96.7097 23.3043 96.6643 22.8043 96.4688C22.3043 96.2733 21.8694 95.9307 21.4997 95.441C21.13 94.9512 20.9195 94.4391 20.8683 93.9045C20.8171 93.3699 20.9182 92.8484 21.1716 92.3401C21.425 91.8317 21.8225 91.3729 22.3643 90.9636C22.9037 90.556 23.4514 90.3007 24.0072 90.1976C24.563 90.0946 25.0909 90.1408 25.5909 90.3363C26.0909 90.5317 26.5257 90.8744 26.8955 91.3641ZM26.0395 92.0055C25.7999 91.6881 25.5174 91.4884 25.1922 91.4066C24.867 91.3247 24.5273 91.3392 24.1732 91.4501C23.8174 91.5587 23.4717 91.7398 23.1363 91.9933C22.8031 92.245 22.5356 92.5272 22.3338 92.8399C22.1281 93.152 22.0189 93.4766 22.0064 93.8137C21.9939 94.1507 22.1075 94.4779 22.3471 94.7953C22.5885 95.115 22.8738 95.3161 23.2029 95.3985C23.5304 95.4786 23.8732 95.4635 24.2313 95.3532C24.5854 95.2423 24.9291 95.061 25.2623 94.8092C25.5977 94.5558 25.8672 94.2738 26.0707 93.9634C26.2725 93.6507 26.3785 93.3267 26.3887 92.9914C26.3973 92.6538 26.2809 92.3252 26.0395 92.0055Z" fill="black"/>
<path d="M35.5676 99.5976L31.4703 104.702L30.5102 103.931L31.1611 103.12L31.1079 103.077C30.7944 103.277 30.4571 103.362 30.0961 103.33C29.7311 103.299 29.3991 103.164 29.1001 102.924C29.0381 102.874 28.9668 102.813 28.8861 102.741C28.8033 102.667 28.7402 102.607 28.6968 102.561L29.4597 101.611C29.4907 101.654 29.5518 101.723 29.643 101.818C29.7325 101.916 29.8281 102.005 29.93 102.087C30.1648 102.276 30.4141 102.394 30.6779 102.442C30.9378 102.49 31.1911 102.47 31.4379 102.38C31.6829 102.293 31.8943 102.138 32.0722 101.917L34.5743 98.7997L35.5676 99.5976Z" fill="black"/>
<path d="M44.3533 104.26C44.927 104.529 45.3601 104.891 45.6526 105.344C45.9414 105.8 46.0886 106.309 46.0943 106.874C46.1 107.438 45.9637 108.017 45.6855 108.611C45.4037 109.214 45.0418 109.692 44.5998 110.046C44.1566 110.403 43.6684 110.616 43.1351 110.683C42.6019 110.75 42.0561 110.652 41.4979 110.391C41.0476 110.18 40.6855 109.908 40.4113 109.576C40.1359 109.246 39.96 108.881 39.8836 108.482C39.8047 108.081 39.838 107.671 39.9835 107.253L41.1064 107.779C41.0381 108.086 41.0676 108.392 41.1949 108.696C41.3196 108.999 41.5659 109.237 41.9338 109.409C42.2554 109.56 42.5768 109.607 42.8981 109.55C43.2157 109.495 43.5142 109.343 43.7937 109.095C44.072 108.849 44.3099 108.515 44.5074 108.093C44.7098 107.66 44.8188 107.256 44.8345 106.881C44.8503 106.506 44.7788 106.176 44.6203 105.891C44.4591 105.606 44.2152 105.386 43.8885 105.233C43.6698 105.131 43.4531 105.078 43.2382 105.075C43.0196 105.073 42.8143 105.119 42.6223 105.214C42.4278 105.308 42.2561 105.451 42.1072 105.641L40.9843 105.115C41.2049 104.751 41.4899 104.467 41.8391 104.264C42.1884 104.06 42.5784 103.954 43.0089 103.946C43.4369 103.936 43.885 104.041 44.3533 104.26Z" fill="black"/>
<path d="M53.3208 112.114L54.4935 112.098C54.5175 112.251 54.5706 112.402 54.6529 112.551C54.7325 112.699 54.8523 112.829 55.0125 112.942C55.1727 113.054 55.3832 113.132 55.644 113.174C56.0001 113.232 56.3103 113.2 56.5746 113.079C56.8385 112.961 56.9907 112.777 57.0312 112.527C57.0663 112.312 57.0146 112.125 56.8762 111.967C56.7378 111.809 56.4974 111.659 56.1549 111.517L55.1669 111.115C54.5948 110.881 54.1861 110.597 53.941 110.264C53.6958 109.93 53.6104 109.535 53.6846 109.078C53.7475 108.691 53.9157 108.364 54.1892 108.098C54.4595 107.834 54.8076 107.649 55.2336 107.542C55.6568 107.435 56.1291 107.424 56.6507 107.509C57.3741 107.627 57.9393 107.877 58.3463 108.26C58.7528 108.646 58.9614 109.133 58.9722 109.722L57.7266 109.709C57.7024 109.38 57.5857 109.115 57.3766 108.914C57.167 108.716 56.8729 108.586 56.4944 108.524C56.0822 108.457 55.7388 108.489 55.4643 108.62C55.1893 108.754 55.0315 108.946 54.9909 109.195C54.9581 109.397 55.0063 109.579 55.1354 109.741C55.2617 109.903 55.4733 110.044 55.7704 110.164L56.825 110.581C57.4056 110.817 57.8159 111.108 58.056 111.455C58.2932 111.802 58.3745 112.205 58.2998 112.665C58.2378 113.046 58.0771 113.362 57.8175 113.614C57.5579 113.865 57.2273 114.04 56.8255 114.139C56.4234 114.24 55.9797 114.252 55.4946 114.173C54.7964 114.059 54.2714 113.819 53.9196 113.451C53.5674 113.085 53.3678 112.64 53.3208 112.114Z" fill="black"/>
<path d="M71.1168 106.945C71.3462 106.904 71.5578 106.95 71.7517 107.083C71.9462 107.219 72.0641 107.402 72.1055 107.635C72.1464 107.864 72.0989 108.074 71.9628 108.266C71.8272 108.461 71.6448 108.578 71.4155 108.619C71.1861 108.66 70.9742 108.613 70.7798 108.477C70.5859 108.345 70.4684 108.164 70.4275 107.934C70.4001 107.78 70.414 107.632 70.4694 107.49C70.5224 107.35 70.6052 107.232 70.7175 107.134C70.8299 107.036 70.963 106.973 71.1168 106.945Z" fill="black"/>
<path d="M90.3287 103.148L88.365 99.794L89.4644 99.1499L92.7716 104.798L91.7164 105.417L91.1781 104.497L91.1082 104.538C91.1535 104.913 91.0907 105.273 90.9199 105.617C90.7467 105.962 90.4481 106.259 90.0241 106.507C89.6392 106.733 89.2548 106.849 88.8709 106.857C88.4883 106.867 88.1248 106.761 87.7803 106.538C87.4359 106.315 87.1272 105.97 86.8545 105.505L84.7509 101.912L85.8502 101.268L87.8763 104.728C88.116 105.138 88.41 105.395 88.7582 105.5C89.1078 105.608 89.4689 105.553 89.8414 105.335C90.0963 105.186 90.2908 104.998 90.4247 104.771C90.5562 104.546 90.6171 104.293 90.6074 104.012C90.5967 103.735 90.5038 103.447 90.3287 103.148Z" fill="black"/>
<path d="M101.202 86.6022L107.493 89.2419L106.662 90.2632L102.125 88.2224L102.085 88.272L105 92.3058L104.168 93.327L99.651 91.2964L99.6106 91.346L102.517 95.3564L101.686 96.3777L97.8237 90.7535L98.6441 89.7454L103.148 91.6987L103.209 91.6227L100.384 87.607L101.202 86.6022Z" fill="black"/>
<path d="M106.092 74.5457C106.288 73.964 106.592 73.5013 107.004 73.1574C107.417 72.8136 107.903 72.6025 108.463 72.5241C109.022 72.4457 109.623 72.5143 110.264 72.7299C110.907 72.9464 111.43 73.2556 111.831 73.6575C112.232 74.0593 112.493 74.5218 112.614 75.045C112.735 75.5683 112.698 76.1207 112.502 76.7024C112.307 77.284 112.003 77.7467 111.59 78.0906C111.178 78.4344 110.691 78.6451 110.128 78.7226C109.565 78.8001 108.962 78.7306 108.319 78.514C107.678 78.2984 107.158 77.9901 106.76 77.5892C106.361 77.1883 106.101 76.7262 105.98 76.203C105.86 75.6797 105.897 75.1273 106.092 74.5457ZM107.105 74.8908C106.978 75.2678 106.973 75.6137 107.089 75.9285C107.205 76.2432 107.408 76.5156 107.7 76.7455C107.99 76.9781 108.335 77.1615 108.733 77.2956C109.129 77.4287 109.513 77.4905 109.885 77.4807C110.258 77.4746 110.588 77.3816 110.873 77.2018C111.158 77.022 111.364 76.7436 111.491 76.3667C111.619 75.987 111.624 75.6379 111.506 75.3196C111.387 75.0039 111.181 74.7293 110.888 74.4958C110.597 74.2658 110.253 74.0843 109.857 73.9511C109.459 73.817 109.074 73.7535 108.703 73.7605C108.331 73.7703 108.004 73.8655 107.721 74.0462C107.438 74.2296 107.232 74.5111 107.105 74.8908Z" fill="black"/>
<path d="M107.82 60.0602C107.829 59.5319 107.971 59.0625 108.248 58.6522C108.527 58.2448 108.92 57.9272 109.427 57.6996C109.936 57.4749 110.545 57.3683 111.252 57.3798C111.959 57.3913 112.562 57.519 113.061 57.763C113.56 58.0097 113.94 58.3426 114.2 58.7617C114.46 59.1808 114.586 59.653 114.578 60.1785C114.571 60.5847 114.497 60.9103 114.357 61.1552C114.22 61.403 114.06 61.5936 113.879 61.7271C113.698 61.8633 113.538 61.9687 113.401 62.0432L113.4 62.1199L116.642 62.1726L116.621 63.4465L107.895 63.3048L107.915 62.0606L108.934 62.0772L108.936 61.9706C108.798 61.8917 108.64 61.7783 108.464 61.6305C108.287 61.4856 108.134 61.2871 108.005 61.0349C107.875 60.7828 107.814 60.4579 107.82 60.0602ZM108.902 60.3591C108.896 60.7255 108.988 61.0367 109.177 61.2926C109.369 61.5515 109.637 61.749 109.981 61.8853C110.325 62.0245 110.728 62.0978 111.188 62.1053C111.642 62.1126 112.041 62.0538 112.384 61.9286C112.727 61.8035 112.996 61.6161 113.19 61.3664C113.385 61.1167 113.485 60.8058 113.491 60.4336C113.497 60.0502 113.403 59.729 113.208 59.4701C113.014 59.2112 112.745 59.0137 112.404 58.8774C112.062 58.744 111.675 58.6738 111.244 58.6668C110.806 58.6597 110.412 58.7186 110.06 58.8436C109.709 58.9686 109.429 59.1573 109.22 59.4096C109.014 59.6648 108.908 59.9813 108.902 60.3591Z" fill="black"/>
<path d="M113.502 43.8051L105.262 46.6808L104.843 45.4777L113.083 42.602L113.502 43.8051Z" fill="black"/>
<path d="M110.839 37.5532L103.02 41.4305L102.454 40.2888L110.273 36.4115L110.839 37.5532Z" fill="black"/>
<path d="M96.4235 31.7964C96.0408 31.3168 95.8167 30.8104 95.7513 30.2774C95.6858 29.7444 95.7718 29.2213 96.0093 28.7081C96.2467 28.1949 96.6296 27.7274 97.158 27.3055C97.6886 26.8818 98.2314 26.6102 98.7865 26.4905C99.3416 26.3708 99.8716 26.402 100.377 26.5841C100.882 26.7661 101.326 27.097 101.708 27.5766C102.091 28.0563 102.315 28.5626 102.381 29.0957C102.446 29.6287 102.359 30.1527 102.119 30.6676C101.88 31.1826 101.494 31.6519 100.964 32.0755C100.435 32.4974 99.8948 32.7673 99.342 32.8852C98.7891 33.0031 98.2602 32.971 97.7552 32.789C97.2501 32.6069 96.8062 32.2761 96.4235 31.7964ZM97.262 31.1323C97.5101 31.4432 97.7977 31.6353 98.125 31.7084C98.4523 31.7815 98.7915 31.7579 99.1425 31.6376C99.4953 31.5195 99.836 31.3293 100.165 31.0669C100.491 30.8063 100.751 30.5171 100.944 30.1991C101.141 29.8816 101.242 29.5542 101.245 29.2169C101.249 28.8797 101.126 28.5556 100.878 28.2447C100.629 27.9316 100.338 27.7382 100.007 27.6647C99.6773 27.5933 99.335 27.6176 98.98 27.7374C98.629 27.8578 98.2903 28.0482 97.964 28.3088C97.6354 28.5711 97.3736 28.8602 97.1785 29.1759C96.9851 29.4939 96.8878 29.8206 96.8866 30.1561C96.887 30.4938 97.0122 30.8192 97.262 31.1323Z" fill="black"/>
<path d="M87.5345 23.7978L91.4938 18.5856L92.4742 19.3309L91.8452 20.1589L91.8995 20.2001C92.2076 19.9918 92.5425 19.8985 92.9042 19.9201C93.2699 19.9412 93.6054 20.0678 93.9108 20.2999C93.9741 20.3481 94.047 20.4071 94.1295 20.4769C94.2143 20.5485 94.2789 20.6066 94.3235 20.6512L93.5863 21.6217C93.5542 21.5794 93.4913 21.512 93.3976 21.4193C93.3056 21.3244 93.2076 21.2374 93.1035 21.1583C92.8638 20.9761 92.6114 20.8645 92.3464 20.8236C92.0853 20.7821 91.8326 20.8095 91.5883 20.9057C91.3457 20.9996 91.1385 21.1597 90.9666 21.3859L88.5488 24.5689L87.5345 23.7978Z" fill="black"/>
<path d="M78.6269 19.3718C78.0462 19.1185 77.6036 18.7689 77.299 18.323C76.9981 17.8757 76.8373 17.37 76.8166 16.8062C76.7958 16.2423 76.9165 15.6596 77.1787 15.058C77.4443 14.4486 77.7933 13.9608 78.2257 13.5946C78.6591 13.2258 79.1415 13.0007 79.6728 12.9194C80.204 12.8381 80.7522 12.9207 81.3173 13.1672C81.773 13.366 82.1423 13.6278 82.4253 13.9527C82.7093 14.275 82.8949 14.6349 82.982 15.0324C83.0716 15.4311 83.0493 15.8413 82.9151 16.2631L81.7784 15.7673C81.8385 15.4588 81.8009 15.1541 81.6655 14.8533C81.5327 14.5536 81.2801 14.3226 80.9077 14.1602C80.5822 14.0182 80.2596 13.9797 79.94 14.0449C79.624 14.1085 79.3297 14.2683 79.0569 14.5244C78.7853 14.7779 78.5564 15.1181 78.3702 15.5452C78.1795 15.9827 78.0814 16.3893 78.0757 16.765C78.07 17.1406 78.1502 17.4685 78.3163 17.7486C78.485 18.0299 78.7348 18.2427 79.0655 18.3869C79.2868 18.4835 79.5049 18.5306 79.7198 18.5282C79.9384 18.5244 80.1423 18.4723 80.3317 18.3721C80.5237 18.2729 80.6915 18.1261 80.8352 17.9315L81.9718 18.4273C81.761 18.7972 81.4837 19.0884 81.14 19.3011C80.7963 19.5138 80.4093 19.6302 79.9791 19.6502C79.5515 19.6714 79.1008 19.5786 78.6269 19.3718Z" fill="black"/>
<path d="M69.4529 11.7612L68.2811 11.8091C68.2531 11.6562 68.1959 11.5066 68.1096 11.3602C68.0261 11.2142 67.9028 11.0871 67.7397 10.979C67.5766 10.871 67.3641 10.7992 67.1023 10.7638C66.7447 10.7155 66.4355 10.7554 66.1745 10.8835C65.9139 11.0088 65.7666 11.1967 65.7328 11.4473C65.7035 11.664 65.7601 11.8494 65.9027 12.0035C66.0453 12.1575 66.2897 12.3009 66.6358 12.4337L67.6342 12.8096C68.2124 13.0282 68.6285 13.3009 68.8825 13.6277C69.1365 13.9544 69.2325 14.3473 69.1705 14.8062C69.118 15.1947 68.9586 15.5257 68.6923 15.7993C68.4291 16.0705 68.0861 16.2649 67.6631 16.3826C67.243 16.5006 66.7711 16.5243 66.2474 16.4534C65.5211 16.3552 64.9494 16.1202 64.5323 15.7485C64.1157 15.3739 63.8941 14.8924 63.8675 14.304L65.113 14.2833C65.1461 14.6117 65.2698 14.8735 65.4842 15.0688C65.699 15.2612 65.9964 15.3832 66.3765 15.4346C66.7903 15.4905 67.1327 15.4494 67.4037 15.3112C67.675 15.1701 67.8276 14.9743 67.8615 14.7238C67.8889 14.521 67.8359 14.3404 67.7025 14.1819C67.5719 14.0238 67.3565 13.8886 67.0564 13.7763L65.9909 13.3871C65.4043 13.1673 64.9863 12.8872 64.7371 12.5467C64.4906 12.2067 64.3986 11.8058 64.461 11.3441C64.5127 10.9612 64.665 10.6406 64.9177 10.3824C65.1705 10.1242 65.4964 9.94034 65.8953 9.83088C66.2946 9.71861 66.7378 9.69541 67.2248 9.76128C67.9258 9.85608 68.4571 10.0827 68.8186 10.4412C69.1805 10.7969 69.3919 11.2369 69.4529 11.7612Z" fill="black"/>
<rect x="50.5" y="41.5" width="23" height="43" rx="11.5" stroke="black" stroke-width="3"/>
<circle cx="62" cy="73" r="6" fill="black"/>
</svg>
