<svg width="81" height="80" viewBox="0 0 81 80" fill="none" xmlns="http://www.w3.org/2000/svg">
<rect x="0.5" width="80" height="80" rx="40" fill="#451841"/>
<path fill-rule="evenodd" clip-rule="evenodd" d="M41.8803 30.7213L44.1646 35.2847C44.3885 35.7327 44.8206 36.0433 45.3217 36.1152L50.4317 36.8508C51.6942 37.033 52.1966 38.5632 51.2829 39.4399L47.5877 42.9906C47.2246 43.3397 47.0593 43.8416 47.1452 44.3345L48.0172 49.3473C48.232 50.5873 46.9122 51.5334 45.7837 50.9467L41.2165 48.5784C40.7688 48.346 40.2325 48.346 39.7835 48.5784L35.2163 50.9467C34.0878 51.5334 32.768 50.5873 32.9841 49.3473L33.8548 44.3345C33.9407 43.8416 33.7754 43.3397 33.4123 42.9906L29.7171 39.4399C28.8034 38.5632 29.3058 37.033 30.5683 36.8508L35.6783 36.1152C36.1794 36.0433 36.6128 35.7327 36.8367 35.2847L39.1197 30.7213C39.6846 29.5929 41.3154 29.5929 41.8803 30.7213Z" stroke="white" stroke-width="1.5" stroke-linecap="round" stroke-linejoin="round"/>
</svg>
