<svg width="76" height="159" viewBox="0 0 76 159" fill="none" xmlns="http://www.w3.org/2000/svg">
<path d="M2.84124e-07 150.555L13 150.555M6.5 142.864L6.5 158.246L6.5 142.864Z" stroke="#451841" stroke-miterlimit="10"/>
<path d="M32 150.555L45 150.555M38.5 142.864L38.5 158.246L38.5 142.864Z" stroke="#451841" stroke-miterlimit="10"/>
<path d="M63 150.555L76 150.555M69.5 142.864L69.5 158.246L69.5 142.864Z" stroke="#451841" stroke-miterlimit="10"/>
<path d="M2.84124e-07 150.555L13 150.555M6.5 142.864L6.5 158.246L6.5 142.864Z" stroke="#451841" stroke-width="2" stroke-miterlimit="10"/>
<path d="M32 150.555L45 150.555M38.5 142.864L38.5 158.246L38.5 142.864Z" stroke="#451841" stroke-width="2" stroke-miterlimit="10"/>
<path d="M63 150.555L76 150.555M69.5 142.864L69.5 158.246L69.5 142.864Z" stroke="#451841" stroke-width="2" stroke-miterlimit="10"/>
<path d="M2.48209e-07 115.059L13 115.059M6.5 107.368L6.5 122.75L6.5 107.368Z" stroke="#451841" stroke-miterlimit="10"/>
<path d="M32 115.059L45 115.059M38.5 107.368L38.5 122.75L38.5 107.368Z" stroke="#451841" stroke-miterlimit="10"/>
<path d="M63 115.059L76 115.059M69.5 107.368L69.5 122.75L69.5 107.368Z" stroke="#451841" stroke-miterlimit="10"/>
<path d="M2.48209e-07 115.059L13 115.059M6.5 107.368L6.5 122.75L6.5 107.368Z" stroke="#451841" stroke-width="2" stroke-miterlimit="10"/>
<path d="M32 115.059L45 115.059M38.5 107.368L38.5 122.75L38.5 107.368Z" stroke="#451841" stroke-width="2" stroke-miterlimit="10"/>
<path d="M63 115.059L76 115.059M69.5 107.368L69.5 122.75L69.5 107.368Z" stroke="#451841" stroke-width="2" stroke-miterlimit="10"/>
<path d="M32 79.5627L45 79.5627M38.5 71.8718L38.5 87.2535L38.5 71.8718Z" stroke="#451841" stroke-miterlimit="10"/>
<path d="M63 79.5627L76 79.5627M69.5 71.8718L69.5 87.2535L69.5 71.8718Z" stroke="#451841" stroke-miterlimit="10"/>
<path d="M32 79.5627L45 79.5627M38.5 71.8718L38.5 87.2535L38.5 71.8718Z" stroke="#451841" stroke-width="2" stroke-miterlimit="10"/>
<path d="M63 79.5627L76 79.5627M69.5 71.8718L69.5 87.2535L69.5 71.8718Z" stroke="#451841" stroke-width="2" stroke-miterlimit="10"/>
<path d="M32 44.0662L45 44.0662M38.5 36.3753L38.5 51.7571L38.5 36.3753Z" stroke="#451841" stroke-miterlimit="10"/>
<path d="M63 44.0662L76 44.0662M69.5 36.3753L69.5 51.7571L69.5 36.3753Z" stroke="#451841" stroke-miterlimit="10"/>
<path d="M32 44.0662L45 44.0662M38.5 36.3753L38.5 51.7571L38.5 36.3753Z" stroke="#451841" stroke-width="2" stroke-miterlimit="10"/>
<path d="M63 44.0662L76 44.0662M69.5 36.3753L69.5 51.7571L69.5 36.3753Z" stroke="#451841" stroke-width="2" stroke-miterlimit="10"/>
<path d="M32 8.56985L45 8.56986M38.5 0.878968L38.5 16.2607L38.5 0.878968Z" stroke="#451841" stroke-miterlimit="10"/>
<path d="M63 8.56985L76 8.56986M69.5 0.878968L69.5 16.2607L69.5 0.878968Z" stroke="#451841" stroke-miterlimit="10"/>
<path d="M32 8.56985L45 8.56986M38.5 0.878968L38.5 16.2607L38.5 0.878968Z" stroke="#451841" stroke-width="2" stroke-miterlimit="10"/>
<path d="M63 8.56985L76 8.56986M69.5 0.878968L69.5 16.2607L69.5 0.878968Z" stroke="#451841" stroke-width="2" stroke-miterlimit="10"/>
</svg>
