<svg width="68" height="124" viewBox="0 0 68 124" fill="none" xmlns="http://www.w3.org/2000/svg">
<path d="M67.5947 117.284L55.6904 117.284M61.6426 111.27L61.6426 123.298L61.6426 111.27Z" stroke="#451841" stroke-miterlimit="10"/>
<path d="M38.291 117.284L26.3867 117.284M32.3389 111.27L32.3389 123.298L32.3389 111.27Z" stroke="#451841" stroke-miterlimit="10"/>
<path d="M9.90429 117.284L-2 117.284M3.95214 111.27L3.95214 123.298L3.95214 111.27Z" stroke="#451841" stroke-miterlimit="10"/>
<path d="M67.5947 117.284L55.6904 117.284M61.6426 111.27L61.6426 123.298L61.6426 111.27Z" stroke="#451841" stroke-width="2" stroke-miterlimit="10"/>
<path d="M38.291 117.284L26.3867 117.284M32.3389 111.27L32.3389 123.298L32.3389 111.27Z" stroke="#451841" stroke-width="2" stroke-miterlimit="10"/>
<path d="M9.90429 117.284L-2 117.284M3.95214 111.27L3.95214 123.298L3.95214 111.27Z" stroke="#451841" stroke-width="2" stroke-miterlimit="10"/>
<path d="M67.5947 89.5283L55.6904 89.5283M61.6426 83.5146L61.6426 95.542L61.6426 83.5146Z" stroke="#451841" stroke-miterlimit="10"/>
<path d="M38.291 89.5283L26.3867 89.5283M32.3389 83.5146L32.3389 95.542L32.3389 83.5146Z" stroke="#451841" stroke-miterlimit="10"/>
<path d="M9.90429 89.5283L-2 89.5283M3.95214 83.5146L3.95214 95.542L3.95214 83.5146Z" stroke="#451841" stroke-miterlimit="10"/>
<path d="M67.5947 89.5283L55.6904 89.5283M61.6426 83.5146L61.6426 95.542L61.6426 83.5146Z" stroke="#451841" stroke-width="2" stroke-miterlimit="10"/>
<path d="M38.291 89.5283L26.3867 89.5283M32.3389 83.5146L32.3389 95.542L32.3389 83.5146Z" stroke="#451841" stroke-width="2" stroke-miterlimit="10"/>
<path d="M9.90429 89.5283L-2 89.5283M3.95214 83.5146L3.95214 95.542L3.95214 83.5146Z" stroke="#451841" stroke-width="2" stroke-miterlimit="10"/>
<path d="M38.291 61.7726L26.3867 61.7727M32.3389 55.7589L32.3389 67.7864L32.3389 55.7589Z" stroke="#451841" stroke-miterlimit="10"/>
<path d="M9.90429 61.7726L-2 61.7727M3.95214 55.7589L3.95214 67.7864L3.95214 55.7589Z" stroke="#451841" stroke-miterlimit="10"/>
<path d="M38.291 61.7726L26.3867 61.7727M32.3389 55.7589L32.3389 67.7864L32.3389 55.7589Z" stroke="#451841" stroke-width="2" stroke-miterlimit="10"/>
<path d="M9.90429 61.7726L-2 61.7727M3.95214 55.7589L3.95214 67.7864L3.95214 55.7589Z" stroke="#451841" stroke-width="2" stroke-miterlimit="10"/>
<path d="M38.291 34.017L26.3867 34.017M32.3389 28.0033L32.3389 40.0307L32.3389 28.0033Z" stroke="#451841" stroke-miterlimit="10"/>
<path d="M9.90429 34.017L-2 34.017M3.95214 28.0033L3.95214 40.0307L3.95214 28.0033Z" stroke="#451841" stroke-miterlimit="10"/>
<path d="M38.291 34.017L26.3867 34.017M32.3389 28.0033L32.3389 40.0307L32.3389 28.0033Z" stroke="#451841" stroke-width="2" stroke-miterlimit="10"/>
<path d="M9.90429 34.017L-2 34.017M3.95214 28.0033L3.95214 40.0307L3.95214 28.0033Z" stroke="#451841" stroke-width="2" stroke-miterlimit="10"/>
<path d="M38.291 6.26133L26.3867 6.26133M32.3389 0.247599L32.3389 12.2751L32.3389 0.247599Z" stroke="#451841" stroke-miterlimit="10"/>
<path d="M9.90429 6.26133L-2 6.26133M3.95214 0.247601L3.95214 12.2751L3.95214 0.247601Z" stroke="#451841" stroke-miterlimit="10"/>
<path d="M38.291 6.26133L26.3867 6.26133M32.3389 0.247599L32.3389 12.2751L32.3389 0.247599Z" stroke="#451841" stroke-width="2" stroke-miterlimit="10"/>
<path d="M9.90429 6.26133L-2 6.26133M3.95214 0.247601L3.95214 12.2751L3.95214 0.247601Z" stroke="#451841" stroke-width="2" stroke-miterlimit="10"/>
</svg>
