<svg width="32" height="31" viewBox="0 0 32 31" fill="none" xmlns="http://www.w3.org/2000/svg">
<path d="M29.8459 7.07101C29.3012 5.31672 28.8186 4.89461 28.4654 4.72034C28.3703 4.67719 28.273 4.64233 28.1712 4.62408C27.8494 4.56488 27.0046 4.40168 24.398 6.47961C23.3709 7.29894 22.3986 8.21287 21.8123 8.81202C20.8763 8.35782 19.4443 7.93128 17.821 7.62257C16.1998 7.30557 14.7069 7.1739 13.6751 7.24527C13.3585 6.46743 12.801 5.26084 12.1466 4.11731C10.5042 1.21673 9.65105 1.05132 9.33147 0.983824C9.23195 0.957269 9.12579 0.955609 9.01741 0.962247C8.61928 0.989355 8.01209 1.20069 6.85879 2.62636C6.13029 3.52536 5.31766 4.73969 4.5105 6.13328C2.64336 9.36856 1.28432 12.7305 0.778146 15.36C0.401562 17.3041 0.46405 19.1342 0.972808 20.79C1.45173 22.3578 2.32661 23.7735 3.56869 25.0117C5.80908 27.2362 9.2606 28.8505 13.5429 29.682C17.8251 30.5135 21.6305 30.3022 24.536 29.0685C26.148 28.3875 27.4881 27.3939 28.5203 26.1226C29.61 24.7688 30.357 23.1014 30.7335 21.1573C31.2397 18.5278 31.2309 14.8986 30.715 11.2053C30.4904 9.61641 30.1884 8.18466 29.8459 7.07101ZM5.50285 6.70919C6.2309 5.44561 6.98822 4.30541 7.64702 3.46782L9.41291 2.27672C9.71309 2.51682 10.1442 3.03188 10.6986 3.9176L4.86829 7.85548C5.06802 7.4732 5.28654 7.08704 5.50285 6.70919ZM2.10928 14.6663C2.3667 13.6683 2.72975 12.574 3.19568 11.4271L11.6928 5.68516C12.0542 6.39496 12.3702 7.07488 12.5786 7.5927L2.10928 14.6663ZM1.88657 19.7626C1.72368 19.008 1.65923 18.2175 1.68491 17.3887L14.9958 8.38879C15.6947 8.43305 16.5633 8.54038 17.5928 8.74397C17.7443 8.7755 17.8958 8.80704 18.0473 8.83857L1.88436 19.7709L1.88657 19.7626ZM3.71181 23.4764C3.25414 22.9276 2.87611 22.3468 2.57549 21.7421L20.6033 9.54726C21.1208 9.73868 21.4907 9.91737 21.709 10.0645C21.8904 10.184 22.1387 10.1525 22.283 9.97767C22.7161 9.45321 23.9191 8.30747 25.0938 7.36754C26.7094 6.07409 27.6401 5.6824 27.9348 5.74326C27.9431 5.74547 27.9514 5.74769 27.9514 5.74769C27.9514 5.74769 28.1681 5.86774 28.4963 6.70201L3.69522 23.472L3.71181 23.4764ZM5.18164 24.9265L29.1028 8.75725C29.2585 9.43883 29.3965 10.1868 29.5212 10.9845L7.01868 26.1989C6.34808 25.8155 5.73222 25.3934 5.17721 24.9431L5.18164 24.9265ZM24.0968 28.0179C23.2855 28.3615 22.3902 28.6204 21.4402 28.7847L28.584 23.9528C27.6196 25.8022 26.1197 27.1621 24.099 28.0096L24.0968 28.0179ZM29.6377 20.8027L17.4866 29.0187C16.4692 28.9695 15.4071 28.8549 14.3046 28.6585L29.9244 18.0969C29.8755 19.0794 29.7817 19.9966 29.6294 20.8005L29.6377 20.8027ZM11.5948 28.06C10.7262 27.8193 9.90406 27.5377 9.13667 27.2174L29.8081 13.239C29.8847 14.0505 29.9342 14.8638 29.9572 15.6433L11.6053 28.0539L11.5948 28.06Z" fill="black"/>
</svg>
