<svg width="142" height="189" viewBox="0 0 142 189" fill="none" xmlns="http://www.w3.org/2000/svg">
<path d="M50.0576 42.2778C50.0576 39.5077 51.1339 36.8512 53.0497 34.8924C54.9655 32.9337 57.564 31.8333 60.2734 31.8333C62.9828 31.8333 65.5812 32.9337 67.4971 34.8924C69.4129 36.8512 70.4892 39.5077 70.4892 42.2778V88.9644L82.8504 90.3222L133.317 113.196C138.731 115.702 142 121.238 142 127.296V172.833C141.694 181.398 135.053 188.187 126.676 188.5H60.2734C56.3914 188.5 52.7137 186.933 50.0576 184.009L0 140.142L7.55972 132.1C9.50072 129.907 12.259 128.758 15.1194 128.758H17.3669L50.0576 146.722V42.2778ZM60.2734 0.5C71.111 0.5 81.5048 4.90157 89.1681 12.7364C96.8315 20.5713 101.137 31.1976 101.137 42.2778C101.137 57.9444 92.964 71.2089 80.705 78.4156V65.6733C86.9367 59.9289 90.9209 51.5733 90.9209 42.2778C90.9209 33.9677 87.6919 25.9979 81.9444 20.1218C76.1969 14.2456 68.4016 10.9444 60.2734 10.9444C52.1452 10.9444 44.3499 14.2456 38.6023 20.1218C32.8548 25.9979 29.6259 33.9677 29.6259 42.2778C29.6259 51.5733 33.6101 59.9289 39.8417 65.6733V78.4156C27.5827 71.2089 19.4101 57.9444 19.4101 42.2778C19.4101 31.1976 23.7153 20.5713 31.3787 12.7364C39.042 4.90157 49.4358 0.5 60.2734 0.5Z" fill="#FF33D0"/>
</svg>
