<svg width="235" height="58" viewBox="0 0 235 58" fill="none" xmlns="http://www.w3.org/2000/svg">
<g clip-path="url(#clip0_612_312)">
<path d="M212.219 37.947H228.996C239.007 37.8872 232.832 29.1921 230.1 29.4656H213.326L215.477 12.9415C216.328 5.81464 207.382 10.2893 206.866 12.9415L204.716 29.4656H187.94C178.603 29.5244 184.835 37.7727 186.835 37.947H203.612L201.461 54.4721C200.596 62.4439 209.753 56.4648 210.071 54.4721L212.222 37.947H212.219Z" fill="url(#paint0_linear_612_312)"/>
<path d="M145.406 36.0778C145.406 25.626 152.902 18.2389 163.518 18.2389C174.207 18.2389 181.106 24.748 181.106 34.6912V38.1271H151.786C152.674 44.4902 157.87 48.3592 165.738 48.3592C170.475 48.5098 175.084 46.83 178.581 43.6787H178.877V49.9668C175.762 52.4529 171.01 53.9182 165.589 53.9182C153.346 53.9182 145.406 46.8264 145.406 36.0778ZM151.79 32.9377H175.241C174.349 27.383 169.892 23.8008 163.584 23.8008C160.84 23.7092 158.153 24.5756 155.995 26.2469C153.836 27.9182 152.347 30.2865 151.79 32.9342V32.9377ZM101.308 36.0778C101.308 25.6959 108.584 18.2389 118.677 18.2389C124.321 18.2389 128.626 20.1414 131.374 23.4308H131.522V2.00659H137.83V53.1885H132.482L132.257 47.775H132.109C129.514 51.577 124.76 53.9172 118.673 53.9172C108.584 53.9182 101.308 46.4637 101.308 36.0778ZM107.692 36.0778C107.692 43.3151 112.594 48.3621 119.717 48.3621C126.768 48.3621 131.74 43.3151 131.74 36.0778C131.74 28.8404 126.768 23.7934 119.717 23.7934C112.594 23.7934 107.692 28.8404 107.692 36.0778ZM57.2114 36.0778C57.2114 25.6959 64.4881 18.2389 74.5844 18.2389C80.6684 18.2389 85.4209 20.5792 88.02 24.4562H88.1687L88.3887 18.9714H93.7374V53.1885H88.3887L88.1687 47.7789H88.02C85.4209 51.581 80.6684 53.9172 74.5844 53.9172C64.4881 53.9182 57.2114 46.4637 57.2114 36.0778ZM63.5957 36.0778C63.5957 43.3191 68.4961 48.3621 75.6241 48.3621C82.6759 48.3621 87.6474 43.3191 87.6474 36.0778C87.6474 28.8364 82.6759 23.7973 75.6241 23.7973C68.4951 23.7973 63.5957 28.8404 63.5957 36.0778ZM7.40244 41.9993V24.3801H1.01611V18.9665H7.5511L8.51638 9.68074H13.7124V18.9665H24.9242V24.3801H13.7124V41.8534C13.7124 45.9472 15.9407 48.3621 19.6528 48.3621C20.5993 48.4077 21.5446 48.2556 22.4271 47.9155C23.3096 47.5753 24.1088 47.0551 24.7725 46.389H25.0688V52.6771C23.0973 53.5822 20.9341 54.0079 18.7608 53.9182C11.4827 53.9182 7.40244 49.6783 7.40244 42.0003V41.9993ZM32.563 53.1885V18.9714H37.9118L38.0634 24.4562H38.2121C40.2919 20.3624 43.9286 18.2389 49.1958 18.2389C51.0432 18.1889 52.8683 18.6451 54.4682 19.5561V25.773H54.1719C52.5764 24.7 50.6836 24.1389 48.7519 24.1664C42.0724 24.1664 38.8771 28.6966 38.8771 37.6167V53.1915L32.563 53.1885Z" fill="#6D6F72"/>
</g>
<defs>
<linearGradient id="paint0_linear_612_312" x1="236.82" y1="11.1244" x2="187.721" y2="59.1133" gradientUnits="userSpaceOnUse">
<stop stop-color="#40AF81"/>
<stop offset="1" stop-color="#0999D7"/>
</linearGradient>
<clipPath id="clip0_612_312">
<rect width="234" height="57" fill="white" transform="translate(0.5 0.5)"/>
</clipPath>
</defs>
</svg>
