<svg width="227" height="155" viewBox="0 0 227 155" fill="none" xmlns="http://www.w3.org/2000/svg">
<path d="M113.5 46.5C105.29 46.5 97.4169 49.7661 91.6118 55.5797C85.8067 61.3933 82.5455 69.2783 82.5455 77.5C82.5455 85.7217 85.8067 93.6067 91.6118 99.4203C97.4169 105.234 105.29 108.5 113.5 108.5C121.71 108.5 129.583 105.234 135.388 99.4203C141.193 93.6067 144.455 85.7217 144.455 77.5C144.455 69.2783 141.193 61.3933 135.388 55.5797C129.583 49.7661 121.71 46.5 113.5 46.5ZM113.5 129.167C99.8172 129.167 86.6949 123.723 77.0197 114.034C67.3446 104.344 61.9091 91.2029 61.9091 77.5C61.9091 63.7971 67.3446 50.6555 77.0197 40.9661C86.6949 31.2768 99.8172 25.8333 113.5 25.8333C127.183 25.8333 140.305 31.2768 149.98 40.9661C159.655 50.6555 165.091 63.7971 165.091 77.5C165.091 91.2029 159.655 104.344 149.98 114.034C140.305 123.723 127.183 129.167 113.5 129.167ZM113.5 0C61.9091 0 17.8505 32.1367 0 77.5C17.8505 122.863 61.9091 155 113.5 155C165.091 155 209.15 122.863 227 77.5C209.15 32.1367 165.091 0 113.5 0Z" fill="#942F88"/>
</svg>
